<svg width="16" height="29" viewBox="0 0 16 29" fill="none" xmlns="http://www.w3.org/2000/svg">
<path d="M12.2311 0.0695376C11.4913 0.272395 10.7873 0.773573 10.3815 1.35828C10.1906 1.63273 10.1667 1.83559 10.298 2.02652C10.3457 2.09811 10.7753 2.37257 11.2526 2.64702C11.7299 2.90954 12.1595 3.16013 12.2073 3.19593C12.2789 3.24366 12.1595 3.45845 11.6106 4.29375L10.9185 5.3319H8.3291H5.73968L5.01178 3.39879L4.27194 1.47761L2.13597 1.45374L0 1.42988V1.91912V2.40837L1.80185 2.4203L3.59177 2.44417L4.14068 3.86417C4.439 4.65173 4.67766 5.2961 4.67766 5.30804C4.67766 5.31997 4.10488 5.3319 3.41278 5.3319C2.2195 5.3319 2.13597 5.34384 1.98084 5.46316C1.77799 5.61829 1.77799 5.77342 1.96891 6.53712C2.23143 7.52754 2.37463 8.48216 2.41043 9.49645C2.45816 10.642 2.38656 11.1074 1.93311 13.136C1.5274 14.9259 1.43194 15.6776 1.47967 16.3578C1.61093 18.3864 2.97127 20.236 5.07144 21.2264C5.60842 21.477 6.64657 21.7992 6.95682 21.7992C7.31481 21.7992 7.29094 21.6321 7.29094 24.5437V27.2047H6.22892C5.17884 27.2047 5.15497 27.2047 5.01178 27.3599C4.92825 27.4434 4.85665 27.5627 4.85665 27.6343C4.85665 27.8133 5.01178 28.0997 5.1311 28.1474C5.29816 28.2071 10.3219 28.1952 10.4412 28.1236C10.5009 28.0878 10.5844 27.9804 10.6321 27.8849C10.7276 27.6701 10.6321 27.3718 10.4412 27.2763C10.3815 27.2405 9.86843 27.2167 9.29565 27.2167H8.2575V24.5556C8.2575 21.656 8.23363 21.8111 8.59162 21.8111C8.88994 21.8111 9.92809 21.5009 10.477 21.2383C11.2646 20.8684 11.8731 20.4388 12.4578 19.8183C13.6034 18.637 14.1523 17.2408 14.0688 15.7612C14.021 15.0452 13.9375 14.556 13.5437 12.8496C13.1261 11.0596 13.0903 10.8091 13.138 9.59191C13.1738 8.48216 13.3051 7.52754 13.5795 6.51325C13.7705 5.77342 13.7705 5.63022 13.5676 5.4751C13.4244 5.3677 13.317 5.34384 12.7442 5.34384H12.0879L12.5772 4.59207C12.8516 4.18635 13.0903 3.82837 13.1141 3.8045C13.138 3.78064 13.5915 4.00736 14.1165 4.30568C14.6535 4.604 15.1427 4.85459 15.2143 4.85459C15.441 4.85459 15.6558 4.604 15.811 4.15056C16.3957 2.47996 15.5842 0.749707 13.9256 0.165C13.4721 -0.0139921 12.6488 -0.0497904 12.2311 0.0695376ZM13.8063 1.10769C14.212 1.28668 14.6296 1.6924 14.8444 2.13391C15.0115 2.4561 15.0353 2.55156 15.0353 3.02887C15.0353 3.31526 15.0115 3.57778 14.9876 3.60165C14.9399 3.64938 11.4674 1.66853 11.4674 1.585C11.4674 1.47761 11.897 1.16736 12.2192 1.05996C12.6488 0.904834 13.3886 0.940632 13.8063 1.10769ZM6.13346 9.10267C6.71817 10.642 7.25514 12.062 7.32674 12.2649L7.458 12.6228H5.26237H3.0548L3.19799 11.9069C3.48438 10.4749 3.43665 8.68502 3.06673 6.95476L2.92354 6.31039H3.99749H5.07144L6.13346 9.10267ZM12.5414 6.64451C12.3147 7.57527 12.1953 8.50603 12.1715 9.60385C12.1357 10.7971 12.1357 10.7494 12.434 12.4439L12.4698 12.6109H10.5009H8.52002L8.34103 12.1336C7.57733 10.1647 6.18119 6.48938 6.15733 6.39392C6.13346 6.29846 6.31245 6.28653 9.37918 6.28653H12.6249L12.5414 6.64451ZM12.8994 14.4128C13.1141 15.4867 13.1499 16.1192 13.0545 16.7158C12.5652 19.7587 9.12859 21.6202 5.91867 20.5582C4.28388 20.0093 3.07866 18.8279 2.60135 17.2886C2.39849 16.6203 2.41043 15.606 2.63715 14.4963C2.73261 14.0428 2.81614 13.661 2.84001 13.6252C2.85194 13.6013 5.08337 13.5775 7.80405 13.5775H12.7442L12.8994 14.4128Z" fill="black"/>
<path d="M11.2168 16.6557C11.1691 16.7154 11.014 16.966 10.8946 17.2165C10.5725 17.849 9.91616 18.5053 9.28372 18.8155C8.62741 19.1377 8.48422 19.3764 8.75868 19.7224C8.92573 19.9253 9.20019 19.9253 9.61784 19.7224C10.6202 19.2093 11.5032 18.3024 11.9089 17.3478C12.0641 16.9898 12.0641 16.8944 11.9089 16.6915C11.7538 16.5244 11.372 16.4886 11.2168 16.6557Z" fill="black"/>
</svg>
