<svg width="19" height="22" viewBox="0 0 19 22" fill="none" xmlns="http://www.w3.org/2000/svg">
<path d="M1.61038 8.23609C2.64686 8.23609 12.4656 8.23609 13.317 8.23609C14.2794 8.23609 14.8162 9.07823 14.9272 9.61498C16.2784 9.79081 19.1935 11.2993 18.9899 15.0195C18.7863 18.7397 15.0568 19.8687 13.5021 19.6743C13.0671 20.7663 12.0584 21.8398 10.8184 21.8398C10.2816 21.8398 5.53418 21.8398 4.14605 21.8398C2.75791 21.8398 1.65665 20.5628 1.34201 19.3504C1.17543 18.7212 0.185226 11.2437 0.0371583 10.3368C-0.184944 9.13376 0.620176 8.23609 1.61038 8.23609ZM14.8625 10.5867L13.7057 18.7304C15.3252 18.7397 17.4444 17.9531 18.0089 15.3063C18.5364 12.8169 16.3061 10.8273 14.8625 10.5867ZM0.925567 10.0222C0.962584 10.3553 2.05458 17.8605 2.21191 18.9525C2.35072 19.8964 3.32242 20.8867 4.09052 20.8959C4.85862 20.9052 10.0225 20.8959 10.6981 20.8959C11.5032 20.8959 12.5396 20.1185 12.7062 18.971C12.8913 17.6662 13.9648 10.3461 14.0111 10.0222C14.0573 9.69827 13.7982 9.17077 13.1597 9.17077C12.3175 9.17077 2.5173 9.19853 1.78621 9.17077C1.11065 9.14301 0.88855 9.68901 0.925567 10.0222ZM7.57012 7.95847C8.48629 7.62531 9.42097 6.79243 9.09707 5.48758C8.79168 4.229 5.90435 4.01616 5.98764 3.20178C6.07093 2.38741 8.35673 0.527304 9.23588 0.120117C9.23588 0.120117 5.13625 1.23063 5.04371 3.11849C4.95117 5.01561 7.9773 4.85829 8.16239 5.88551C8.35673 6.91274 7.57012 7.95847 7.57012 7.95847Z" fill="black"/>
<path d="M11.8919 7.84763C12.808 7.51447 13.7427 6.68159 13.4188 5.37674C13.1134 4.11816 10.2261 3.90532 10.3094 3.09094C10.3927 2.27657 12.6785 0.416464 13.5576 0.00927734C13.5576 0.00927734 9.45799 1.11979 9.36545 3.00765C9.27291 4.90478 12.299 4.74745 12.4841 5.77468C12.6785 6.8019 11.8919 7.84763 11.8919 7.84763Z" fill="black"/>
<path d="M3.18361 7.83835C4.09978 7.5052 5.03446 6.67231 4.71056 5.36747C4.40517 4.10889 1.51785 3.89604 1.60113 3.08167C1.68442 2.26729 3.97022 0.407187 4.84938 0C4.84938 0 0.749743 1.11051 0.6572 2.99838C0.564658 4.8955 3.5908 4.73818 3.77588 5.7654C3.96097 6.79262 3.18361 7.83835 3.18361 7.83835Z" fill="black"/>
</svg>
