<svg width="25" height="25" viewBox="0 0 25 25" fill="none" xmlns="http://www.w3.org/2000/svg">
<path d="M23.3907 1.07916C23.3224 1.1279 22.9033 1.5178 22.4842 1.94669C21.7628 2.67776 21.7043 2.74599 21.7043 2.90195C21.7043 3.12615 21.8701 3.29186 22.0942 3.29186C22.2502 3.29186 22.3184 3.23337 23.069 2.49256C23.5174 2.05392 23.9073 1.64452 23.9365 1.57628C24.034 1.39108 24.0145 1.28386 23.8683 1.1279C23.7123 0.971935 23.5856 0.962188 23.3907 1.07916Z" fill="black" stroke="black" stroke-width="0.3"/>
<path d="M19.5697 3.00916C19.2091 3.13588 18.8582 3.39907 18.6437 3.69149C18.361 4.07165 18.2831 4.33483 18.2831 4.8612C18.2831 5.24136 18.2928 5.31934 18.4195 5.58252L18.556 5.87495L18.3221 6.11864C18.1076 6.34283 18.0784 6.40132 18.0784 6.54753C18.0784 6.78147 18.2246 6.91794 18.4488 6.91794C18.5852 6.91794 18.6535 6.87895 18.8679 6.67425L19.1214 6.44031L19.4138 6.57677C19.677 6.70349 19.755 6.71324 20.1351 6.71324C20.6517 6.71324 20.9247 6.62551 21.3048 6.35258C21.8312 5.96268 22.0944 5.39732 22.0554 4.72474C22.0261 4.01316 21.646 3.43806 20.9929 3.11639C20.6907 2.96043 20.6225 2.94093 20.2228 2.94093C19.9012 2.93118 19.7452 2.95068 19.5697 3.00916ZM20.6517 3.79872C21.0514 3.98392 21.3048 4.37382 21.2951 4.81246C21.2951 5.2706 21.1001 5.61177 20.7102 5.82621C20.3983 5.99192 19.9499 6.01142 19.6672 5.85545C19.0141 5.50454 18.8289 4.72474 19.2676 4.13013C19.5697 3.71099 20.1643 3.57452 20.6517 3.79872Z" fill="black" stroke="black" stroke-width="0.3"/>
<path d="M15.7487 5.66046C15.583 5.76768 15.5245 5.96263 15.6025 6.11859C15.6317 6.17708 15.9437 6.5085 16.2848 6.85941L16.9184 7.493L16.8209 7.62947C16.5383 8.02912 16.9672 8.45801 17.3668 8.17533L17.5033 8.07785L18.1564 8.73094C18.5365 9.1111 18.8679 9.39378 18.9362 9.41327C19.1993 9.4815 19.482 9.16958 19.3846 8.92589C19.3261 8.76993 16.1386 5.62147 16.0119 5.59222C15.9339 5.59222 15.8364 5.61172 15.7487 5.66046Z" fill="black" stroke="black" stroke-width="0.3"/>
<path d="M13.9162 6.58654C13.8967 6.59629 13.8089 6.61578 13.7407 6.63528C13.6432 6.65478 13.3703 6.89846 12.8244 7.43458C12.1323 8.12666 12.0446 8.23388 11.9861 8.42883C11.9082 8.68227 11.9471 8.89672 12.0934 9.13066C12.1518 9.20864 12.5223 9.60829 12.9317 10.0177L13.6725 10.7585L13.497 10.9437C13.3995 11.0509 13.3118 11.1874 13.2923 11.2556C13.2338 11.4993 13.497 11.7722 13.7407 11.704C13.8089 11.6845 13.9454 11.5968 14.0526 11.4993L14.2378 11.3239L14.9786 12.0647C15.9144 13.0102 16.1289 13.1369 16.5577 13.0297C16.7235 12.9809 16.8697 12.8542 17.5228 12.2109C17.9516 11.7917 18.3318 11.3823 18.3708 11.2946C18.4585 11.1094 18.4585 10.7682 18.3708 10.5928C18.2733 10.3978 14.7447 6.84973 14.5108 6.72301C14.3256 6.62553 14.0136 6.5573 13.9162 6.58654ZM15.9242 9.1599C16.8794 10.1249 17.6592 10.9242 17.6592 10.9437C17.6592 10.9729 17.357 11.2946 16.9866 11.665L16.3141 12.3376L14.5205 10.5441C13.536 9.55955 12.727 8.71151 12.727 8.68227C12.727 8.64328 13.0194 8.32161 13.3703 7.9707C13.9259 7.42483 14.0331 7.3371 14.1014 7.3761C14.1501 7.39559 14.9591 8.19489 15.9242 9.1599Z" fill="black" stroke="black" stroke-width="0.3"/>
<path d="M11.0796 10.3199C11.0016 10.3978 10.9626 10.4758 10.9626 10.5928C10.9626 10.739 11.0211 10.817 11.645 11.4506C12.0739 11.8892 12.2981 12.1524 12.2688 12.1719C12.2396 12.1914 12.1908 12.2694 12.1518 12.3473C12.0641 12.5618 12.1421 12.7665 12.3468 12.8445C12.4833 12.903 12.5223 12.903 12.6587 12.8347C12.7465 12.7957 12.8244 12.7372 12.8342 12.7178C12.8439 12.6983 13.1753 12.9809 13.5458 13.3513C14.1793 13.9752 14.2378 14.0337 14.3938 14.0337C14.6277 14.0337 14.7837 13.868 14.7837 13.6438C14.7837 13.4781 14.7252 13.4098 13.1558 11.8502C11.5865 10.2809 11.5183 10.2224 11.3623 10.2224C11.2356 10.2029 11.1576 10.2419 11.0796 10.3199Z" fill="black" stroke="black" stroke-width="0.3"/>
<path d="M10.0172 11.4018C9.87099 11.4798 9.78326 11.6942 9.82225 11.8404C9.84175 11.8989 10.1537 12.2401 10.5046 12.6008L11.1577 13.2538L11.0602 13.3903C10.7775 13.79 11.2064 14.2189 11.6061 13.9362L11.7425 13.8387L12.3956 14.4918C12.7758 14.8719 13.1072 15.1546 13.1754 15.1741C13.4386 15.2423 13.7213 14.9304 13.6238 14.6867C13.5653 14.521 10.3779 11.3823 10.2511 11.3531C10.1829 11.3433 10.0854 11.3628 10.0172 11.4018Z" fill="black" stroke="black" stroke-width="0.3"/>
<path d="M8.0091 12.3863C7.84339 12.435 7.66794 12.591 7.07334 13.1856C6.67369 13.5853 6.31303 13.9752 6.26429 14.0531C6.16681 14.2286 6.17656 14.599 6.27403 14.794C6.31302 14.8817 6.70293 15.3106 7.13182 15.7395L7.91163 16.529L6.54697 17.8937L5.18231 19.2583L4.98736 19.1609C4.75341 19.0439 4.55846 19.0439 4.33427 19.1316C4.10033 19.2291 1.2053 22.1144 1.08833 22.3678C0.903124 22.7675 0.990852 23.0014 1.52697 23.518C2.04359 24.0347 2.25804 24.1029 2.63819 23.9177C2.89163 23.8007 5.78666 20.8959 5.87438 20.6717C5.97186 20.4378 5.96211 20.2526 5.84514 20.0187L5.74767 19.8237L7.11233 18.459L8.47699 17.0944L9.26654 17.8742C10.2121 18.81 10.3778 18.9074 10.8067 18.8002C10.9724 18.7515 11.1186 18.6248 11.7717 17.9814C12.2006 17.5623 12.5807 17.1529 12.6197 17.0651C12.7074 16.8799 12.7074 16.5388 12.6197 16.3633C12.5222 16.1684 8.99361 12.6202 8.75966 12.4935C8.50623 12.3376 8.25279 12.3083 8.0091 12.3863ZM10.1731 14.9109C11.1283 15.8759 11.9081 16.6752 11.9081 16.6947C11.9081 16.724 11.606 17.0456 11.2355 17.4161L10.563 18.0886L8.76941 16.2951C7.78491 15.3106 6.97586 14.4625 6.97586 14.4333C6.97586 14.3943 7.26829 14.0726 7.6192 13.7217C8.17481 13.1759 8.28203 13.0881 8.35027 13.1271C8.399 13.1466 9.20805 13.9459 10.1731 14.9109ZM3.74941 21.8122L2.31652 23.2451L2.03384 22.9624L1.75116 22.6797L3.17431 21.2566L4.6072 19.8237L4.88988 20.1064L5.17256 20.3891L3.74941 21.8122Z" fill="black" stroke="black" stroke-width="0.3"/>
</svg>
