<svg width="23" height="19" viewBox="0 0 23 19" fill="none" xmlns="http://www.w3.org/2000/svg">
<path d="M10.8202 0.628046C7.18337 0.998556 4.19004 2.6366 2.71775 5.04492C2.33749 5.65918 2.08398 6.37095 1.95723 7.17048C1.92798 7.31673 1.90848 7.33623 1.62572 7.43373C1.21621 7.57999 0.933451 7.75549 0.650693 8.07725C0.0754276 8.71102 -0.168329 9.72505 0.124179 10.1638C0.270433 10.3783 0.53369 10.5441 0.835948 10.6026C0.972452 10.6318 1.08946 10.6611 1.09921 10.6611C1.09921 10.6611 1.07971 10.7781 1.0407 10.9048C0.806698 11.8019 1.01145 12.7086 1.63547 13.4789L1.91823 13.8299V14.1614C1.91823 15.7897 3.04926 17.4083 4.61905 18.0225C5.38932 18.3248 4.80431 18.3053 11.9708 18.3053H18.4449L18.8154 18.198C20.5607 17.73 21.799 16.287 22.0135 14.5027C22.0428 14.2687 22.0525 14.0249 22.0428 13.9469C22.0135 13.8397 22.0428 13.7812 22.267 13.5374C22.579 13.1961 22.8521 12.6599 22.9496 12.2016C23.0373 11.7726 23.0081 11.1681 22.8813 10.7683L22.7838 10.4758L22.8911 10.3003C22.9886 10.1346 22.9983 10.0663 22.9886 9.57879C22.9886 8.71102 22.7838 8.15525 22.2865 7.67749C22.0428 7.44348 22.033 7.41423 22.0038 7.15098C21.9453 6.51721 21.5943 5.57143 21.2043 4.93766C20.746 4.21614 19.8685 3.28987 19.0982 2.74385C17.6259 1.69082 15.9294 1.03756 13.8428 0.706048C13.3943 0.647546 11.2785 0.589045 10.8202 0.628046ZM13.7356 1.68107C17.5479 2.25634 20.5705 4.4989 21.0385 7.07297L21.0775 7.30698H11.9903H2.91276L2.94201 7.09247C3.02976 6.51721 3.36127 5.75669 3.80003 5.14242C4.04379 4.80116 4.74581 4.06989 5.09682 3.79688C5.50633 3.46537 6.2571 3.00711 6.85186 2.72435C8.1974 2.07109 9.37718 1.75908 11.1225 1.58357C11.5807 1.53482 13.1798 1.59332 13.7356 1.68107ZM21.6528 8.38926C21.8283 8.54526 21.9843 8.86702 22.0233 9.15953C22.033 9.26678 22.0623 9.41304 22.072 9.48129C22.0818 9.54954 22.072 9.60804 22.0428 9.60804C22.0233 9.60804 21.8088 9.48129 21.565 9.32529C20.7362 8.79877 20.278 8.66227 19.8685 8.80852C19.6052 8.91577 19.4102 9.11078 19.2835 9.40329C19.1957 9.58854 19.147 9.64705 19.0007 9.70555C18.5814 9.8713 17.9087 9.90055 17.4602 9.76405C17.3139 9.72505 17.2847 9.6958 17.2652 9.54954C17.2066 9.18878 16.8459 8.84752 16.3291 8.68177C16.0561 8.59402 15.9099 8.57452 15.3541 8.57452C14.6131 8.57452 14.2231 8.66227 13.8818 8.91577C13.6478 9.08153 13.56 9.21803 13.4918 9.49104C13.4138 9.8128 13.248 9.88105 12.5265 9.88105C11.8635 9.88105 11.532 9.7933 11.532 9.61779C11.532 9.55929 11.4735 9.41304 11.415 9.28628C11.1907 8.84752 10.6935 8.61352 9.8647 8.57452C8.75317 8.51601 7.83664 8.90602 7.71964 9.49104C7.68064 9.6763 7.65139 9.70555 7.31988 9.80305C6.95912 9.9103 6.26685 9.92005 5.99384 9.80305C5.80859 9.7348 5.78908 9.7153 5.74033 9.50079C5.60383 8.91577 5.09682 8.64277 4.15104 8.64277C3.09801 8.64277 2.22049 8.97428 1.97673 9.46179C1.90848 9.58854 1.68422 9.66655 1.29421 9.68605L0.982202 9.6958V9.55929C1.05045 8.91577 1.56722 8.36976 2.18149 8.30151C2.32774 8.28201 6.74461 8.26251 11.9805 8.26251H21.5065L21.6528 8.38926ZM10.05 9.55929C10.479 9.62754 10.557 9.6763 10.5765 9.8713C10.6057 10.1053 10.7617 10.3393 10.9762 10.5051C11.766 11.0803 13.4918 10.9926 14.1061 10.3588C14.2621 10.2028 14.3888 9.93955 14.3888 9.78355C14.3888 9.54954 15.4809 9.43254 16.0659 9.60804C16.2901 9.6763 16.3194 9.70555 16.3194 9.80305C16.3194 10.1443 16.6996 10.5343 17.1676 10.6806C17.5967 10.8171 18.3084 10.8463 18.7862 10.7488C19.4882 10.6026 19.9075 10.3393 20.0927 9.9103C20.1805 9.70555 20.2 9.68605 20.2975 9.7348C20.4827 9.80305 20.824 9.99805 21.292 10.2808C21.7015 10.5343 21.76 10.5928 21.8673 10.8073C22.3255 11.7336 21.916 12.8939 20.9605 13.3424L20.6582 13.4887H11.9805H3.30277L3.00051 13.3424C2.6105 13.1571 2.20099 12.7281 2.06448 12.3576C1.97673 12.1431 1.95723 12.0066 1.95723 11.6166C1.95723 11.1583 1.95723 11.1291 2.12298 10.8073C2.23024 10.5928 2.33749 10.4466 2.41549 10.3978C2.58125 10.3003 2.825 10.0176 2.825 9.9298C2.825 9.7153 4.08279 9.51054 4.59955 9.63729C4.78481 9.68605 4.79456 9.6958 4.82381 9.8713C4.87256 10.2516 5.23332 10.5928 5.75983 10.7488C6.11084 10.8561 7.10537 10.8561 7.50513 10.7391C8.1389 10.5636 8.49966 10.3003 8.58741 9.93955C8.63616 9.7543 8.66541 9.7153 8.83117 9.65679C9.22118 9.52029 9.61119 9.48129 10.05 9.55929ZM5.41857 15.3997C5.83784 16.2187 5.88659 16.287 6.04259 16.3747L6.2181 16.4625L9.14318 15.4875L12.0683 14.5124H16.5534H21.0678L21.0385 14.7172C20.9703 15.2437 20.59 15.936 20.1122 16.404C19.7515 16.755 19.4297 16.9695 18.9909 17.1548C18.3767 17.3985 18.5424 17.3985 11.8343 17.379C4.94081 17.3693 5.49658 17.3888 4.78481 17.0572C3.84878 16.6087 3.12726 15.6727 2.94201 14.6782L2.91276 14.5124H3.93653H4.97006L5.41857 15.3997ZM8.90917 14.5417C8.87017 14.5612 8.3144 14.7464 7.66114 14.9609L6.48135 15.3607L6.2766 14.9609C6.1596 14.7367 6.07184 14.5514 6.07184 14.5319C6.07184 14.5124 6.72511 14.5124 7.52463 14.5124C8.32415 14.5124 8.93842 14.5222 8.90917 14.5417Z" fill="black"/>
<path d="M10.8591 2.53912C10.8104 2.55862 10.6154 2.73413 10.4203 2.93888C10.1376 3.23139 10.0693 3.3289 10.0693 3.43615C10.0693 3.74816 10.2643 3.94316 10.5861 3.94316C10.7324 3.94316 10.8006 3.90416 11.0639 3.6409C11.3954 3.3289 11.5026 3.16314 11.5026 2.99739C11.5026 2.83163 11.3661 2.63663 11.2101 2.56837C11.0541 2.48062 10.9956 2.48062 10.8591 2.53912Z" fill="black"/>
<path d="M14.1452 3.07536C13.9794 3.17287 13.8819 3.41662 13.9209 3.59213C13.9404 3.65063 14.1159 3.87489 14.3304 4.06989C14.6327 4.37215 14.7302 4.43065 14.8472 4.43065C15.1592 4.43065 15.3445 4.23565 15.3445 3.90414C15.3445 3.76763 15.2957 3.69938 15.0422 3.42637C14.5937 2.97786 14.4182 2.89986 14.1452 3.07536Z" fill="black"/>
<path d="M6.53977 3.98212C6.49102 4.00162 6.29601 4.17712 6.10101 4.38188C5.81825 4.67439 5.75 4.77189 5.75 4.87914C5.75 5.19115 5.945 5.38616 6.26676 5.38616C6.41302 5.38616 6.48127 5.34715 6.74453 5.0839C7.07604 4.77189 7.18329 4.60613 7.18329 4.44038C7.18329 4.27463 7.04679 4.07962 6.89078 4.01137C6.73478 3.92362 6.67628 3.92362 6.53977 3.98212Z" fill="black"/>
<path d="M11.9512 5.22041C11.5807 5.58117 11.4929 5.72742 11.5319 5.94193C11.5807 6.23444 11.8634 6.40994 12.1267 6.31244C12.3412 6.23444 12.9067 5.63967 12.936 5.46417C12.9945 5.16191 12.7702 4.91815 12.429 4.91815C12.2925 4.9279 12.2242 4.9669 11.9512 5.22041Z" fill="black"/>
<path d="M17.899 5.05463C17.7917 5.16188 17.7722 5.23013 17.7722 5.39589C17.7722 5.60064 17.782 5.62014 18.1232 5.9614C18.5132 6.36116 18.6595 6.41966 18.913 6.30266C19.108 6.21491 19.225 5.97115 19.186 5.77615C19.147 5.62014 18.6692 5.08388 18.484 4.98637C18.2695 4.87912 18.0452 4.90837 17.899 5.05463Z" fill="black"/>
</svg>
