<svg width="23" height="22" viewBox="0 0 23 22" fill="none" xmlns="http://www.w3.org/2000/svg">
<path d="M13.6318 0.0589341C13.5733 0.0881656 10.6502 2.33899 7.14239 5.05751C3.63461 7.77604 0.623773 10.1048 0.448384 10.2315C0.272996 10.3582 0.107351 10.5335 0.0683753 10.6115C0.0196563 10.7187 0.000168634 11.9951 0.000168634 15.3762C0.000168634 20.4917 -0.019319 20.2871 0.36069 20.4527C0.497103 20.5112 3.16691 20.6769 11.5174 21.1348C21.8068 21.7 22.4986 21.7389 22.6643 21.6512C23.0346 21.4564 23.0151 21.7779 22.9858 15.0839C22.9664 11.1864 22.9371 8.79914 22.8981 8.41913C22.5961 5.61291 22.0797 4.16108 21.0663 3.23542C19.8581 2.13437 17.4221 0.965109 14.5867 0.146629C13.9631 -0.0190163 13.7974 -0.0385041 13.6318 0.0589341ZM15.0154 1.54974C17.4611 2.3195 19.4293 3.31337 20.3258 4.2098C21.0858 4.96982 21.5048 6.29498 21.6997 8.57503C21.7679 9.36428 21.7873 11.4397 21.7191 11.4397C21.4366 11.4397 2.35817 10.3582 2.34843 10.3484C2.28997 10.2899 13.9728 1.2964 14.08 1.2964C14.1384 1.2964 14.5672 1.41332 15.0154 1.54974ZM5.61261 11.7515C7.71727 11.8587 9.49065 11.9659 9.5686 11.9756C9.69527 11.9951 9.69527 12.0146 9.69527 12.8915V13.788L5.49568 13.5444C3.17665 13.4177 1.27661 13.3105 1.27661 13.3105C1.26687 13.3008 1.25712 12.9013 1.25712 12.3946V11.4787L1.52995 11.5177C1.66636 11.5274 3.50794 11.6346 5.61261 11.7515ZM11.7804 12.0926L12.1215 12.1315V13.028V13.9244L11.5758 13.8952C11.2738 13.8757 10.9912 13.8464 10.9522 13.8367C10.8938 13.8172 10.8743 13.5834 10.8743 12.9305V12.0536H11.1471C11.303 12.0536 11.5856 12.0731 11.7804 12.0926ZM17.8606 12.4336L21.7484 12.6479V13.5444V14.4408H21.5632C21.3002 14.4408 14.2067 14.0511 13.7195 14.0121L13.3102 13.9829V13.0767V12.1608L13.6415 12.19C13.8169 12.1997 15.7169 12.3167 17.8606 12.4336ZM5.27157 14.7429C7.24957 14.8501 9.05218 14.9572 9.27628 14.9767L9.67578 15.006L9.69527 15.4834C9.71476 15.9121 9.7245 15.9706 9.87066 16.1167C9.99733 16.2434 10.085 16.2726 10.2799 16.2726C10.504 16.2726 10.5625 16.2434 10.7086 16.0875C10.8645 15.9219 10.8743 15.8634 10.8743 15.4737V15.0449L11.4297 15.0742C11.7317 15.0936 12.0143 15.1229 12.0533 15.1326C12.102 15.1521 12.1215 15.386 12.1215 16.0485V16.9352L11.6051 16.906C11.3127 16.8865 8.86704 16.7501 6.16801 16.6039L1.24738 16.3311V15.4347V14.548H1.46174C1.57867 14.548 3.29358 14.6357 5.27157 14.7429ZM21.7386 15.6783C21.7484 15.688 21.7484 16.0875 21.7484 16.5942V17.5004L21.534 17.4711C21.4171 17.4614 19.5755 17.3542 17.4416 17.247C15.3077 17.1301 13.5051 17.0327 13.4369 17.0132C13.3102 16.9937 13.3102 16.9742 13.3102 16.0973V15.2106L17.5196 15.4444C19.8288 15.5711 21.7289 15.6783 21.7386 15.6783ZM6.99623 17.8609C9.67578 18.007 11.9266 18.1337 11.9948 18.1532C12.1117 18.1727 12.1215 18.2117 12.1215 18.5624C12.1215 18.9619 12.1994 19.1276 12.443 19.2445C12.6769 19.3614 12.9107 19.3225 13.1153 19.1178C13.2907 18.9425 13.3102 18.8937 13.3102 18.5819C13.3102 18.2409 13.3102 18.2409 13.4661 18.2409C13.5538 18.2409 15.4149 18.3383 17.617 18.465C19.8191 18.5917 21.6412 18.6891 21.6802 18.6891C21.7289 18.6891 21.7484 18.9132 21.7484 19.605V20.521L21.2514 20.4917C20.8617 20.4625 1.39353 19.3809 1.26687 19.3809C1.24738 19.3809 1.23763 18.9717 1.23763 18.465V17.5491L1.67611 17.5783C1.92944 17.5881 4.31668 17.7245 6.99623 17.8609Z" fill="black"/>
<path d="M14.7913 2.51427C14.4698 2.73838 14.46 3.26455 14.7718 3.48865C14.9862 3.64456 16.0288 4.16098 16.2139 4.19995C16.5452 4.2779 16.935 3.95636 16.935 3.61532C16.935 3.31327 16.7791 3.16711 16.0288 2.79684C15.259 2.40709 15.0252 2.34863 14.7913 2.51427Z" fill="black"/>
<path d="M13.5832 4.8625C13.2422 4.95019 12.9304 5.13532 12.6673 5.40815C12.1314 5.9538 11.9852 6.65536 12.2678 7.27896C12.4529 7.70769 12.8427 8.09745 13.2714 8.29232C13.9048 8.57489 14.6161 8.41899 15.1617 7.87334C15.873 7.16204 15.8828 6.18766 15.2105 5.42764C14.8207 4.99891 14.0802 4.74557 13.5832 4.8625ZM14.3627 6.18766C14.4797 6.29484 14.5089 6.38253 14.5089 6.60664C14.5089 6.76254 14.4894 6.92819 14.4797 6.97691C14.4212 7.11332 14.1484 7.23025 13.895 7.23025C13.4273 7.23025 13.174 6.72357 13.4176 6.26561C13.515 6.07073 13.5637 6.05124 13.9438 6.0415C14.1679 6.05124 14.2458 6.07073 14.3627 6.18766Z" fill="black"/>
<path d="M19.1663 4.86258C19.0688 4.89181 18.9324 4.98925 18.874 5.07694C18.7181 5.29131 18.2016 6.32415 18.1627 6.51903C18.0847 6.85032 18.4063 7.24007 18.7473 7.24007C19.0494 7.24007 19.1955 7.08417 19.5658 6.33389C19.9555 5.55439 20.0042 5.33028 19.8386 5.09643C19.7607 4.98925 19.4196 4.79437 19.3514 4.81386C19.3514 4.81386 19.2637 4.83335 19.1663 4.86258Z" fill="black"/>
<path d="M9.38327 5.51549C9.17865 5.63242 8.49658 6.96732 8.49658 7.26938C8.49658 7.70785 9.04224 7.96119 9.44173 7.71759C9.5684 7.63964 10.1335 6.58731 10.2505 6.2073C10.4161 5.69088 9.87046 5.25241 9.38327 5.51549Z" fill="black"/>
<path d="M16.6426 9.42248C16.2528 9.61736 15.8825 9.85121 15.8338 9.91942C15.6 10.2507 15.8436 10.7866 16.2528 10.8451C16.5451 10.8938 17.9093 10.2117 18.0359 9.96814C18.1821 9.68557 18.1528 9.46146 17.9385 9.24709C17.6559 8.96452 17.5 8.99376 16.6426 9.42248Z" fill="black"/>
</svg>
