<svg width="25" height="25" viewBox="0 0 25 25" fill="none" xmlns="http://www.w3.org/2000/svg">
<path d="M23.5965 5.54627H21.8418C21.8789 5.27655 21.9044 5.00407 21.9182 4.72944H22.296C22.8924 4.72944 23.3776 4.24419 23.3776 3.64781C23.3776 3.05143 22.8924 2.56623 22.296 2.56623H21.2696C21.0853 1.67332 20.293 1 19.3463 1C18.3997 1 17.6074 1.67332 17.4231 2.56619H16.7861C16.6018 1.67332 15.8094 1 14.8628 1C13.9162 1 13.1239 1.67332 12.9395 2.56619H12.3026C12.1183 1.67332 11.326 1 10.3793 1C9.43269 1 8.6404 1.67332 8.45605 2.56619H7.8191C7.63476 1.67332 6.84247 1 5.89584 1C4.9492 1 4.15691 1.67332 3.97257 2.56619H2.73091C2.13453 2.56619 1.64933 3.05139 1.64933 3.64777C1.64933 4.24415 2.13453 4.72939 2.73091 4.72939H3.10871C3.12255 5.00407 3.14804 5.27651 3.1851 5.54622H1.40352C1.18066 5.54622 1 5.72688 1 5.94974C1 6.1726 1.18066 6.35326 1.40352 6.35326H3.33184C3.72412 8.07721 4.59677 9.65846 5.88159 10.9329C6.34548 11.3931 6.84921 11.7987 7.38453 12.1477L6.02741 16.8124C6.02058 16.8271 6.0143 16.8422 6.00911 16.858C6.0011 16.8825 5.99586 16.9072 5.99263 16.9319L4.11362 23.3908C4.05138 23.6049 4.17435 23.8288 4.38834 23.891C4.42599 23.9019 4.46391 23.9071 4.50125 23.9071C4.67612 23.9071 4.83725 23.7926 4.88851 23.6162L6.66855 17.4975L12.1099 19.2734V23.907C12.1099 24.1299 12.2905 24.3105 12.5134 24.3105C12.7362 24.3105 12.9169 24.1299 12.9169 23.907V19.2883L18.3676 17.498L20.1475 23.6163C20.1988 23.7927 20.3599 23.9072 20.5348 23.9072C20.5721 23.9072 20.61 23.902 20.6477 23.8911C20.8617 23.8289 20.9846 23.6049 20.9224 23.3909L19.0434 16.9319C19.0401 16.9071 19.0349 16.8823 19.0268 16.8577C19.0217 16.842 19.0154 16.827 19.0086 16.8124L17.6502 12.1427C18.1825 11.7949 18.6837 11.391 19.1453 10.933C20.4301 9.65855 21.3028 8.07725 21.6951 6.35331H23.5965C23.8193 6.35331 24 6.17265 24 5.94979C24 5.72692 23.8194 5.54627 23.5965 5.54627ZM19.3463 1.80704C19.8423 1.80704 20.2664 2.12083 20.4305 2.56027L18.2622 2.56022C18.4262 2.12083 18.8503 1.80704 19.3463 1.80704ZM14.8628 1.80704C15.3587 1.80704 15.7829 2.12083 15.9469 2.56027L13.7787 2.56022C13.9428 2.12083 14.3669 1.80704 14.8628 1.80704ZM10.3793 1.80704C10.8753 1.80704 11.2994 2.12083 11.4634 2.56027L9.29519 2.56022C9.45932 2.12083 9.88338 1.80704 10.3793 1.80704ZM5.89584 1.80704C6.39178 1.80704 6.81593 2.12083 6.97997 2.56027L4.81171 2.56022C4.97575 2.12083 5.39985 1.80704 5.89584 1.80704ZM18.1421 16.7226L12.917 18.4309V16.6101C12.917 16.3872 12.7363 16.2065 12.5135 16.2065C12.2906 16.2065 12.11 16.3872 12.11 16.6101V18.4246L6.89419 16.7224L8.1017 12.5717C9.32874 13.2239 10.6918 13.5958 12.11 13.6553V15.1168C12.11 15.3397 12.2906 15.5203 12.5135 15.5203C12.7363 15.5203 12.917 15.3397 12.917 15.1168V13.6553C14.3382 13.5957 15.7041 13.2222 16.9332 12.5673L18.1421 16.7226ZM18.824 4.72939H21.1101C21.0888 5.11092 21.0425 5.48594 20.9725 5.8529C20.9698 5.86397 20.9675 5.8753 20.9657 5.88668C20.2194 9.71988 16.9104 12.6608 12.917 12.8475V11.1895C12.917 10.9666 12.7363 10.786 12.5134 10.786C12.2906 10.786 12.1099 10.9666 12.1099 11.1895V12.8475C7.7229 12.6424 4.16174 9.11357 3.9167 4.72939H17.3086C17.5314 4.72939 17.7121 4.54873 17.7121 4.32587C17.7121 4.10301 17.5314 3.92235 17.3086 3.92235H2.73091C2.57953 3.92235 2.45637 3.79915 2.45637 3.64777C2.45637 3.49638 2.57953 3.37318 2.73091 3.37318H22.296C22.4473 3.37318 22.5705 3.49638 22.5705 3.64777C22.5705 3.79915 22.4473 3.92235 22.296 3.92235H18.824C18.6011 3.92235 18.4205 4.10301 18.4205 4.32587C18.4205 4.54873 18.6012 4.72939 18.824 4.72939Z" fill="black" stroke="black" stroke-width="0.2"/>
<path d="M9.81428 10.2691C8.18558 9.42716 6.95339 7.93951 6.43377 6.18748C6.37044 5.97381 6.1458 5.85207 5.93218 5.91535C5.71852 5.97873 5.59673 6.20332 5.66006 6.41694C6.24182 8.37841 7.62089 10.0438 9.44367 10.986C9.50291 11.0166 9.56624 11.0311 9.62866 11.0311C9.77471 11.0311 9.91576 10.9516 9.98747 10.8128C10.0898 10.6149 10.0123 10.3715 9.81428 10.2691Z" fill="black" stroke="black" stroke-width="0.2"/>
</svg>
