<svg width="25" height="22" viewBox="0 0 25 22" fill="none" xmlns="http://www.w3.org/2000/svg">
<path d="M24 13.65C24 13.016 23.484 12.5 22.85 12.5H2.15C1.51597 12.5 1 13.016 1 13.65C1 14.2767 1.50447 14.7862 2.12853 14.7977C2.62265 15.4589 3.50853 16.1378 4.4477 16.8539C6.06613 18.0875 7.9 19.4859 7.9 20.9333V21.3167H17.1V20.9333C17.1 19.4859 18.9339 18.0875 20.5523 16.8539C21.4911 16.1378 22.3773 15.4589 22.8715 14.7977C23.4955 14.7862 24 14.2767 24 13.65ZM2.15 13.2667H22.85C23.0616 13.2667 23.2333 13.4384 23.2333 13.65C23.2333 13.8616 23.0616 14.0333 22.85 14.0333H2.15C1.9384 14.0333 1.76667 13.8616 1.76667 13.65C1.76667 13.4384 1.9384 13.2667 2.15 13.2667ZM8.63753 20.55C8.61798 20.4204 8.5854 20.2932 8.54707 20.1667H16.4529C16.4146 20.2932 16.3824 20.4204 16.3625 20.55H8.63753ZM20.0873 16.2444C18.8445 17.192 17.4864 18.2289 16.7949 19.4H8.20513C7.5136 18.2289 6.15545 17.192 4.91268 16.2444C4.24837 15.738 3.60935 15.2508 3.14935 14.8H21.8503C21.3906 15.2508 20.7516 15.7376 20.0873 16.2444Z" fill="black" stroke="black" stroke-width="0.2"/>
<path d="M4.83328 12.1166C5.04527 12.1166 5.21662 11.9453 5.21662 11.7333C5.21662 9.83078 6.76413 8.28327 8.66662 8.28327H9.43328C9.64527 8.28327 9.81662 8.11192 9.81662 7.89993C9.81662 7.68795 9.64527 7.5166 9.43328 7.5166H8.66662C6.3417 7.5166 4.44995 9.40835 4.44995 11.7333C4.44995 11.9453 4.6213 12.1166 4.83328 12.1166Z" fill="black" stroke="black" stroke-width="0.2"/>
<path d="M10.5833 9.81665H8.66667C7.60982 9.81665 6.75 10.6765 6.75 11.7333C6.75 11.9453 6.92135 12.1167 7.13333 12.1167C7.34532 12.1167 7.51667 11.9453 7.51667 11.7333C7.51667 11.0993 8.03263 10.5833 8.66667 10.5833H10.5833C10.7953 10.5833 10.9667 10.412 10.9667 10.2C10.9667 9.988 10.7953 9.81665 10.5833 9.81665Z" fill="black" stroke="black" stroke-width="0.2"/>
<path d="M10.2001 9.43341C10.4121 9.43341 10.5834 9.26206 10.5834 9.05008C10.5834 8.8381 10.4121 8.66675 10.2001 8.66675H8.66676C6.97588 8.66675 5.6001 10.0425 5.6001 11.7334C5.6001 11.9454 5.77145 12.1167 5.98343 12.1167C6.19541 12.1167 6.36676 11.9454 6.36676 11.7334C6.36676 10.465 7.39831 9.43341 8.66676 9.43341H10.2001Z" fill="black" stroke="black" stroke-width="0.2"/>
<path d="M10.5834 10.9668H8.66678C8.4548 10.9668 8.28345 11.1381 8.28345 11.3501C8.28345 11.5621 8.4548 11.7335 8.66678 11.7335H10.5834C10.7954 11.7335 10.9668 11.5621 10.9668 11.3501C10.9668 11.1381 10.7954 10.9668 10.5834 10.9668Z" fill="black" stroke="black" stroke-width="0.2"/>
<path d="M13.2666 7.5166C13.0547 7.5166 12.8833 7.68795 12.8833 7.89993C12.8833 8.11192 13.0547 8.28327 13.2666 8.28327H15.95C17.8525 8.28327 19.4 9.83078 19.4 11.7333C19.4 11.9453 19.5713 12.1166 19.7833 12.1166C19.9953 12.1166 20.1666 11.9453 20.1666 11.7333C20.1666 9.40835 18.2749 7.5166 15.95 7.5166H13.2666Z" fill="black" stroke="black" stroke-width="0.2"/>
<path d="M17.0999 11.7333C17.0999 11.9453 17.2713 12.1167 17.4832 12.1167C17.6952 12.1167 17.8666 11.9453 17.8666 11.7333C17.8666 10.6765 17.0068 9.81665 15.9499 9.81665H14.0332C13.8213 9.81665 13.6499 9.988 13.6499 10.2C13.6499 10.412 13.8213 10.5833 14.0332 10.5833H15.9499C16.5839 10.5833 17.0999 11.0993 17.0999 11.7333Z" fill="black" stroke="black" stroke-width="0.2"/>
<path d="M18.6333 12.1167C18.8453 12.1167 19.0166 11.9454 19.0166 11.7334C19.0166 10.0425 17.6408 8.66675 15.9499 8.66675H13.6499C13.438 8.66675 13.2666 8.8381 13.2666 9.05008C13.2666 9.26206 13.438 9.43341 13.6499 9.43341H15.9499C17.2184 9.43341 18.2499 10.465 18.2499 11.7334C18.2499 11.9454 18.4213 12.1167 18.6333 12.1167Z" fill="black" stroke="black" stroke-width="0.2"/>
<path d="M14.0332 10.9668C13.8213 10.9668 13.6499 11.1381 13.6499 11.3501C13.6499 11.5621 13.8213 11.7335 14.0332 11.7335H15.9499C16.1619 11.7335 16.3332 11.5621 16.3332 11.3501C16.3332 11.1381 16.1619 10.9668 15.9499 10.9668H14.0332Z" fill="black" stroke="black" stroke-width="0.2"/>
<path d="M11.7333 12.1166C11.9453 12.1166 12.1166 11.9453 12.1166 11.7333C12.1166 6.98109 10.0321 5.98328 8.2833 5.98328C7.64927 5.98328 7.1333 6.49924 7.1333 7.13328C7.1333 7.34526 7.30465 7.51661 7.51663 7.51661C7.72862 7.51661 7.89997 7.34526 7.89997 7.13328C7.89997 6.92168 8.0717 6.74994 8.2833 6.74994C10.3468 6.74994 11.35 8.37988 11.35 11.7333C11.35 11.9453 11.5213 12.1166 11.7333 12.1166Z" fill="black" stroke="black" stroke-width="0.2"/>
<path d="M5.98343 8.28337C6.19541 8.28337 6.36676 8.11202 6.36676 7.90004V7.51671C6.36676 6.45986 7.22658 5.60004 8.28343 5.60004C12.0892 5.60004 12.5001 9.88916 12.5001 11.7334C12.5001 11.9454 12.6714 12.1167 12.8834 12.1167C13.0954 12.1167 13.2668 11.9454 13.2668 11.7334C13.2668 7.41282 11.4041 4.83337 8.28343 4.83337C6.80415 4.83337 5.6001 6.03742 5.6001 7.51671V7.90004C5.6001 8.11202 5.77145 8.28337 5.98343 8.28337Z" fill="black" stroke="black" stroke-width="0.2"/>
<path d="M13.65 7.13332C14.4957 7.13332 15.1834 6.44562 15.1834 5.59998C15.1834 4.75435 14.4957 4.06665 13.65 4.06665C12.8044 4.06665 12.1167 4.75435 12.1167 5.59998C12.1167 6.44562 12.8044 7.13332 13.65 7.13332ZM13.65 4.83332C14.0728 4.83332 14.4167 5.17717 14.4167 5.59998C14.4167 6.0228 14.0728 6.36665 13.65 6.36665C13.2272 6.36665 12.8834 6.0228 12.8834 5.59998C12.8834 5.17717 13.2272 4.83332 13.65 4.83332Z" fill="black" stroke="black" stroke-width="0.2"/>
<path d="M10.775 5.2166C11.7261 5.2166 12.5 4.44265 12.5 3.4916C12.5 2.54055 11.7261 1.7666 10.775 1.7666C9.824 1.7666 9.05005 2.54055 9.05005 3.4916C9.05005 4.44265 9.824 5.2166 10.775 5.2166ZM10.775 2.53327C11.3037 2.53327 11.7334 2.96298 11.7334 3.4916C11.7334 4.02022 11.3037 4.44993 10.775 4.44993C10.2464 4.44993 9.81672 4.02022 9.81672 3.4916C9.81672 2.96298 10.2464 2.53327 10.775 2.53327Z" fill="black" stroke="black" stroke-width="0.2"/>
<path d="M15.5667 5.98341C15.5667 6.82904 16.2544 7.51674 17.1 7.51674C17.9456 7.51674 18.6333 6.82904 18.6333 5.98341C18.6333 5.13777 17.9456 4.45007 17.1 4.45007C16.2544 4.45007 15.5667 5.13777 15.5667 5.98341ZM17.1 5.21674C17.5228 5.21674 17.8667 5.56059 17.8667 5.98341C17.8667 6.40622 17.5228 6.75007 17.1 6.75007C16.6772 6.75007 16.3333 6.40622 16.3333 5.98341C16.3333 5.56059 16.6772 5.21674 17.1 5.21674Z" fill="black" stroke="black" stroke-width="0.2"/>
<path d="M14.7999 4.06667C15.6456 4.06667 16.3333 3.37897 16.3333 2.53333C16.3333 1.6877 15.6456 1 14.7999 1C13.9543 1 13.2666 1.6877 13.2666 2.53333C13.2666 3.37897 13.9543 4.06667 14.7999 4.06667ZM14.7999 1.76667C15.2228 1.76667 15.5666 2.11052 15.5666 2.53333C15.5666 2.95615 15.2228 3.3 14.7999 3.3C14.3771 3.3 14.0333 2.95615 14.0333 2.53333C14.0333 2.11052 14.3771 1.76667 14.7999 1.76667Z" fill="black" stroke="black" stroke-width="0.2"/>
</svg>
