<svg width="25" height="21" viewBox="0 0 25 21" fill="none" xmlns="http://www.w3.org/2000/svg">
<path d="M16.6736 0.607077C16.294 0.675214 15.71 0.889358 15.3693 1.09377C14.2986 1.7362 13.5978 2.78745 13.442 3.99444L13.3836 4.40326H13.1013C12.7412 4.40326 12.566 4.49087 12.2642 4.82182L12.0306 5.08463L11.7289 4.97756C10.9988 4.71474 10.298 5.1041 10.1812 5.81466C10.1228 6.15535 10.1131 6.20402 10.0449 6.20402C9.97678 6.20402 9.96705 6.15535 9.90865 5.81466C9.86971 5.59079 9.74317 5.34744 9.59717 5.20143C9.52903 5.1333 9.48036 5.07489 9.48036 5.05543C9.48036 5.04569 9.75291 4.63687 10.0936 4.15992C10.921 2.99186 10.921 2.99186 10.921 2.4565C10.921 2.08662 10.9015 1.98928 10.8042 1.77513C10.5413 1.22031 10.1617 0.957494 9.5777 0.918559C9.34409 0.908825 9.14941 0.918559 8.98394 0.976962C8.46804 1.12297 8.39017 1.20084 7.06638 3.07946C6.39474 4.02364 5.83018 4.86075 5.79125 4.92889C5.76205 4.99702 5.73284 5.05543 5.73284 5.05543C5.73284 5.05543 5.61604 5.01649 5.4895 4.96782C5.35323 4.91915 5.16828 4.88022 5.06121 4.88022C4.84707 4.88022 4.47718 5.03596 4.29224 5.21117C4.12677 5.36691 3.98076 5.66866 3.98076 5.8536C3.98076 6.13588 3.89315 6.22348 3.60114 6.26242C3.29939 6.30135 3.13392 6.37922 2.92951 6.58363C2.59856 6.91458 2.51095 7.40127 2.6959 7.83929C2.7543 7.96583 2.7835 8.11184 2.77377 8.15078C2.7543 8.18971 2.64723 8.28705 2.54016 8.36492C2.17027 8.618 1.99506 9.26043 2.18 9.70819C2.21894 9.79579 2.24814 9.87366 2.24814 9.88339C2.24814 9.89313 2.10213 9.90286 1.91719 9.91259C1.63491 9.92233 1.55704 9.95153 1.41103 10.0586C1.32343 10.1267 1.18716 10.2727 1.11902 10.3798C1.01195 10.5453 0.992481 10.6037 1.00221 10.9541C1.01195 11.6744 1.27476 12.6381 1.64465 13.3876C2.40388 14.8963 3.64981 16.006 5.95672 17.174C6.9301 17.6704 7.16371 17.8554 7.36812 18.2642C7.49466 18.5173 7.51413 18.5951 7.49466 18.8288C7.48493 19.004 7.42653 19.1792 7.34866 19.3349C7.09558 19.8216 7.26105 20.3959 7.72827 20.6392L7.93268 20.7463H12.4881C16.4887 20.7463 17.0533 20.7366 17.209 20.6782C17.7346 20.4543 17.9293 19.8605 17.647 19.3349C17.4718 18.9942 17.4621 18.5951 17.6178 18.2739C17.8125 17.8846 18.085 17.6607 18.8735 17.2714C21.2388 16.0741 22.5918 14.906 23.3608 13.3973C23.7891 12.5407 24.1103 11.032 23.9643 10.5745C23.8572 10.2338 23.4678 9.91259 23.1661 9.91259C23.0201 9.91259 23.0201 9.87366 23.1661 9.59138C23.2342 9.46484 23.3316 9.19229 23.3997 8.96842C23.5068 8.618 23.5262 8.48173 23.5262 7.9561C23.5262 7.42074 23.5165 7.2942 23.4094 6.94378C23.0785 5.87307 22.3387 4.95809 21.4335 4.5006C21.2583 4.413 21.2388 4.38379 21.2193 4.18912C21.0928 3.1476 20.684 2.32023 19.9539 1.63886C19 0.801754 17.8125 0.422135 16.6736 0.607077ZM17.9098 1.39552C19.0876 1.61939 20.0026 2.4857 20.3044 3.65376C20.4017 4.03338 20.4017 4.75368 20.3044 5.18197C20.061 6.21375 19.2531 7.08979 18.27 7.38181C18.1045 7.43047 17.8806 7.47914 17.7638 7.49861C17.5497 7.52781 17.5497 7.52781 17.5497 7.41101C17.5497 6.98272 17.2674 6.53497 16.8975 6.35976C16.7612 6.30135 16.586 6.25268 16.4984 6.25268C16.4108 6.25268 16.294 6.22348 16.2454 6.18455C16.1675 6.11641 16.1772 6.09694 16.625 5.64919C17.1019 5.1625 17.1895 5.01649 17.0922 4.83155C17.0143 4.67581 16.9073 4.6174 16.732 4.6174C16.6055 4.6174 16.5276 4.66607 16.2454 4.93862L15.9047 5.25984L15.7587 5.14303C15.3985 4.87048 14.9994 4.82182 14.5614 4.98729C14.211 5.12356 14.2013 5.09436 14.2013 4.4422C14.2013 3.56615 14.4446 2.92372 14.98 2.33969C15.7295 1.52206 16.7904 1.18137 17.9098 1.39552ZM9.86971 1.81407C10.2785 2.12555 10.3175 2.5149 9.97678 2.99186C8.76006 4.72448 7.66987 6.21375 7.57253 6.28189C7.49466 6.34029 7.36812 6.36949 7.19292 6.36949C6.86197 6.36949 6.58942 6.20402 6.46288 5.912C6.28767 5.52265 6.2974 5.49345 7.6504 3.58562C8.3123 2.64144 8.9158 1.8238 8.98394 1.77513C9.23701 1.58046 9.58743 1.59993 9.86971 1.81407ZM13.2473 5.11383C13.296 5.14303 13.3836 5.24037 13.4615 5.34744C13.7146 5.70759 14.2402 5.90227 14.6587 5.78546C14.7756 5.74653 14.941 5.69786 15.0189 5.65892C15.233 5.57132 15.3304 5.67839 15.3693 5.99961C15.3985 6.27215 15.4667 6.43763 15.6516 6.6615C15.7976 6.83671 16.1578 7.03139 16.3427 7.03139C16.4108 7.03139 16.5374 7.05086 16.625 7.08006C16.8002 7.13846 16.8099 7.28447 16.6736 7.59595C16.479 8.0437 16.6444 8.62773 17.0533 8.92948C17.3939 9.18256 17.3842 9.26043 17.0435 9.57191L16.7515 9.84446H14.211C12.8093 9.84446 11.6705 9.83472 11.6705 9.82499C11.6705 9.81526 11.6997 9.73739 11.7386 9.64978C11.8165 9.45511 11.8262 9.12416 11.7581 8.86134C11.7191 8.72507 11.6218 8.59853 11.4174 8.40386C11.2616 8.24811 11.1254 8.10211 11.1254 8.08264C11.1254 8.05344 11.1643 7.93663 11.2227 7.81983C11.3979 7.43047 11.2908 6.87565 10.9891 6.5739C10.8723 6.45709 10.8626 6.43763 10.9112 6.20402C11.0183 5.58105 11.0572 5.54212 11.3882 5.67839C11.9625 5.90227 12.4686 5.78546 12.8677 5.32797C13.0916 5.05543 13.1208 5.04569 13.2473 5.11383ZM21.8228 5.75626C22.0078 5.9412 22.2316 6.21375 22.3095 6.35002C22.8838 7.37207 22.8546 8.66667 22.2316 9.62058L22.0759 9.86393H21.0344H19.9929V9.01709C19.9929 8.17998 19.9929 8.17024 19.8761 8.06317C19.7009 7.87823 19.3699 7.93663 19.2628 8.16051C19.2336 8.22865 19.2142 8.57906 19.2142 9.06575V9.86393H18.5328H17.8417L17.9098 9.73739C18.1045 9.35777 18.0169 8.79321 17.7054 8.49146C17.54 8.32598 17.54 8.31625 17.647 8.31625C17.8417 8.31625 18.3868 8.17024 18.708 8.0437C19.7787 7.60568 20.6645 6.6323 20.9857 5.55185L21.0831 5.2209L21.268 5.31824C21.3945 5.36691 21.6379 5.57132 21.8228 5.75626ZM5.23642 5.70759C5.36296 5.75626 5.50897 5.7952 5.55764 5.7952C5.61604 5.7952 5.65497 5.84386 5.67444 5.9412C5.76205 6.35002 6.08326 6.78804 6.44341 6.97299C6.65756 7.08006 6.72569 7.09953 7.15398 7.09953C7.58227 7.09953 7.6504 7.08979 7.86455 6.97299C8.21496 6.78804 8.3415 6.67124 8.71139 6.14561C8.89633 5.8828 9.06181 5.67839 9.08127 5.69786C9.10074 5.71733 9.13968 5.86333 9.16888 6.02881C9.19808 6.18455 9.25648 6.38896 9.30515 6.46683C9.45116 6.70044 9.73344 6.91458 9.97678 6.97299C10.4829 7.09952 10.5316 7.11899 10.5511 7.19686C10.5608 7.24553 10.5316 7.39154 10.4829 7.52781C10.3661 7.81983 10.3564 8.19945 10.4635 8.45252C10.5024 8.54986 10.6776 8.75427 10.8334 8.91001C11.1156 9.18256 11.1254 9.19229 11.0767 9.3091C11.0475 9.37724 11.0086 9.42591 10.9891 9.42591C10.9696 9.42591 10.8528 9.51351 10.736 9.63031L10.5219 9.83472H6.9301H3.36753L3.07552 9.57191C2.91004 9.42591 2.7835 9.2799 2.7835 9.2215C2.7835 9.16309 2.91004 9.00735 3.07552 8.85161C3.31886 8.62773 3.37726 8.53039 3.43567 8.32598C3.533 7.99504 3.52327 7.91716 3.39673 7.54728C3.26046 7.16766 3.28966 7.07032 3.54274 7.03139C3.63034 7.02166 3.76662 6.99245 3.84449 6.98272C4.26304 6.91458 4.61346 6.52523 4.71079 6.00934C4.74 5.84386 4.77893 5.67839 4.7984 5.64919C4.84707 5.59079 4.98334 5.60052 5.23642 5.70759ZM23.1758 10.847C23.1856 10.9444 23.1564 11.2267 23.1174 11.4797C22.913 12.677 22.4555 13.5822 21.6184 14.4485C20.8884 15.2078 20.0415 15.7821 18.4841 16.5803C17.7638 16.9501 17.6568 17.0183 17.3453 17.3298C16.8781 17.797 16.7515 18.0793 16.7223 18.6341C16.7028 19.0818 16.7807 19.442 16.9462 19.734C16.9949 19.8119 17.0338 19.8995 17.0338 19.9287C17.0338 19.9774 7.96189 19.9871 7.91322 19.9384C7.90348 19.9189 7.93268 19.8021 8.00082 19.6853C8.36097 18.9748 8.2831 18.1961 7.80614 17.5536C7.52386 17.1837 7.22212 16.9696 6.37528 16.5316C4.9152 15.7918 4.14623 15.2759 3.387 14.5264C2.50122 13.6406 2.034 12.7354 1.81985 11.4992C1.72252 10.9249 1.71278 10.6816 1.78092 10.6621C1.80039 10.6524 6.62835 10.6524 12.4978 10.6621L23.1758 10.6718V10.847Z" fill="black" stroke="black" stroke-width="0.209091"/>
<path d="M15.3595 2.53432C15.2914 2.60245 15.2622 2.69979 15.2622 2.79713C15.2622 2.9334 15.3303 3.02101 15.9144 3.60504C16.4692 4.15986 16.5957 4.2572 16.7125 4.2572C17.0143 4.2572 17.209 3.97492 17.063 3.71211C17.024 3.64397 16.732 3.32276 16.4108 3.00154C15.856 2.45645 15.817 2.42725 15.6418 2.42725C15.5153 2.42725 15.4277 2.45645 15.3595 2.53432Z" fill="black" stroke="black" stroke-width="0.209091"/>
<path d="M18.0948 3.07941C17.5302 3.64397 17.4426 3.75104 17.4426 3.86785C17.4426 4.08199 17.6178 4.26694 17.8222 4.26694C17.978 4.26694 18.0364 4.21827 18.6496 3.60504C19.2239 3.03074 19.3018 2.92367 19.3018 2.79713C19.3018 2.59272 19.1266 2.42725 18.9027 2.42725C18.7567 2.42725 18.708 2.47592 18.0948 3.07941Z" fill="black" stroke="black" stroke-width="0.209091"/>
<path d="M17.5594 4.7245C17.4913 4.79264 17.4426 4.88024 17.4426 4.98732C17.4426 5.11386 17.5205 5.21119 18.1143 5.80496C18.8638 6.55446 18.9319 6.58366 19.1752 6.35005C19.2628 6.25271 19.3115 6.17484 19.3115 6.06777C19.3115 5.9315 19.2336 5.84389 18.6594 5.2696C18.0559 4.6661 17.9975 4.61743 17.8417 4.61743C17.7249 4.61743 17.6373 4.64663 17.5594 4.7245Z" fill="black" stroke="black" stroke-width="0.209091"/>
<path d="M12.8385 6.788C12.5076 7.11895 12.4395 7.21629 12.4395 7.3331C12.4395 7.61538 12.712 7.80032 12.9748 7.69325C13.1403 7.62511 13.7633 6.98268 13.7633 6.86587C13.7827 6.58359 13.627 6.38892 13.3836 6.38892C13.2571 6.38892 13.1695 6.45705 12.8385 6.788Z" fill="black" stroke="black" stroke-width="0.209091"/>
<path d="M14.3961 7.58623C14.2501 7.65437 14.1528 7.86851 14.1917 8.01452C14.2209 8.15079 14.6005 8.55961 14.7758 8.65695C15.0386 8.79322 15.3306 8.61801 15.3306 8.326C15.3306 8.18972 15.2819 8.12159 15.0386 7.87824C14.7173 7.55703 14.5713 7.48889 14.3961 7.58623Z" fill="black" stroke="black" stroke-width="0.209091"/>
<path d="M13.2572 8.3552C13.1112 8.4136 12.7706 8.74455 12.683 8.91003C12.5856 9.09497 12.6051 9.21177 12.7511 9.35778C12.9652 9.56219 13.082 9.53299 13.4227 9.20204C13.5882 9.0463 13.7342 8.87109 13.7634 8.82242C13.8218 8.65695 13.7245 8.4428 13.5493 8.37467C13.4714 8.33573 13.3935 8.30653 13.3838 8.31626C13.3741 8.30653 13.3157 8.33573 13.2572 8.3552Z" fill="black" stroke="black" stroke-width="0.209091"/>
<path d="M20.1194 7.30397C19.9636 7.48891 19.9734 7.64465 20.1291 7.80039L20.2654 7.93666H21.1414C22.0175 7.93666 22.144 7.9172 22.2705 7.76146C22.3679 7.63492 22.3387 7.4013 22.2121 7.27477C22.1051 7.15796 22.0953 7.15796 21.1706 7.15796H20.2459L20.1194 7.30397Z" fill="black" stroke="black" stroke-width="0.209091"/>
<path d="M9.3342 17.2909C9.09086 17.4174 9.05192 17.7289 9.25633 17.9139C9.34393 18.0015 9.41207 18.0015 10.1713 18.0015C10.9792 18.0015 10.9889 18.0015 11.096 17.8847C11.242 17.7387 11.242 17.544 11.096 17.3785L10.9889 17.252L10.22 17.2422C9.65542 17.2325 9.42181 17.252 9.3342 17.2909Z" fill="black" stroke="black" stroke-width="0.209091"/>
<path d="M11.8164 17.2811C11.5633 17.3784 11.4952 17.7093 11.6802 17.8943L11.7872 18.0111H13.6366H15.4861L15.5931 17.8943C15.7489 17.7483 15.7489 17.5147 15.5931 17.3687L15.4763 17.2616L13.6951 17.2519C12.7119 17.2421 11.8651 17.2616 11.8164 17.2811Z" fill="black" stroke="black" stroke-width="0.209091"/>
<path d="M9.23705 18.5562C9.12024 18.673 9.10077 18.7216 9.12998 18.8384C9.13971 18.9163 9.20785 19.0331 9.27598 19.0818L9.39279 19.1889H12.4005C15.4959 19.1889 15.5251 19.1889 15.6614 19.0137C15.7587 18.8871 15.7295 18.6535 15.603 18.527L15.4959 18.4102H12.4395H9.37332L9.23705 18.5562Z" fill="black" stroke="black" stroke-width="0.209091"/>
</svg>
