<svg width="25" height="29" viewBox="0 0 25 29" fill="none" xmlns="http://www.w3.org/2000/svg">
<path d="M12.8879 1.12497C12.2412 1.3131 11.6885 1.48948 11.6532 1.50124C11.5004 1.60707 11.5121 1.83048 11.8766 3.97053C12.0765 5.18166 12.2412 6.16938 12.2294 6.18114C12.2176 6.19289 11.03 6.46334 11.0183 6.45158C11.0183 6.45158 11.0888 5.82838 11.1711 5.09935L11.3358 3.75888L11.2064 3.62953C11.0888 3.51195 11.0065 3.50019 10.1011 3.4414C8.5725 3.34733 8.5137 3.34733 8.38436 3.46491C8.29029 3.55898 8.26677 3.75888 8.14919 5.69904C8.07864 6.87489 8.00809 7.83909 7.98457 7.86261C7.97281 7.87436 7.94929 7.86261 7.94929 7.80381C7.94929 7.75678 7.87874 7.67447 7.79643 7.63919L7.64357 7.56864L7.43192 5.38156C7.31433 4.18218 7.20851 3.14743 7.17323 3.07688C7.14971 3.00633 7.0674 2.93578 7.00861 2.91226C6.85575 2.85347 4.46877 3.22974 4.33942 3.33557C4.29239 3.37085 4.24536 3.45316 4.22184 3.50019C4.21008 3.55898 4.35118 4.59373 4.55108 5.81662L4.90383 8.02723L4.84504 9.33242C4.80976 10.0379 4.77449 10.6376 4.76273 10.6494C4.76273 10.6494 4.58635 9.57935 4.38646 8.2624C4.18656 6.94544 3.99843 5.76959 3.97491 5.66376C3.88084 5.311 3.83381 5.311 2.46982 5.59321C1.23517 5.86366 1 5.94596 1 6.15762C1 6.21641 1.38803 8.03898 1.87013 10.2026C2.35223 12.3661 2.7285 14.1534 2.71675 14.1534C2.71675 14.1652 2.45806 14.224 2.16409 14.2945C1.52913 14.4356 1.44682 14.4709 1.39979 14.6355C1.37627 14.7061 2.07003 17.5869 3.05774 21.526C4.55108 27.5111 4.76273 28.3225 4.88032 28.4165L5.02142 28.5459H12.2764C19.0846 28.5459 19.5079 28.5459 19.6255 28.4518C19.7196 28.3812 20.0488 27.1113 21.4246 21.6318C22.3417 17.9279 23.106 14.8237 23.106 14.7413C23.106 14.5415 23.012 14.4591 22.6827 14.3886C22.4593 14.3298 22.424 14.3063 22.4476 14.1887C22.4476 14.1181 22.8121 12.5072 23.2471 10.6141C23.6822 8.72098 24.0115 7.12182 23.9997 7.05127C23.9527 6.85137 23.7645 6.78082 22.9297 6.65148C22.4828 6.58093 22.1301 6.51037 22.1301 6.49862C22.1301 6.48686 22.2006 5.86366 22.2947 5.11111C22.4476 3.77064 22.4476 3.65305 22.2829 3.51195C22.2359 3.47667 21.7185 3.42964 20.919 3.3826C19.6373 3.31205 19.6373 3.31205 19.5197 3.42964C19.4139 3.53547 19.4021 3.64129 19.3316 4.93473C19.2963 5.69904 19.2492 6.334 19.2375 6.34576C19.214 6.36927 17.6736 6.62796 17.6501 6.6162C17.6501 6.6162 17.5795 6.06355 17.4972 5.41683C17.3444 4.13515 17.2973 3.98229 17.0504 3.98229C16.9681 3.98229 16.4742 4.11163 15.9333 4.26449C15.4042 4.41736 14.9574 4.53494 14.9456 4.52318C14.9339 4.51142 14.828 3.70008 14.7105 2.73588C14.5106 1.12497 14.487 0.983863 14.3812 0.889795C14.3107 0.831002 14.2166 0.795726 14.1696 0.795726C14.1108 0.772209 13.5346 0.92507 12.8879 1.12497ZM13.8521 1.74817C13.8991 1.97158 14.6046 8.08602 14.5811 8.09778C14.5576 8.12129 13.4876 8.29767 13.464 8.27416C13.464 8.2624 13.4288 7.82733 13.3935 7.28644C13.3229 6.2752 13.2759 6.11058 13.076 6.04003C13.0172 6.02827 12.9584 5.96948 12.9349 5.91069C12.8408 5.56969 12.3117 2.08917 12.3352 2.05389C12.3823 2.00686 13.6287 1.63058 13.7463 1.63058C13.7933 1.63058 13.8403 1.68937 13.8521 1.74817ZM6.5853 3.89998C6.60882 4.12339 6.93806 7.45106 6.93806 7.52161C6.93806 7.54513 5.6211 7.49809 5.59759 7.47457C5.57407 7.46282 5.04494 4.11163 5.04494 3.99405C5.04494 3.89998 5.11549 3.87646 5.71517 3.77064C6.62058 3.61777 6.55003 3.59426 6.5853 3.89998ZM10.1011 4.15867C10.5127 4.18218 10.5714 4.2057 10.5479 4.27625C10.5362 4.33505 10.3951 5.44035 10.2422 6.73379C9.96 9.03846 9.94825 9.09725 9.83066 9.13253C9.76011 9.14429 9.68956 9.20308 9.65428 9.27363C9.60725 9.3677 9.50142 10.3789 9.48966 10.9316C9.48966 11.2843 9.45439 11.0962 9.36032 10.1438C9.23097 8.77977 9.21922 8.73274 8.88998 8.73274C8.76063 8.73274 8.73712 8.70922 8.73712 8.60339C8.73712 8.36822 8.96053 4.52318 8.98405 4.29977L9.00756 4.0646L9.31328 4.08812C9.4779 4.11163 9.84242 4.13515 10.1011 4.15867ZM21.6245 4.14691C21.6597 4.18218 21.4246 6.28696 21.3893 6.35751C21.3775 6.38103 21.3187 6.40455 21.26 6.40455C21.2012 6.40455 21.1306 6.43982 21.0953 6.48686C21.0601 6.53389 20.8837 7.4393 20.7073 8.50933C20.5309 9.57935 20.3898 10.4612 20.3781 10.473C20.3781 10.4848 20.284 9.59111 20.1664 8.49757C19.9665 6.54565 19.9665 6.46334 20.0135 5.35804C20.0371 4.73484 20.0841 4.18218 20.0841 4.14691C20.1076 4.08812 20.237 4.07636 20.8484 4.09987C21.26 4.11163 21.601 4.13515 21.6245 4.14691ZM16.6976 4.85242C16.6976 4.94649 17.8265 14.5767 17.8617 14.7884C17.8853 14.9412 17.8617 14.9765 17.4032 15.3175C17.1327 15.5174 16.9093 15.682 16.8975 15.682C16.8505 15.682 16.7447 14.6708 16.4507 11.6489C16.2861 9.92035 16.1332 8.42701 16.1215 8.32119C16.0862 8.09778 15.9216 7.93316 15.7334 7.93316H15.5806L15.3807 6.67499C15.2631 5.98124 15.169 5.38156 15.1455 5.33452C15.122 5.26397 15.2749 5.20518 15.8628 5.0288C16.7564 4.74659 16.6976 4.75835 16.6976 4.85242ZM3.38698 6.2752C3.39874 6.35751 3.66919 8.02723 3.96315 9.97914C4.25711 11.9311 4.5158 13.589 4.52756 13.6478C4.55108 13.7536 4.5158 13.7771 4.0337 13.8712C3.73974 13.93 3.49281 13.977 3.49281 13.9653C3.45753 13.93 1.84661 6.48686 1.87013 6.46334C1.89365 6.43982 3.16357 6.1341 3.29291 6.12234C3.32819 6.1341 3.36347 6.20465 3.38698 6.2752ZM12.6527 7.20413C12.6645 7.40402 12.735 8.43877 12.8056 9.49704L12.9232 11.4254L12.5939 13.5067C12.4058 14.659 12.2294 15.7526 12.1941 15.9407L12.1236 16.2935L12.0295 15.5644L11.9472 14.8354L12.3 12.2368C12.4881 10.8022 12.6292 9.57935 12.6174 9.52056C12.5704 9.33242 12.4058 9.28539 11.8531 9.25011C11.5592 9.22659 11.3358 9.19132 11.3122 9.15604C11.2887 9.07374 11.0653 7.20413 11.0888 7.20413C11.1006 7.19237 12.5116 6.86313 12.6057 6.86313C12.6057 6.83961 12.6292 7.00423 12.6527 7.20413ZM19.3198 7.36875C19.4374 8.2624 19.896 13.3303 19.8842 13.4949L19.8724 13.6948L19.5785 13.6713C19.308 13.6596 19.2845 13.6713 19.0846 13.8595C18.967 13.977 18.873 14.0594 18.8495 14.0358C18.7907 13.977 17.7559 7.34523 17.8029 7.32171C17.8853 7.28644 19.0023 7.11006 19.1552 7.11006C19.2845 7.11006 19.2963 7.13358 19.3198 7.36875ZM22.4593 7.28644C22.8709 7.35699 23.2001 7.42754 23.2001 7.4393C23.2001 7.54513 21.695 14.0594 21.6715 14.0946C21.6245 14.1417 20.7426 13.9535 20.6955 13.8712C20.672 13.8359 20.6485 13.7301 20.6485 13.6243C20.6485 13.4009 21.6362 7.16885 21.6833 7.16885C21.7068 7.16885 22.0478 7.21589 22.4593 7.28644ZM7.99633 8.56812C7.93754 9.00318 7.90226 8.87384 7.94929 8.41526C7.97281 8.19184 7.99633 8.07426 8.00809 8.14481C8.01985 8.21536 8.01985 8.4035 7.99633 8.56812ZM6.7852 8.25064H7.20851V8.42701C7.20851 8.52108 7.19675 8.69746 7.17323 8.80329C7.13796 9.00318 7.13796 9.00318 6.7852 9.06198C6.40893 9.13253 6.23255 9.23835 6.23255 9.41473C6.23255 9.48528 6.35013 10.2261 6.47948 11.0727L6.73817 12.6131L6.62058 13.6948C6.55003 14.2945 6.49124 14.7884 6.47948 14.7884C6.45596 14.8119 5.43297 13.883 5.40945 13.8124C5.38593 13.7536 5.65638 8.27415 5.69166 8.19184C5.69166 8.18009 5.84452 8.19184 6.03265 8.2036C6.20903 8.22712 6.55003 8.25064 6.7852 8.25064ZM15.416 8.85032C15.4277 8.92087 15.4512 9.06198 15.4512 9.14429C15.4512 9.35594 15.4395 9.35594 14.5811 9.21484C14.2401 9.15604 13.9461 9.10901 13.9226 9.10901C13.8991 9.10901 13.8756 9.07374 13.8756 9.03846C13.8756 8.99143 14.0637 8.93263 14.5106 8.86208C15.3689 8.70922 15.3807 8.70922 15.416 8.85032ZM8.5725 9.54408C8.5725 9.56759 8.7136 10.9669 8.86646 12.6483C9.08987 14.953 9.16042 15.7996 9.13691 16.1289L9.10163 16.5404L8.67832 16.317C7.93754 15.929 8.05512 16.2817 7.52599 12.8835C7.2673 11.2373 7.04389 9.86156 7.04389 9.82628C7.03213 9.76749 7.19675 9.72045 7.73764 9.62639C8.59601 9.48528 8.5725 9.48528 8.5725 9.54408ZM11.7708 9.97914C11.8414 10.0027 11.7943 10.473 11.3828 13.589C11.1241 15.5527 10.9007 17.1636 10.8889 17.1871C10.8654 17.2106 9.99528 16.9637 9.88945 16.8932C9.83066 16.8579 9.86594 16.2229 10.0423 13.542C10.1599 11.7312 10.2775 10.1555 10.2892 10.0615L10.3128 9.87331L11.0065 9.90859C11.371 9.92035 11.7238 9.95562 11.7708 9.97914ZM14.7457 9.97914C15.122 10.0379 15.4277 10.0967 15.4395 10.1085C15.4748 10.1438 13.8756 17.1166 13.8286 17.1401C13.7933 17.1636 13.6051 17.2106 13.417 17.2459C13.2171 17.2812 12.9937 17.3165 12.9114 17.3282C12.7821 17.3517 12.7585 17.34 12.7585 17.2342C12.7585 17.1636 13.0172 15.4939 13.3229 13.5302C13.6404 11.5665 13.8874 9.93211 13.8874 9.90859C13.8756 9.8498 14.0049 9.86156 14.7457 9.97914ZM15.9921 14.3416C16.0862 15.3175 16.1568 16.1406 16.1332 16.1524C16.0862 16.2229 15.1926 16.6815 15.1573 16.6462C15.1455 16.6227 15.0867 16.3875 15.0397 16.1171L14.9574 15.6232L15.2984 14.1181C15.4748 13.2833 15.6511 12.5543 15.6864 12.472C15.7452 12.3426 15.7452 12.3426 15.7805 12.4484C15.804 12.5072 15.8981 13.3656 15.9921 14.3416ZM5.50352 14.9177C6.94982 16.2347 8.50195 17.1871 9.97176 17.681C11.5474 18.2101 13.0055 18.2101 14.6164 17.681C16.0156 17.2106 17.7794 16.1053 19.1552 14.8237L19.5785 14.4239L20.9307 14.7178C21.8361 14.906 22.2829 15.0236 22.2829 15.0706C22.2829 15.1059 22.1066 15.8231 21.8949 16.6697L21.5186 18.1984L18.6378 20.0915C17.0504 21.1262 15.7334 21.9846 15.6982 22.0081C15.6629 22.0199 15.6159 21.9611 15.5923 21.8788C15.5218 21.5966 15.2866 21.1498 15.0279 20.8323C14.3459 19.9857 13.3112 19.48 12.2647 19.48C10.8772 19.48 9.5367 20.3854 9.01932 21.6789C8.94877 21.8553 8.87822 22.0081 8.87822 22.0199C8.86646 22.0316 3.16357 18.363 3.09302 18.2924C3.02247 18.2219 2.2464 15.0706 2.28168 15.0236C2.3052 15.0118 2.57564 14.9412 2.89312 14.8825C3.2106 14.8119 3.76326 14.6943 4.13953 14.612C4.5158 14.5297 4.8568 14.4591 4.90383 14.4474C4.92735 14.4356 5.20956 14.6473 5.50352 14.9177ZM20.1899 23.525L19.1317 27.7698L12.2764 27.758L5.40945 27.7463L4.36294 23.572C3.78677 21.2791 3.32819 19.386 3.32819 19.3625C3.32819 19.3507 4.55108 20.115 6.03265 21.0674L8.73712 22.8077V23.0429C8.73712 23.1722 8.77239 23.4662 8.81943 23.6896C9.08987 25.0418 10.1717 26.1354 11.5356 26.4411C12.0648 26.5587 12.8408 26.5234 13.3465 26.3588C14.6987 25.912 15.6629 24.6891 15.7805 23.278L15.8158 22.8195L18.532 21.0439C20.0253 20.068 21.2482 19.2684 21.2482 19.2801C21.2364 19.2684 20.7661 21.185 20.1899 23.525ZM13.1466 20.3502C13.9579 20.6206 14.6164 21.2791 14.9221 22.1022C15.0985 22.5725 15.0985 23.3721 14.9221 23.8777C14.5811 24.8654 13.8168 25.5239 12.7703 25.7473C11.3945 26.0295 9.98352 25.1477 9.57197 23.7601C9.44263 23.3486 9.45439 22.6078 9.59549 22.1727C10.0541 20.6912 11.665 19.8563 13.1466 20.3502Z" fill="black" stroke="black" stroke-width="0.219048"/>
</svg>
