<svg width="23" height="25" viewBox="0 0 23 25" fill="none" xmlns="http://www.w3.org/2000/svg">
<path d="M12.619 0.500931C12.619 0.512106 12.697 0.567979 12.7944 0.623853C13.0088 0.746774 13.077 0.914395 13.077 1.30551C13.077 1.87542 12.8529 2.49003 12.1903 3.68572C11.7226 4.52382 11.5667 4.89258 11.3815 5.50719C11.2548 5.92065 11.2354 6.06592 11.2354 6.51291C11.2354 6.99342 11.2451 7.06047 11.3718 7.33984C11.5959 7.8427 12.0928 8.20029 12.5703 8.20029C12.7262 8.20029 12.7944 8.16676 12.9016 8.04384C13.1842 7.71978 13.0186 7.22809 12.5995 7.10517C11.8882 6.89285 11.9954 6.0771 12.9796 4.32267C13.6812 3.07111 13.9832 2.18831 14.032 1.35021C14.0417 1.02614 14.032 0.780298 13.993 0.657377L13.9345 0.467407H13.2816C12.9114 0.467407 12.619 0.478582 12.619 0.500931Z" fill="black"/>
<path d="M9.63722 2.9146C9.41311 2.97048 9.15001 3.10457 9.11103 3.1828C9.06231 3.29454 9.15001 3.50686 9.35464 3.74153C9.43259 3.83093 9.47157 3.90915 9.44234 3.90915C9.41311 3.90915 9.38387 3.98737 9.38387 4.09912C9.38387 4.34496 9.27669 4.61316 8.97461 5.13837C8.35098 6.25583 8.17558 7.14981 8.4874 7.66384C8.73101 8.08848 9.30592 8.31198 9.57876 8.11083C9.91981 7.85381 9.81262 7.22803 9.42285 7.11628C9.15975 7.03806 9.20848 6.81457 9.71518 5.90942C10.1342 5.14954 10.3096 4.6355 10.3388 4.09912C10.368 3.58508 10.2803 3.29454 10.0173 3.0487C9.82237 2.8699 9.80288 2.8699 9.63722 2.9146Z" fill="black"/>
<path d="M15.464 3.47334C15.3373 3.51804 15.1912 3.59626 15.1522 3.65213C15.045 3.77506 15.084 3.90915 15.3373 4.22204C15.425 4.34496 15.4835 4.43436 15.4543 4.43436C15.425 4.43436 15.4055 4.52376 15.4055 4.61316C15.4055 4.8143 15.2204 5.26129 14.9183 5.79767C14.6455 6.27818 14.5675 6.47933 14.4506 6.90397C14.2752 7.56327 14.3532 8.11083 14.6747 8.42372C15.006 8.74779 15.3861 8.81484 15.6199 8.58017C15.9025 8.3008 15.8343 7.85382 15.464 7.66385C15.3373 7.5968 15.2594 7.52975 15.2594 7.47388C15.2594 7.33978 15.4445 6.91514 15.6784 6.4905C16.3313 5.33951 16.5164 4.37849 16.1948 3.81975C16.0779 3.61861 15.8343 3.39512 15.7271 3.40629C15.7174 3.39512 15.5907 3.43982 15.464 3.47334Z" fill="black"/>
<path d="M8.29238 9.35118C6.59687 9.48527 5.34961 9.96579 3.88797 11.0609C1.7832 12.6589 0.380027 14.5698 0.0682099 16.2683C0.00974425 16.5924 0 16.9611 0 17.9445C0.00974427 20.2353 0.06821 20.5147 0.701588 21.1963C1.40318 21.9562 2.30939 22.2803 3.73206 22.2803C4.88188 22.2803 5.88554 22.068 7.19127 21.5539C8.09749 21.1963 8.24366 21.1516 8.85754 21.1516C10.0463 21.1516 11.0987 21.5204 13.6712 22.8949C16.7699 24.5487 17.7053 24.9063 19.0208 24.9622C19.8588 24.9957 20.2583 24.9175 20.882 24.5599C21.4179 24.2582 21.7979 23.8894 22.1975 23.2748C22.519 22.7831 22.8893 21.945 22.9575 21.5539C22.9965 21.364 23.0062 20.4365 22.9965 18.615C22.977 16.0672 22.977 15.9442 22.8796 15.5978C22.6457 14.7262 22.3144 14.1339 21.6908 13.4188C20.2583 11.7984 17.6956 10.6251 13.9343 9.89874C11.5859 9.44058 9.58836 9.25061 8.29238 9.35118ZM10.7284 10.5245C12.6773 10.7257 15.3472 11.262 16.8966 11.7761C21.3692 13.2623 22.9283 15.7878 21.5251 19.2408C20.6481 21.3975 19.4301 21.9562 17.3351 21.1628C16.653 20.9058 16.0781 20.6153 14.5092 19.7436C11.6054 18.1345 10.631 17.7322 9.2668 17.5869C8.48726 17.5087 8.05851 17.5869 6.89895 18.0339C5.29114 18.6485 4.45313 18.8273 3.37152 18.7714C2.62121 18.7379 2.31914 18.6597 1.85141 18.3803C0.876985 17.7881 0.66261 16.6594 1.29599 15.352C1.76371 14.391 2.83558 13.2064 4.20953 12.1337C6.21685 10.5916 7.68823 10.2228 10.7284 10.5245ZM9.81248 18.805C10.7674 19.0173 11.7029 19.4419 13.9635 20.7047C15.9319 21.7998 16.6237 22.1238 17.5397 22.392C19.4106 22.9396 20.8235 22.4479 21.8077 20.917L22.0221 20.5817L22.0318 20.8835C22.0513 21.2857 21.9538 21.6322 21.6713 22.1797C21.3789 22.7496 20.8917 23.3195 20.5214 23.5542C20.0732 23.8224 19.7614 23.9006 19.1962 23.9006C18.1341 23.9006 17.2376 23.5542 14.48 22.0903C13.6907 21.6769 12.843 21.2299 12.5896 21.1181C11.4105 20.5482 10.2802 20.1683 9.38374 20.0677C8.51649 19.9671 8.08775 20.0454 6.85022 20.5147C5.25216 21.1293 4.4239 21.3081 3.3228 21.2634C2.76737 21.241 2.60172 21.2075 2.28016 21.0958C1.79295 20.917 1.41292 20.6153 1.1888 20.2465C1.02315 19.9783 1.0134 19.9224 0.993916 19.5313C0.984172 19.2966 0.993916 19.1179 1.0134 19.129C2.12425 19.7548 2.67968 19.8889 3.96592 19.833C5.09625 19.7883 5.84656 19.6207 7.22051 19.0843C7.62977 18.9279 8.05851 18.7714 8.15596 18.7491C8.53598 18.6709 9.31553 18.6932 9.81248 18.805Z" fill="black"/>
<path d="M13.2132 11.832C13.0378 11.9773 9.32519 15.5867 9.23749 15.6985C8.95491 16.0672 9.28621 16.6818 9.70522 16.5813C9.87087 16.5366 13.7978 12.7372 13.8953 12.536C13.9732 12.3461 13.9342 12.0667 13.7881 11.9103C13.6322 11.7538 13.3593 11.7203 13.2132 11.832Z" fill="black"/>
<path d="M16.0488 12.6588C15.8929 12.7594 12.1706 16.3912 12.0732 16.5365C11.7711 16.9834 12.2388 17.5981 12.6773 17.341C12.804 17.2628 16.5848 13.6087 16.6822 13.4634C16.7309 13.3964 16.7602 13.2623 16.7602 13.1282C16.7602 12.8153 16.575 12.5918 16.3217 12.5918C16.2242 12.5918 16.1073 12.6141 16.0488 12.6588Z" fill="black"/>
<path d="M3.96581 13.8322C3.78067 14.0557 3.4786 14.715 3.35192 15.1396C3.24474 15.5084 3.27397 16.123 3.41039 16.4247C3.61502 16.8717 4.02428 17.1511 4.56996 17.2293C5.39822 17.3299 6.10955 17.0617 6.41163 16.5476C6.50907 16.3688 6.5383 16.2571 6.55779 15.9554C6.58702 15.3184 6.35316 14.5138 6.04134 14.201C5.71004 13.8657 5.01819 13.6199 4.42379 13.6199C4.14121 13.631 4.12172 13.6422 3.96581 13.8322ZM5.10589 14.8379C5.19359 14.8603 5.29103 14.905 5.32027 14.9273C5.40796 14.9832 5.60285 15.6313 5.60285 15.8436C5.60285 16.123 5.51515 16.1677 5.01819 16.1454C4.46277 16.1342 4.2484 16.0671 4.20942 15.8995C4.18019 15.7542 4.34584 15.1732 4.492 14.9161C4.59919 14.7373 4.61868 14.7262 4.77459 14.7597C4.86229 14.782 5.01819 14.8156 5.10589 14.8379Z" fill="black"/>
<path d="M18.5434 13.877C18.3583 14.0334 14.6068 17.6763 14.5483 17.7657C14.2949 18.1345 14.636 18.7268 15.0355 18.6262C15.2012 18.5815 19.1281 14.7821 19.2255 14.581C19.3035 14.391 19.2645 14.1116 19.1184 13.9552C18.9624 13.7876 18.6799 13.754 18.5434 13.877Z" fill="black"/>
</svg>
