<svg width="20" height="20" viewBox="0 0 20 20" fill="none" xmlns="http://www.w3.org/2000/svg">
<g id="Group">
<g id="Group_2">
<g id="Group_3">
<path id="Vector" d="M0.0489211 5.16086C0.42964 7.92741 2.4686 11.3877 5.53973 14.4589C9.27078 18.1899 13.5687 20.3642 16.3606 19.9497C17.3336 19.8058 17.8243 19.5013 18.941 18.3337C19.5248 17.733 19.694 17.4877 19.8548 17.0393C19.9563 16.7347 19.9732 16.6586 19.9732 16.2355C19.9732 15.8294 19.9648 15.7279 19.8632 15.4572C19.6771 14.9242 19.5417 14.7465 18.4926 13.689C17.4266 12.6145 17.1897 12.4114 16.7583 12.2084C15.8191 11.7684 14.677 11.963 13.9832 12.6822C13.8225 12.8429 13.8056 12.8768 13.7886 13.0967C13.7717 13.2998 13.7886 13.3505 13.8732 13.4859C13.9832 13.6551 14.1778 13.7651 14.3809 13.7651C14.567 13.7651 14.6854 13.7143 14.8462 13.5705C14.9223 13.5028 15.0746 13.4013 15.1931 13.3421C15.3707 13.249 15.4553 13.2406 15.7176 13.2321C16.2337 13.2321 16.2929 13.2744 17.5197 14.5096C18.7041 15.7025 18.7295 15.7279 18.7295 16.244C18.7295 16.7009 18.6618 16.8278 18.0273 17.4708C17.3166 18.1984 16.9444 18.4437 16.3099 18.5875C14.3978 19.0359 11.3605 17.8007 8.3909 15.3726C7.13029 14.3235 5.65818 12.8514 4.63447 11.5992C2.19787 8.62117 0.971107 5.59234 1.41951 3.68028C1.56334 3.06267 1.80869 2.68195 2.51936 1.97974C3.17082 1.33675 3.29772 1.26906 3.76305 1.26906C4.27913 1.26906 4.33835 1.31136 5.56512 2.54659C6.7665 3.75643 6.76649 3.76489 6.76649 4.31481C6.76649 4.67861 6.68189 4.86474 6.37732 5.237C5.76817 5.98152 5.45513 7.03907 5.56512 7.9951C5.64972 8.70577 5.88661 9.30646 6.30963 9.86485C6.63113 10.2963 9.15233 12.7922 9.29616 12.826C9.35538 12.8429 9.49921 12.8429 9.60074 12.8345C9.76994 12.8175 9.82071 12.7922 9.94761 12.6568C10.1253 12.4707 10.1676 12.2845 10.0999 12.0476C10.0576 11.9123 9.82917 11.6585 8.63625 10.4571C7.26566 9.07803 7.2149 9.01881 7.06261 8.69731C6.79188 8.14738 6.73265 7.57208 6.86802 6.98831C6.9357 6.70911 7.24028 6.09996 7.43487 5.87153C8.06094 5.14393 8.19631 4.09484 7.78175 3.2065C7.5787 2.78348 7.37565 2.54659 6.30963 1.48057C5.25208 0.43148 5.07441 0.296114 4.5414 0.109985C4.27067 0.00846073 4.16915 -2.62835e-07 3.76305 -2.37233e-07C3.35695 -2.11632e-07 3.25542 0.00846079 2.98469 0.109985C2.51936 0.270733 2.27401 0.439941 1.69024 1.00679C0.725755 1.93744 0.412719 2.352 0.201209 2.98653C0.00661893 3.55338 -0.0526039 4.39942 0.0489211 5.16086Z" fill="white"/>
<path id="Vector_2" d="M10.7093 13.8075C10.7431 13.8667 10.8193 13.9767 10.887 14.0444C10.9885 14.1375 11.0477 14.1628 11.2508 14.1713C11.4538 14.1798 11.513 14.1713 11.623 14.0952C12.0714 13.7906 11.9614 13.1138 11.4369 12.9699C10.9546 12.843 10.5062 13.3591 10.7093 13.8075Z" fill="white"/>
</g>
</g>
</g>
</svg>
