<svg width="20" height="24" viewBox="0 0 20 24" fill="none" xmlns="http://www.w3.org/2000/svg">
<path d="M16.226 23.2923H3.7645C3.64209 23.2923 3.5247 23.2437 3.43814 23.1571C3.35159 23.0706 3.30296 22.9532 3.30296 22.8308L2.37988 6.21539H17.5968L16.6737 22.8308C16.6738 22.9508 16.6271 23.0662 16.5435 23.1523C16.4599 23.2385 16.346 23.2887 16.226 23.2923Z" stroke="white" stroke-width="1.38462"/>
<path d="M18.7692 6.21079H1.23077C1.10154 6.21079 1 6.13694 1 6.04925L1.42923 4.04156C1.44779 3.99681 1.48023 3.95919 1.52178 3.93427C1.56332 3.90934 1.61178 3.89841 1.66 3.9031H18.34C18.3882 3.89841 18.4367 3.90934 18.4782 3.93427C18.5198 3.95919 18.5522 3.99681 18.5708 4.04156L19 6.04925C19 6.13694 18.8985 6.21079 18.7692 6.21079Z" stroke="white" stroke-width="1.38462"/>
<path d="M6.30762 8.78616V20.3246" stroke="white" stroke-width="1.38462"/>
<path d="M10 8.78616V20.3246" stroke="white" stroke-width="1.38462"/>
<path d="M13.6924 8.78616V20.3246" stroke="white" stroke-width="1.38462"/>
<path d="M7.10596 3.90308V1.46154C7.10596 1.33913 7.15458 1.22174 7.24114 1.13518C7.32769 1.04863 7.44509 1 7.5675 1H12.4321C12.5545 1 12.6719 1.04863 12.7585 1.13518C12.845 1.22174 12.8937 1.33913 12.8937 1.46154V3.90308" stroke="white" stroke-width="1.38462"/>
</svg>
