<svg width="24" height="40" viewBox="0 0 24 40" fill="none" xmlns="http://www.w3.org/2000/svg">
<path d="M7.55597 29.7583C7.63516 29.805 7.7186 29.8446 7.80203 29.8842C7.7186 29.8446 7.63516 29.8036 7.55597 29.7583Z" fill="black"/>
<path d="M8.44116 30.1287C8.54581 30.1569 8.65187 30.1753 8.75935 30.1951C8.65187 30.1767 8.54581 30.1569 8.44116 30.1287Z" fill="black"/>
<path d="M7.98584 29.9722C8.07493 30.0089 8.16685 30.0386 8.25877 30.0697C8.16685 30.04 8.07493 30.0104 7.98584 29.9722Z" fill="black"/>
<path d="M8.91913 30.2251C9.08034 30.2463 9.2458 30.259 9.41126 30.259C9.24439 30.259 9.08034 30.2463 8.91913 30.2251Z" fill="black"/>
<path d="M11.022 29.8856C11.1054 29.846 11.1874 29.805 11.268 29.7598C11.1888 29.8064 11.1054 29.846 11.022 29.8856Z" fill="black"/>
<path d="M12.176 29.0159C12.2368 28.9481 12.2933 28.8788 12.3499 28.8066C12.2948 28.8788 12.2368 28.9481 12.176 29.0159Z" fill="black"/>
<path d="M10.0646 30.1951C10.1721 30.1767 10.2782 30.1569 10.3828 30.1287C10.2782 30.1569 10.1721 30.1753 10.0646 30.1951Z" fill="black"/>
<path d="M10.5638 30.0697C10.6557 30.04 10.7476 30.0104 10.8381 29.9722C10.749 30.0089 10.6571 30.0386 10.5638 30.0697Z" fill="black"/>
<path d="M9.66162 15.4923C9.68283 15.4895 9.70405 15.4867 9.72667 15.4824C9.70546 15.4853 9.68425 15.4895 9.66162 15.4923Z" fill="black"/>
<path d="M9.09741 15.4824C9.11862 15.4853 9.13984 15.4895 9.16246 15.4923C9.14125 15.4895 9.12004 15.4867 9.09741 15.4824Z" fill="black"/>
<path d="M9.72522 15.4822C9.79027 15.4723 9.85532 15.4582 9.92037 15.4426C9.85532 15.4596 9.79027 15.4723 9.72522 15.4822Z" fill="black"/>
<path d="M9.6616 15.4922C9.49615 15.512 9.32928 15.512 9.16382 15.4922C9.24584 15.5021 9.32927 15.5092 9.41271 15.5092C9.49615 15.5092 9.57958 15.5021 9.6616 15.4922Z" fill="black"/>
<path d="M8.90363 15.4426C8.96868 15.4596 9.03231 15.4723 9.09878 15.4822C9.03373 15.4723 8.96868 15.4582 8.90363 15.4426Z" fill="black"/>
<path d="M10.2089 22.9182C10.0901 22.8914 9.97135 22.8716 9.84973 22.8574C9.96994 22.8716 10.0901 22.8928 10.2089 22.9182Z" fill="black"/>
<path d="M8.97443 22.8574C8.85423 22.8716 8.73402 22.8928 8.61523 22.9182C8.73402 22.8914 8.85423 22.8716 8.97443 22.8574Z" fill="black"/>
<path d="M10.5837 23.0238C10.4875 22.9913 10.3913 22.9644 10.2938 22.939C10.3913 22.963 10.4875 22.9913 10.5837 23.0238Z" fill="black"/>
<path d="M7.93353 23.5092C8.86971 23.0524 9.95296 23.0524 10.8891 23.5092C10.421 23.2815 9.92468 23.1655 9.41133 23.1655C8.89799 23.1655 8.40162 23.2815 7.93353 23.5092Z" fill="black"/>
<path d="M9.00116 22.8528C9.27409 22.8217 9.54844 22.8217 9.82137 22.8528C9.68561 22.8373 9.54986 22.8274 9.41127 22.8274C9.27268 22.8274 9.13692 22.8373 9.00116 22.8528Z" fill="black"/>
<path d="M10.6981 23.0637C10.6599 23.0496 10.6217 23.0354 10.5822 23.0227C10.6203 23.0354 10.6599 23.0496 10.6981 23.0637Z" fill="black"/>
<path d="M10.2937 22.9394C10.2654 22.9324 10.2371 22.9253 10.2089 22.9182C10.2371 22.9239 10.2654 22.9324 10.2937 22.9394Z" fill="black"/>
<path d="M9.00117 22.853C8.99269 22.853 8.98279 22.8559 8.9743 22.8573C8.9842 22.8573 8.99269 22.8544 9.00117 22.853Z" fill="black"/>
<path d="M12.176 29.0161C12.1279 29.0699 12.0784 29.1222 12.0289 29.1731C12.0798 29.1222 12.1279 29.0699 12.176 29.0161Z" fill="black"/>
<path d="M9.84968 22.8573C9.8412 22.8573 9.8313 22.8544 9.82281 22.853C9.8313 22.853 9.8412 22.8559 9.84968 22.8573Z" fill="black"/>
<path d="M8.61512 22.9182C8.58684 22.9239 8.55856 22.9324 8.53027 22.9394C8.55856 22.9324 8.58684 22.9253 8.61512 22.9182Z" fill="black"/>
<path d="M10.8381 29.972C10.9004 29.9465 10.9612 29.914 11.022 29.8843C10.9612 29.914 10.9004 29.9451 10.8381 29.972Z" fill="black"/>
<path d="M7.37909 29.6467C7.43707 29.6849 7.49505 29.7245 7.55586 29.7584C7.49505 29.7231 7.43848 29.6849 7.37909 29.6467Z" fill="black"/>
<path d="M6.99316 29.3567C7.0469 29.4034 7.10064 29.4486 7.15721 29.4925C7.10064 29.45 7.0469 29.4034 6.99316 29.3567Z" fill="black"/>
<path d="M6.34546 28.6313C6.38647 28.6922 6.4289 28.7501 6.47415 28.8081C6.43031 28.7501 6.38647 28.6922 6.34546 28.6313Z" fill="black"/>
<path d="M7.80194 29.8855C7.86275 29.9152 7.92356 29.9463 7.98578 29.9732C7.92215 29.9477 7.86275 29.9152 7.80194 29.8855Z" fill="black"/>
<path d="M11.2681 29.7584C11.3289 29.7231 11.3855 29.6849 11.4449 29.6467C11.3869 29.6849 11.3289 29.7245 11.2681 29.7584Z" fill="black"/>
<path d="M10.7943 31.7324C10.7943 31.8258 10.8693 31.9007 10.9626 31.9007H14.4867L14.2915 31.5627H10.9626C10.8693 31.5627 10.7943 31.6391 10.7943 31.7324Z" fill="black" stroke="black" stroke-width="0.517647"/>
<path d="M14.5857 31.9022C14.679 31.9022 14.754 31.8272 14.754 31.7339C14.754 31.6406 14.679 31.5642 14.5857 31.5642H14.293L14.4881 31.9022H14.5857Z" fill="black"/>
<path d="M10.0731 32.8257C10.0731 32.919 10.148 32.994 10.2413 32.994H15.1188L14.9236 32.656H10.2413C10.148 32.656 10.0731 32.731 10.0731 32.8243V32.8257Z" fill="black" stroke="black" stroke-width="0.517647"/>
<path d="M15.2164 32.9943C15.3098 32.9943 15.3847 32.9193 15.3847 32.826C15.3847 32.7327 15.3084 32.6577 15.2164 32.6577H14.9237L15.1189 32.9957H15.2164V32.9943Z" fill="black"/>
<path d="M9.01678 33.991C9.01678 34.0843 9.09174 34.1593 9.18507 34.1593H15.7906L15.5955 33.8213H9.18507C9.09174 33.8213 9.01678 33.8962 9.01678 33.9896V33.991Z" fill="black" stroke="black" stroke-width="0.517647"/>
<path d="M15.8896 34.1605C15.9829 34.1605 16.0579 34.0856 16.0579 33.9923C16.0579 33.8989 15.9829 33.824 15.8896 33.824H15.5969L15.792 34.162H15.8896V34.1605Z" fill="black"/>
<path d="M7.498 9.74497H7.66628V9.40698H7.498C7.40466 9.40698 7.32971 9.48193 7.32971 9.57527C7.32971 9.6686 7.40466 9.74355 7.498 9.74355V9.74497Z" fill="black"/>
<path d="M7.498 11.0746H7.66628V10.7366H7.498C7.40466 10.7366 7.32971 10.8115 7.32971 10.9049C7.32971 10.9982 7.40466 11.0731 7.498 11.0731V11.0746Z" fill="black"/>
<path d="M5.06989 24.236C5.11372 24.2049 5.15049 24.1682 5.18302 24.1257C5.14908 24.1356 5.11655 24.154 5.09393 24.1851C5.08261 24.2007 5.07554 24.2176 5.0713 24.236H5.06989Z" fill="black"/>
<path d="M6.21812 25.1737C6.27044 25.1737 6.32135 25.1497 6.35529 25.1044C6.41044 25.0281 6.39347 24.9234 6.31711 24.8683L6.16155 24.7551C6.1064 24.8555 6.05125 24.9545 6.00458 25.0592L6.11771 25.1412C6.14741 25.1624 6.18276 25.1737 6.2167 25.1737H6.21812Z" fill="black"/>
<path d="M5.49549 24.2684L5.33004 24.1482C5.2862 24.1157 5.23246 24.1114 5.18296 24.1256C5.15044 24.168 5.11367 24.2048 5.06983 24.2359C5.04862 24.3024 5.06983 24.3787 5.13064 24.4211L5.25933 24.5145C5.35266 24.448 5.43327 24.3646 5.49408 24.2684H5.49549Z" fill="black"/>
<path d="M12.4786 28.6312C12.4998 28.5986 12.5253 28.5704 12.5465 28.5378L14.293 31.5641H14.5857C14.679 31.5641 14.754 31.6405 14.754 31.7338C14.754 31.8272 14.679 31.9021 14.5857 31.9021H14.4881L14.9237 32.6573H15.2164C15.3098 32.6573 15.3847 32.7322 15.3847 32.8256C15.3847 32.9189 15.3083 32.9938 15.2164 32.9938H15.1188L15.5968 33.8226H15.8896C15.9829 33.8226 16.0578 33.8975 16.0578 33.9908C16.0578 34.0842 15.9829 34.1591 15.8896 34.1591H15.792L17.2316 36.6509C17.5144 37.1416 17.5639 37.5955 17.3716 37.9279C17.1793 38.2616 16.7607 38.4455 16.195 38.4455H2.62896C2.0633 38.4455 1.6447 38.2616 1.45238 37.9279C1.26005 37.5941 1.30955 37.1402 1.59238 36.6509L6.2775 28.5364C6.29871 28.5689 6.32417 28.5972 6.34538 28.6297C6.2676 28.5166 6.19265 28.4021 6.1276 28.279C6.11204 28.2508 6.10214 28.2196 6.088 28.1899L1.30106 36.4812C0.956006 37.0808 0.905097 37.6535 1.16106 38.0961C1.41702 38.5388 1.93744 38.782 2.63037 38.782H16.1964C16.888 38.782 17.4098 38.5388 17.6658 38.0961C17.9217 37.6535 17.8708 37.0808 17.5257 36.4812L12.7388 28.1899C12.7247 28.2196 12.7134 28.2508 12.6992 28.279C12.6342 28.4021 12.5592 28.5166 12.4814 28.6297L12.4786 28.6312Z" fill="black" stroke="black" stroke-width="0.517647"/>
<path d="M7.41312 19.1607C7.41312 18.858 7.65918 18.612 7.96181 18.612H8.69435C8.60102 18.612 8.52606 18.537 8.52606 18.4437V18.2754H7.96181C7.47251 18.2754 7.07513 18.6728 7.07513 19.1621C7.07513 19.4576 7.22221 19.7193 7.44564 19.8805C7.5913 19.7758 7.76949 19.7122 7.96181 19.7122C7.65918 19.7122 7.41312 19.4661 7.41312 19.1635V19.1607Z" fill="black" stroke="black" stroke-width="0.517647"/>
<path d="M10.1296 18.6119H10.8749C11.1775 18.6119 11.4236 18.8579 11.4236 19.1606C11.4236 19.4632 11.1775 19.7092 10.8749 19.7092C11.0672 19.7092 11.2454 19.7729 11.3911 19.8775C11.6145 19.7163 11.7616 19.4561 11.7616 19.1591C11.7616 18.6698 11.3642 18.2725 10.8749 18.2725H10.2979V18.4407C10.2979 18.5341 10.2216 18.609 10.1296 18.609V18.6119Z" fill="black" stroke="black" stroke-width="0.517647"/>
<path d="M8.69436 18.612H10.1297C10.2231 18.612 10.298 18.537 10.298 18.4437V18.2754H8.52466V18.4437C8.52466 18.537 8.59961 18.612 8.69294 18.612H8.69436Z" fill="black" stroke="black" stroke-width="0.517647"/>
<path d="M8.1258 23.0638C8.09327 23.0751 8.06216 23.085 8.02964 23.0977V21.4842H7.96176C7.92216 21.4842 7.88539 21.4785 7.84721 21.4743C7.79347 21.4672 7.74115 21.4545 7.69165 21.4375V23.2618C7.72418 23.2448 7.75246 23.2236 7.7864 23.2066C7.89812 23.1529 8.01125 23.1062 8.1258 23.0638Z" fill="black" stroke="black" stroke-width="0.517647"/>
<path d="M10.875 21.4841H10.7944V23.0976C10.7633 23.0849 10.7294 23.0764 10.6982 23.0637C10.8128 23.1061 10.9259 23.1514 11.0376 23.2065C11.0716 23.2221 11.0999 23.2447 11.1324 23.2617V21.4417C11.0843 21.4558 11.0348 21.4685 10.9839 21.4742C10.9358 21.4813 10.9061 21.4841 10.875 21.4841Z" fill="black" stroke="black" stroke-width="0.517647"/>
<path d="M12.5606 25.2955C12.5606 25.2021 12.6355 25.1272 12.7289 25.1272H12.8434C12.5181 24.3367 11.9228 23.6748 11.1323 23.2605V23.3581C11.1323 23.4161 11.1026 23.4712 11.0531 23.5009C11.0262 23.5179 10.9951 23.5264 10.964 23.5264C10.9385 23.5264 10.9131 23.5207 10.8904 23.5094C12.0628 24.0821 12.7911 25.2446 12.7911 26.5428C12.7911 27.0985 12.6581 27.6288 12.3979 28.121C12.4262 28.0672 12.4828 28.0319 12.5436 28.0305C12.6214 28.0333 12.6624 28.0616 12.6935 28.1153L12.7359 28.1903C12.9905 27.6798 13.1276 27.1127 13.1276 26.5428C13.1276 26.1694 13.0697 25.8074 12.9664 25.4638H12.7289C12.6355 25.4638 12.5606 25.3888 12.5606 25.2955Z" fill="black" stroke="black" stroke-width="0.517647"/>
<path d="M6.28034 28.0317C6.34115 28.0317 6.39771 28.067 6.42741 28.1222C6.1672 27.6301 6.03427 27.0998 6.03427 26.544C6.03427 25.2444 6.76257 24.0819 7.93491 23.5106C7.88258 23.5361 7.82036 23.5332 7.77086 23.5021C7.72137 23.471 7.69167 23.4173 7.69167 23.3593V23.2617C7.02984 23.6082 6.5066 24.13 6.16155 24.7551L6.31711 24.8682C6.39347 24.9234 6.40903 25.028 6.35529 25.1044C6.32276 25.1496 6.27044 25.1737 6.21812 25.1737C6.18418 25.1737 6.14882 25.1638 6.11912 25.1411L6.00599 25.0591C5.80659 25.5173 5.69629 26.0207 5.69629 26.544C5.69629 27.1139 5.83488 27.681 6.08801 28.1915L6.13185 28.1165C6.16155 28.0628 6.21812 28.0359 6.28034 28.0317Z" fill="black" stroke="black" stroke-width="0.517647"/>
<path d="M12.5437 28.0315C12.4829 28.0315 12.4263 28.0669 12.398 28.122C11.8097 29.2321 10.6657 29.9222 9.41271 29.9222C8.15976 29.9222 7.0157 29.2321 6.42741 28.122C6.39771 28.0683 6.34256 28.0329 6.28034 28.0315C6.2167 28.0357 6.16155 28.0626 6.13185 28.1163L6.08801 28.1913C6.10215 28.221 6.11347 28.2521 6.12761 28.2804C6.19266 28.4034 6.26902 28.518 6.34539 28.6311C6.3864 28.6919 6.42883 28.7499 6.47408 28.8079C6.52923 28.88 6.58721 28.9493 6.64661 29.0172C6.69469 29.0709 6.74418 29.1232 6.79509 29.1741C6.85873 29.2378 6.9252 29.2986 6.99308 29.3566C7.04681 29.4032 7.10055 29.4485 7.15712 29.4923C7.22924 29.5475 7.30419 29.5984 7.37914 29.6479C7.43712 29.6861 7.4951 29.7257 7.55591 29.7596C7.63511 29.8063 7.71854 29.8459 7.80198 29.8855C7.86279 29.9152 7.9236 29.9463 7.98582 29.9731C8.07491 30.0099 8.16683 30.0396 8.25875 30.0707C8.31956 30.0905 8.37896 30.1131 8.44118 30.1301C8.54441 30.1584 8.65189 30.1768 8.75937 30.1966C8.8131 30.2065 8.86543 30.2206 8.91916 30.2277C9.08038 30.2489 9.24584 30.2616 9.41129 30.2616C9.57675 30.2616 9.74221 30.2489 9.90484 30.2277C9.95857 30.2206 10.0109 30.2065 10.0646 30.1966C10.1707 30.1782 10.2782 30.1584 10.3828 30.1301C10.445 30.1131 10.5044 30.0905 10.5652 30.0707C10.6572 30.041 10.7491 30.0113 10.8396 29.9731C10.9018 29.9477 10.9626 29.9152 11.0234 29.8855C11.1069 29.8459 11.1903 29.8048 11.2695 29.7596C11.3303 29.7242 11.3869 29.6861 11.4463 29.6479C11.5212 29.5984 11.5962 29.5475 11.6683 29.4923C11.7249 29.4499 11.7786 29.4032 11.8323 29.3566C11.9002 29.2986 11.9667 29.2378 12.0303 29.1741C12.0812 29.1232 12.1307 29.0709 12.1774 29.0172C12.2382 28.9493 12.2948 28.88 12.3513 28.8079C12.3952 28.7499 12.439 28.6919 12.48 28.6311C12.5578 28.518 12.6328 28.4034 12.6978 28.2804C12.7134 28.2521 12.7233 28.221 12.7374 28.1913L12.695 28.1163C12.6639 28.0626 12.6229 28.0343 12.5451 28.0315H12.5437Z" fill="black" stroke="black" stroke-width="0.517647"/>
<path d="M7.77084 23.5007C7.82034 23.5319 7.88256 23.5347 7.93489 23.5092C8.40297 23.2816 8.89934 23.1656 9.41269 23.1656C9.92603 23.1656 10.4224 23.2816 10.8905 23.5092C10.9145 23.5206 10.94 23.5262 10.964 23.5262C10.9951 23.5262 11.0262 23.5177 11.0531 23.5007C11.1026 23.4696 11.1323 23.4159 11.1323 23.3579V23.2603C11.0998 23.2434 11.0701 23.2222 11.0376 23.2052C10.9273 23.1515 10.8127 23.1048 10.6982 23.0624C10.66 23.0482 10.6218 23.0341 10.5822 23.0214C10.486 22.9888 10.3899 22.9605 10.2923 22.9365C10.264 22.9294 10.2357 22.9224 10.2074 22.9153C10.0887 22.8884 9.96845 22.8686 9.84825 22.8545C9.83976 22.8545 9.82986 22.8517 9.82138 22.8502C9.54845 22.8191 9.2741 22.8191 9.00116 22.8502C8.99268 22.8502 8.98278 22.8531 8.97429 22.8545C8.85409 22.8686 8.73389 22.8898 8.6151 22.9153C8.58682 22.9209 8.55853 22.9294 8.53025 22.9365C8.43267 22.9605 8.33651 22.9888 8.24035 23.0214C8.20216 23.0341 8.16398 23.0482 8.1258 23.0624C8.01125 23.1048 7.89812 23.15 7.7864 23.2052C7.75246 23.2207 7.72418 23.2434 7.69165 23.2603V23.3579C7.69165 23.4159 7.72135 23.4711 7.77084 23.5007Z" fill="black" stroke="black" stroke-width="0.517647"/>
<path d="M7.74969 21.1774C7.78646 21.1448 7.83595 21.1307 7.88404 21.1378C7.61534 21.0996 7.41312 20.8677 7.41312 20.5975C7.41312 20.2949 7.65918 20.0489 7.96181 20.0489C7.76949 20.0489 7.5913 19.9852 7.44564 19.8792C7.22221 20.0404 7.07513 20.3006 7.07513 20.5975C7.07513 20.9822 7.32827 21.3188 7.69171 21.4376V21.306C7.69171 21.2565 7.71292 21.2113 7.74969 21.1788V21.1774Z" fill="black" stroke="black" stroke-width="0.517647"/>
<path d="M11.4236 20.5975C11.4236 20.8719 11.2171 21.1052 10.9187 21.142C10.9682 21.1363 11.0262 21.1491 11.063 21.1802C11.0997 21.2127 11.1323 21.2565 11.1323 21.306V21.4418C11.4999 21.3301 11.7616 20.9907 11.7616 20.5975C11.7616 20.302 11.6145 20.0404 11.391 19.8792C11.2454 19.9838 11.0672 20.0489 10.8749 20.0489C11.1775 20.0489 11.4236 20.2949 11.4236 20.5975Z" fill="black" stroke="black" stroke-width="0.517647"/>
<path d="M10.875 20.047C11.0673 20.047 11.2455 19.9833 11.3912 19.8773C11.2455 19.7726 11.0673 19.709 10.875 19.709H7.96185C7.76952 19.709 7.59134 19.7726 7.44568 19.8773C7.59134 19.9819 7.76952 20.047 7.96185 20.047H10.875Z" fill="black" stroke="black" stroke-width="0.517647"/>
<path d="M7.96176 21.4842H10.8749C10.906 21.4842 10.9357 21.48 10.9838 21.4743C11.0347 21.4673 11.0842 21.4559 11.1323 21.4418V21.3061C11.1323 21.2566 11.1012 21.2127 11.063 21.1802C11.0262 21.1477 10.9668 21.1363 10.9188 21.142C10.9046 21.1448 10.8891 21.1463 10.8749 21.1463H7.96176C7.93913 21.1463 7.91792 21.142 7.88398 21.1378C7.83448 21.1307 7.7864 21.1448 7.74963 21.1774C7.71286 21.2099 7.69165 21.2566 7.69165 21.3046V21.4362C7.74115 21.4531 7.79347 21.4659 7.84721 21.4729C7.88539 21.4786 7.92216 21.4828 7.96176 21.4828V21.4842Z" fill="black" stroke="black" stroke-width="0.517647"/>
<path d="M14.2109 37.2546C14.6338 37.2546 14.9774 36.9109 14.9774 36.4881C14.9774 36.0653 14.6338 35.7202 14.2109 35.7202C13.7881 35.7202 13.4445 36.0639 13.4445 36.4881C13.4445 36.9124 13.7881 37.2546 14.2109 37.2546ZM14.2109 36.0582C14.4471 36.0582 14.6408 36.2505 14.6408 36.4881C14.6408 36.7257 14.4485 36.9166 14.2109 36.9166C13.9734 36.9166 13.7824 36.7243 13.7824 36.4881C13.7824 36.2519 13.9748 36.0582 14.2109 36.0582Z" fill="black" stroke="black" stroke-width="0.517647"/>
<path d="M11.2384 37.2546C11.6612 37.2546 12.0049 36.9109 12.0049 36.4881C12.0049 36.0653 11.6612 35.7202 11.2384 35.7202C10.8156 35.7202 10.4719 36.0639 10.4719 36.4881C10.4719 36.9124 10.8156 37.2546 11.2384 37.2546ZM11.2384 36.0582C11.4746 36.0582 11.6669 36.2505 11.6669 36.4881C11.6669 36.7257 11.4746 36.9166 11.2384 36.9166C11.0022 36.9166 10.8085 36.7243 10.8085 36.4881C10.8085 36.2519 11.0008 36.0582 11.2384 36.0582Z" fill="black" stroke="black" stroke-width="0.517647"/>
<path d="M5.49543 24.2686C5.43321 24.3661 5.35402 24.4496 5.26068 24.5146L6.00595 25.0577C6.0512 24.953 6.10777 24.854 6.16292 24.7536L5.49685 24.2686H5.49543Z" fill="black" stroke="black" stroke-width="0.517647"/>
<path d="M5.06986 24.2361C4.98218 24.2998 4.87612 24.3365 4.76016 24.3365C4.4646 24.3365 4.22561 24.0961 4.22561 23.802C4.22561 23.5078 4.46602 23.2674 4.76016 23.2674C5.05431 23.2674 5.29472 23.5078 5.29472 23.802C5.29472 23.9236 5.25229 24.0353 5.183 24.1258C5.23249 24.1117 5.28482 24.1159 5.33007 24.1485L5.49553 24.2687C5.58179 24.1329 5.63411 23.9745 5.63411 23.802C5.63411 23.3212 5.24239 22.9294 4.76158 22.9294C4.28076 22.9294 3.88904 23.3212 3.88904 23.802C3.88904 24.2828 4.28076 24.6745 4.76158 24.6745C4.94825 24.6745 5.11936 24.6151 5.26078 24.5147L5.13209 24.4214C5.07269 24.3775 5.05148 24.3026 5.07128 24.2361H5.06986Z" fill="black" stroke="black" stroke-width="0.517647"/>
<path d="M21.0089 16.9716V29.9437C21.0089 30.5957 20.4786 31.126 19.8267 31.126H19.3204C18.6685 31.126 18.1382 30.5957 18.1382 29.9437V18.2104C18.1382 17.3718 17.4566 16.6902 16.618 16.6902H16.5685C15.7299 16.6902 15.0482 17.3718 15.0482 18.2104V23.9434C15.0482 24.5954 14.566 25.1257 13.9735 25.1257H12.845C12.8902 25.236 12.9326 25.3477 12.968 25.4636H13.9735C14.7527 25.4636 15.3862 24.782 15.3862 23.9434V18.2104C15.3862 17.5585 15.9165 17.0282 16.5685 17.0282H16.618C17.2699 17.0282 17.8002 17.5585 17.8002 18.2104V29.9437C17.8002 30.7823 18.4818 31.4639 19.3204 31.4639H19.8267C20.6653 31.4639 21.3469 30.7823 21.3469 29.9437V16.9716C21.2932 16.9829 21.2352 16.99 21.1786 16.99C21.1221 16.99 21.0641 16.9829 21.0103 16.9716H21.0089Z" fill="black" stroke="black" stroke-width="0.517647"/>
<path d="M12.729 25.1269C12.6356 25.1269 12.5607 25.2018 12.5607 25.2952C12.5607 25.3885 12.6356 25.4635 12.729 25.4635H12.9665C12.9312 25.3489 12.8888 25.2358 12.8435 25.1255H12.729V25.1269Z" fill="black"/>
<path d="M7.49421 10.7379H7.6625V9.74519H7.49421C7.40088 9.74519 7.32593 9.67024 7.32593 9.5769V10.9076C7.32593 10.8143 7.40088 10.7393 7.49421 10.7393V10.7379Z" fill="black" stroke="black" stroke-width="0.517647"/>
<path d="M7.49421 9.40725H7.6625V8.86562H11.1527V11.9626H11.4906V8.69734C11.4906 8.604 11.4157 8.52905 11.3224 8.52905H7.49421C7.40088 8.52905 7.32593 8.604 7.32593 8.69734V9.57695C7.32593 9.48361 7.40088 9.40866 7.49421 9.40866V9.40725Z" fill="black" stroke="black" stroke-width="0.517647"/>
<path d="M7.6625 11.0745H7.49421C7.40088 11.0745 7.32593 10.9996 7.32593 10.9062V11.9612H7.66391V11.0745H7.6625Z" fill="black" stroke="black" stroke-width="0.517647"/>
<path d="M11.3224 12.2995H14.8719C14.7347 13.2286 13.9371 13.9328 12.9812 13.9328H11.1923C11.2474 13.9328 11.2997 13.9597 11.3308 14.0064C11.362 14.0516 11.369 14.1096 11.3492 14.1619C11.3351 14.1987 11.3181 14.234 11.3012 14.2708H12.9812C14.1761 14.2708 15.1632 13.3346 15.2269 12.1411C15.2297 12.0944 15.2127 12.0492 15.1802 12.0152C15.1491 11.9813 15.1038 11.9629 15.0572 11.9629H11.4906V12.1312C11.4906 12.2245 11.4157 12.2995 11.3224 12.2995Z" fill="black" stroke="black" stroke-width="0.517647"/>
<path d="M7.48577 14.0046C7.51688 13.9594 7.56921 13.9311 7.62436 13.9311H5.83403C4.87806 13.9311 4.07905 13.2269 3.94329 12.2978H7.49284C7.39951 12.2978 7.32456 12.2228 7.32456 12.1295V11.9612H3.75804C3.71137 11.9612 3.66753 11.981 3.63501 12.0135C3.60389 12.0474 3.58692 12.0927 3.58834 12.1394C3.65198 13.3343 4.63906 14.2691 5.83403 14.2691H7.51406C7.4985 14.2323 7.48011 14.197 7.46597 14.1602C7.44617 14.1079 7.45324 14.0499 7.48577 14.0046Z" fill="black" stroke="black" stroke-width="0.517647"/>
<path d="M7.49423 12.2995H11.3224C11.4157 12.2995 11.4906 12.2245 11.4906 12.1312V11.9629H7.32452V12.1312C7.32452 12.2245 7.39947 12.2995 7.49281 12.2995H7.49423Z" fill="black" stroke="black" stroke-width="0.517647"/>
<path d="M9.91664 15.4428C9.92936 15.44 9.9435 15.4386 9.95623 15.4344V18.2754H10.2942V15.3057C10.2589 15.3226 10.2249 15.341 10.1882 15.3552C10.0991 15.3919 10.0071 15.4188 9.91522 15.4428H9.91664Z" fill="black" stroke="black" stroke-width="0.517647"/>
<path d="M8.85892 15.4344C8.87165 15.4386 8.88579 15.4386 8.89852 15.4428C8.8066 15.4188 8.71468 15.3919 8.62558 15.3552C8.59023 15.341 8.55487 15.3226 8.52094 15.3057V18.2754H8.85892V15.4344Z" fill="black" stroke="black" stroke-width="0.517647"/>
<path d="M8.59591 15.0584C8.64258 15.0273 8.70197 15.0216 8.7543 15.0414C8.38803 14.8929 8.08257 14.6172 7.89025 14.2693H7.51691C7.71913 14.7246 8.07833 15.0923 8.52238 15.3045V15.197C8.52238 15.1404 8.55066 15.0881 8.59733 15.057L8.59591 15.0584Z" fill="black" stroke="black" stroke-width="0.517647"/>
<path d="M10.0624 15.0412C10.1147 15.02 10.1741 15.0257 10.2208 15.0582C10.2674 15.0893 10.2957 15.1416 10.2957 15.1982V15.3057C10.7412 15.0935 11.099 14.7259 11.3012 14.2705H10.9278C10.7355 14.6184 10.4301 14.8927 10.0638 15.0426L10.0624 15.0412Z" fill="black" stroke="black" stroke-width="0.517647"/>
<path d="M10.9264 14.2704H11.2997C11.3153 14.2336 11.3336 14.1982 11.3478 14.1615C11.3676 14.1091 11.3605 14.0512 11.3294 14.0059C11.2983 13.9607 11.246 13.9324 11.1908 13.9324H7.6257C7.57055 13.9324 7.51823 13.9592 7.48711 14.0059C7.456 14.0512 7.44752 14.1091 7.46732 14.1615C7.48146 14.1982 7.49984 14.2336 7.5154 14.2704H10.9264Z" fill="black" stroke="black" stroke-width="0.517647"/>
<path d="M8.89986 15.4427C8.96491 15.4597 9.02855 15.4724 9.09501 15.4823C9.11623 15.4852 9.13744 15.4894 9.16007 15.4922C9.32552 15.512 9.49239 15.512 9.65785 15.4922C9.67906 15.4894 9.70169 15.4866 9.7229 15.4823C9.78795 15.4724 9.85301 15.4583 9.91806 15.4427C10.01 15.4187 10.1005 15.3918 10.191 15.3551C10.2278 15.3409 10.2617 15.3225 10.2971 15.3056V15.1981C10.2971 15.1415 10.2688 15.0892 10.2221 15.0581C10.1754 15.027 10.116 15.0213 10.0637 15.0411C9.64088 15.2122 9.17704 15.2122 8.75562 15.0411C8.70329 15.0199 8.64531 15.0256 8.59723 15.0581C8.55056 15.0892 8.52228 15.1415 8.52228 15.1981V15.3056C8.55763 15.3225 8.59157 15.3409 8.62693 15.3551C8.71602 15.3918 8.80794 15.4187 8.89986 15.4427Z" fill="black" stroke="black" stroke-width="0.517647"/>
<path d="M8.8588 9.57527C8.8588 9.48193 8.78243 9.40698 8.69051 9.40698H7.66241V9.74497H8.69051C8.78385 9.74497 8.8588 9.67002 8.8588 9.57668V9.57527Z" fill="black" stroke="black" stroke-width="0.517647"/>
<path d="M8.8588 10.9061C8.8588 10.8127 8.78243 10.7378 8.69051 10.7378H7.66241V11.0758H8.69051C8.78385 11.0758 8.8588 11.0008 8.8588 10.9075V10.9061Z" fill="black" stroke="black" stroke-width="0.517647"/>
<path d="M21.3431 11.6824V11.1168C21.3431 11.0234 21.2682 10.9485 21.1748 10.9485C21.0815 10.9485 21.0065 11.0234 21.0065 11.1168V11.6824C21.0603 11.6711 21.1182 11.6641 21.1748 11.6641C21.2314 11.6641 21.2894 11.6711 21.3431 11.6824Z" fill="black" stroke="black" stroke-width="0.517647"/>
<path d="M20.026 8.40609C19.6569 8.40609 19.3557 8.70589 19.3557 9.07499C19.3557 9.44408 19.6555 9.74389 20.026 9.74389C20.1194 9.74389 20.1943 9.66894 20.1943 9.5756C20.1943 9.48227 20.1194 9.40732 20.026 9.40732C19.8436 9.40732 19.6937 9.25883 19.6937 9.07499C19.6937 8.89115 19.8422 8.74266 20.026 8.74266C20.3951 8.74266 20.6949 8.44286 20.6949 8.07376C20.6949 7.70467 20.3951 7.40486 20.026 7.40486C19.8436 7.40486 19.6937 7.25637 19.6937 7.07253C19.6937 6.88869 19.8422 6.74021 20.026 6.74021C20.3951 6.74021 20.6949 6.4404 20.6949 6.07131C20.6949 5.70221 20.3951 5.40241 20.026 5.40241C19.8436 5.40241 19.6937 5.25392 19.6937 5.07008C19.6937 4.88624 19.8422 4.73916 20.026 4.73916C20.3951 4.73916 20.6949 4.43936 20.6949 4.07027C20.6949 3.70117 20.3951 3.40137 20.026 3.40137C19.9327 3.40137 19.8577 3.47632 19.8577 3.56965C19.8577 3.66299 19.9327 3.73794 20.026 3.73794C20.2085 3.73794 20.3569 3.88643 20.3569 4.07027C20.3569 4.25411 20.2085 4.4026 20.026 4.4026C19.6569 4.4026 19.3557 4.7024 19.3557 5.07149C19.3557 5.44059 19.6555 5.74039 20.026 5.74039C20.2085 5.74039 20.3569 5.88888 20.3569 6.07272C20.3569 6.25656 20.2085 6.40505 20.026 6.40505C19.6569 6.40505 19.3557 6.70485 19.3557 7.07395C19.3557 7.44304 19.6555 7.74285 20.026 7.74285C20.2085 7.74285 20.3569 7.89133 20.3569 8.07376C20.3569 8.25619 20.2085 8.40609 20.026 8.40609Z" fill="black" stroke="black" stroke-width="0.517647"/>
<path d="M22.3311 4.33884C22.7002 4.33884 23 4.03904 23 3.66994C23 3.30084 22.7002 3.00104 22.3311 3.00104C22.1487 3.00104 21.9988 2.85256 21.9988 2.66871C21.9988 2.48487 22.1472 2.3378 22.3311 2.3378C22.7002 2.3378 23 2.038 23 1.6689C23 1.2998 22.7002 1 22.3311 1C22.2377 1 22.1628 1.07495 22.1628 1.16829C22.1628 1.26162 22.2377 1.33657 22.3311 1.33657C22.5135 1.33657 22.662 1.48506 22.662 1.6689C22.662 1.85274 22.5135 2.00123 22.3311 2.00123C21.962 2.00123 21.6608 2.30103 21.6608 2.67013C21.6608 3.03923 21.9606 3.33903 22.3311 3.33903C22.5135 3.33903 22.662 3.48751 22.662 3.67136C22.662 3.8552 22.5135 4.00368 22.3311 4.00368C21.962 4.00368 21.6608 4.30348 21.6608 4.67258C21.6608 5.04168 21.9606 5.34148 22.3311 5.34148C22.5135 5.34148 22.662 5.48997 22.662 5.67239C22.662 5.85482 22.5135 6.00472 22.3311 6.00472C21.962 6.00472 21.6608 6.30453 21.6608 6.67362C21.6608 7.04272 21.9606 7.34252 22.3311 7.34252C22.4244 7.34252 22.4994 7.26757 22.4994 7.17423C22.4994 7.0809 22.4244 7.00595 22.3311 7.00595C22.1487 7.00595 21.9988 6.85747 21.9988 6.67362C21.9988 6.48978 22.1472 6.3413 22.3311 6.3413C22.7002 6.3413 23 6.04149 23 5.67239C23 5.3033 22.7002 5.0035 22.3311 5.0035C22.1487 5.0035 21.9988 4.85501 21.9988 4.67117C21.9988 4.48733 22.1472 4.33884 22.3311 4.33884Z" fill="black" stroke="black" stroke-width="0.517647"/>
<path d="M21.3431 11.6824V12.0345C21.5255 12.1038 21.657 12.2791 21.657 12.4856V16.1695C21.657 16.376 21.5255 16.5513 21.3431 16.6206V16.9728C21.715 16.895 21.995 16.5641 21.995 16.1695V12.4856C21.995 12.0911 21.715 11.7616 21.3431 11.6824Z" fill="black" stroke="black" stroke-width="0.517647"/>
<path d="M20.6911 16.1695V12.4856C20.6911 12.2791 20.8227 12.1038 21.0051 12.0345V11.6824C20.6332 11.7602 20.3531 12.0911 20.3531 12.4856V16.1695C20.3531 16.5641 20.6332 16.8936 21.0051 16.9728V16.6206C20.8227 16.5513 20.6911 16.376 20.6911 16.1695Z" fill="black" stroke="black" stroke-width="0.517647"/>
<path d="M21.1785 16.6522C21.1191 16.6522 21.0626 16.6394 21.0103 16.6196V16.9718C21.064 16.9831 21.122 16.9901 21.1785 16.9901C21.2351 16.9901 21.2931 16.9831 21.3468 16.9718V16.6196C21.2945 16.6394 21.2379 16.6522 21.1785 16.6522Z" fill="black"/>
<path d="M21.1785 12.0023C21.2379 12.0023 21.2945 12.015 21.3468 12.0348V11.6827C21.2931 11.6714 21.2351 11.6643 21.1785 11.6643C21.122 11.6643 21.064 11.6714 21.0103 11.6827V12.0348C21.0626 12.015 21.1191 12.0023 21.1785 12.0023Z" fill="black"/>
</svg>
