<svg width="23" height="19" viewBox="0 0 23 19" fill="none" xmlns="http://www.w3.org/2000/svg">
<path d="M18.7714 2.26331C17.2534 4.47291 16.7778 7.64143 16.8137 10.2726C16.8504 12.9729 17.4595 15.9493 19.0123 18.2037C19.0502 18.2588 19.1329 18.2182 19.1054 18.155C17.9659 15.5299 17.1051 13.0039 17.107 10.1025C17.109 7.27092 18.0105 4.95573 19.004 2.36706C19.0583 2.22575 18.8504 2.14848 18.7715 2.26331H18.7714Z" fill="black" stroke="black" stroke-width="0.225"/>
<path d="M19.3408 1.58212C16.5793 1.69466 15.1367 5.47648 14.8031 7.77146C14.3014 11.2214 15.6943 14.6058 18.3065 16.8635C18.3846 16.9309 18.504 16.8242 18.4259 16.7519C16.3513 14.83 15.0364 12.1242 15.0486 9.26835C15.0539 8.04598 15.2745 6.80946 15.7126 5.66688C16.1418 4.54747 16.9553 2.77915 18.1149 2.22874C18.3919 2.09725 19.0578 1.92729 19.3104 2.17909C19.4422 2.31047 19.4886 2.83713 19.5373 3.02205C19.7042 3.65532 19.8637 4.29076 20.0059 4.92996C20.3182 6.33359 20.5523 7.75913 20.5989 9.19838C20.6856 11.8819 20.0508 14.5437 18.4966 16.76C18.4743 16.7917 18.5248 16.8343 18.5503 16.8038C22.1357 12.5275 20.8032 6.583 19.4769 1.69466C19.4612 1.63622 19.406 1.57949 19.3408 1.58212Z" fill="black" stroke="black" stroke-width="0.225"/>
<path d="M15.0678 11.4619C15.7527 12.4303 16.4164 13.6642 17.4788 14.2614C17.4907 14.2681 17.5013 14.2537 17.4934 14.2434C16.7304 13.2555 15.7691 12.5502 15.2434 11.3696C15.1901 11.25 14.9952 11.3594 15.0676 11.4619H15.0678Z" fill="black" stroke="black" stroke-width="0.225"/>
<path d="M14.8162 9.05923C15.2811 10.0963 16.08 11.1053 16.9806 11.7941C17.0285 11.8308 17.0858 11.7558 17.0464 11.7135C16.241 10.8492 15.5776 9.99133 14.9506 8.98881C14.8989 8.90617 14.7761 8.96975 14.8161 9.05935L14.8162 9.05923Z" fill="black" stroke="black" stroke-width="0.225"/>
<path d="M15.2316 6.14946C15.573 7.28371 16.0878 8.60333 16.9023 9.48167C16.9482 9.53132 17.0236 9.47345 16.9966 9.41466C16.7395 8.85627 16.3751 8.34959 16.1001 7.79759C15.8243 7.24399 15.6024 6.67121 15.3836 6.0933C15.351 6.00712 15.2051 6.06123 15.2316 6.14935V6.14946Z" fill="black" stroke="black" stroke-width="0.225"/>
<path d="M16.2128 4.19728C16.2109 5.09684 16.4546 6.26944 17.0775 6.94735C17.1023 6.97417 17.1425 6.94872 17.1372 6.91573C17.0632 6.445 16.8804 6.01468 16.731 5.56324C16.5805 5.10871 16.5037 4.64278 16.3856 4.18084C16.3616 4.08701 16.2129 4.095 16.2126 4.19728H16.2128Z" fill="black" stroke="black" stroke-width="0.225"/>
<path d="M17.2384 2.81672C17.1525 3.61391 17.2155 4.41931 17.5469 5.15485C17.566 5.19708 17.6347 5.1714 17.623 5.12677C17.4225 4.36726 17.2901 3.6082 17.3552 2.82049C17.3615 2.74504 17.2465 2.74253 17.2385 2.81661L17.2384 2.81672Z" fill="black" stroke="black" stroke-width="0.225"/>
<path d="M18.0339 2.10493C17.894 2.30594 17.9391 2.67211 17.9468 2.90736C17.9562 3.1893 17.9831 3.43825 18.1025 3.69496C18.1176 3.72749 18.1671 3.71356 18.1685 3.67977C18.1793 3.40845 18.1421 3.14649 18.1379 2.87506C18.1359 2.74596 18.1396 2.61687 18.149 2.48811C18.1581 2.36335 18.1918 2.24396 18.1512 2.12422C18.1331 2.07103 18.0675 2.05653 18.0338 2.10493H18.0339Z" fill="black" stroke="black" stroke-width="0.225"/>
<path d="M20.229 13.0579C19.507 13.9348 18.794 14.7433 17.8621 15.4057C17.7792 15.4646 17.8458 15.6063 17.9381 15.5504C18.9223 14.9545 19.7891 14.1473 20.2739 13.0944C20.2862 13.0678 20.2519 13.03 20.229 13.0579Z" fill="black" stroke="black" stroke-width="0.225"/>
<path d="M20.5982 9.96993C19.6451 11.195 18.5205 12.3122 17.3322 13.3099C17.2624 13.3685 17.3576 13.4664 17.4278 13.4122C18.6998 12.428 19.7397 11.3184 20.6977 10.0309C20.7428 9.97028 20.6436 9.91138 20.5982 9.96993Z" fill="black" stroke="black" stroke-width="0.225"/>
<path d="M20.5843 8.10293C20.0229 8.8484 19.5087 9.52585 18.8098 10.1589C18.2244 10.6891 17.5467 11.1231 17.0186 11.7112C16.9791 11.7552 17.0231 11.8208 17.0788 11.7962C17.8623 11.4493 18.5038 10.8025 19.0653 10.1646C19.6274 9.52573 20.2166 8.87523 20.6938 8.17005C20.7406 8.10076 20.6331 8.03798 20.5843 8.10293Z" fill="black" stroke="black" stroke-width="0.225"/>
<path d="M17.1233 9.25583C17.1117 9.26679 17.1286 9.28494 17.1403 9.27398C17.152 9.26303 17.1351 9.24488 17.1233 9.25583Z" fill="black" stroke="black" stroke-width="0.225"/>
<path d="M20.2424 5.67192C19.6186 6.20212 19.3132 6.99942 18.7532 7.59491C18.1991 8.184 17.5663 8.70621 17.0051 9.29109C16.9624 9.3356 17.015 9.42498 17.0721 9.38537C17.7613 8.90676 18.3145 8.32292 18.8526 7.68291C19.3703 7.0671 20.0539 6.49239 20.3001 5.70742C20.3108 5.67295 20.2682 5.65012 20.2425 5.67181L20.2424 5.67192Z" fill="black" stroke="black" stroke-width="0.225"/>
<path d="M19.8423 3.75038C19.4057 4.171 19.0713 4.68978 18.6572 5.13529C18.2399 5.58421 17.777 5.97778 17.3463 6.41153C17.2933 6.46483 17.3572 6.56928 17.4266 6.52476C18.3656 5.92219 19.4798 4.8675 19.9499 3.83815C19.9804 3.77127 19.904 3.69114 19.8423 3.75049V3.75038Z" fill="black" stroke="black" stroke-width="0.225"/>
<path d="M19.5309 2.47727C19.0627 2.91193 18.6782 3.45731 18.2451 3.92713C18.2239 3.95007 18.2484 3.99185 18.2785 3.97427C18.8464 3.64416 19.4004 3.17846 19.6554 2.55432C19.685 2.48195 19.5827 2.4291 19.5309 2.47727Z" fill="black" stroke="black" stroke-width="0.225"/>
<path d="M1.88879 14.0101C2.14915 14.0392 4.27599 12.6419 6.69071 12.7523C8.97519 12.8567 11.1907 13.6629 13.2812 14.5916C14.3034 15.0458 15.2913 15.5873 16.229 16.1971C17.2283 16.8471 18.0721 17.6832 19.0467 18.3613C19.1042 18.4013 19.1564 18.3144 19.1154 18.268C17.5218 16.4686 14.9822 15.1709 12.8174 14.2095C10.899 13.3576 8.91789 12.6003 6.83293 12.5219C4.56318 12.4365 2.22939 13.7952 1.91983 13.7679C1.76871 13.7546 1.74234 13.9937 1.88879 14.01V14.0101Z" fill="black" stroke="black" stroke-width="0.225"/>
<path d="M1.49914 13.9522C1.42267 14.0232 1.46912 14.1537 1.56375 14.1781C4.55352 14.952 6.90889 17.1353 9.86784 17.9965C12.3224 18.711 15.302 18.6448 17.5726 17.3702C17.6997 17.4879 17.9548 17.391 17.882 17.1974C16.648 13.9153 14.2595 10.9557 10.7122 10.1221C6.9324 9.23406 4.10745 11.5287 1.49926 13.9522H1.49914ZM10.6103 10.5226C14.0173 11.2886 16.3309 14.1655 17.5218 17.2962L17.5254 17.302C14.5516 18.2761 11.6462 18.5987 8.68999 17.2666C7.49844 16.7297 6.39672 16.015 5.24935 15.3934C4.93054 15.2207 2.02101 14.0736 2.01256 13.9194C1.99111 13.5328 3.39142 12.5917 3.67621 12.3686C4.30903 11.8728 4.97255 11.4171 5.69702 11.0647C7.24002 10.3142 8.94225 10.1474 10.6103 10.5225V10.5226Z" fill="black" stroke="black" stroke-width="0.225"/>
<path d="M13.0491 18.3147C14.291 18.1315 15.7666 17.3549 16.7563 16.6112C16.8337 16.5531 16.7674 16.4365 16.6787 16.4807C16.0704 16.7841 15.4878 17.1325 14.8702 17.4181C14.2576 17.7015 13.5957 17.8856 12.9993 18.1976C12.9296 18.234 12.983 18.3244 13.049 18.3147H13.0491Z" fill="black" stroke="black" stroke-width="0.225"/>
<path d="M9.95958 17.8053C9.92431 17.8178 9.93812 17.8702 9.97499 17.8617C11.7594 17.4519 13.4829 16.676 14.8441 15.4264C14.9212 15.3558 14.8165 15.2226 14.729 15.2815C13.2061 16.3073 11.7039 17.1928 9.95958 17.8054V17.8053Z" fill="black" stroke="black" stroke-width="0.225"/>
<path d="M7.46077 16.774C9.38763 16.4162 11.3697 15.723 12.796 14.3304C12.8105 14.3162 12.7914 14.294 12.7744 14.3032C11.0265 15.2561 9.39346 16.2054 7.4392 16.6952C7.38749 16.7082 7.40986 16.7834 7.46077 16.774Z" fill="black" stroke="black" stroke-width="0.225"/>
<path d="M5.57008 15.7437C7.2327 15.6397 9.34927 14.6491 10.6479 13.632C10.6995 13.5916 10.6547 13.5074 10.5941 13.5417C9.72492 14.0355 8.95901 14.5657 8.00831 14.9204C7.20416 15.2205 6.3611 15.3518 5.5541 15.629C5.49474 15.6493 5.50045 15.748 5.56996 15.7437H5.57008Z" fill="black" stroke="black" stroke-width="0.225"/>
<path d="M6.37485 14.1529C5.63908 14.4761 4.86233 14.6392 4.12336 14.9389C4.00557 14.9866 4.04849 15.1525 4.17587 15.1302C4.90126 15.0033 5.60998 14.6462 6.26665 14.3202C7.02171 13.9453 7.83613 13.5821 8.50455 13.066C8.59107 12.9992 8.51346 12.8546 8.41506 12.9155C7.72769 13.3412 7.12273 13.8242 6.37497 14.1527L6.37485 14.1529Z" fill="black" stroke="black" stroke-width="0.225"/>
<path d="M2.85198 14.5506C4.13336 14.3458 5.4499 13.4804 6.45824 12.7093C6.51634 12.6649 6.46532 12.5702 6.39855 12.6089C5.81755 12.9465 5.22526 13.2759 4.62361 13.5749C4.0239 13.8731 3.36837 14.071 2.79319 14.4123C2.71501 14.4586 2.77151 14.5635 2.85198 14.5506Z" fill="black" stroke="black" stroke-width="0.225"/>
<path d="M4.22098 11.8522C4.36012 11.9462 4.52449 11.9418 4.68806 11.9706C4.88016 12.0047 5.06964 12.0489 5.25593 12.1074C5.65029 12.2311 6.0482 12.3657 6.41723 12.5527C6.48423 12.5867 6.56584 12.4909 6.49964 12.4409C6.15538 12.1804 5.7972 11.9579 5.37612 11.85C5.06348 11.7699 4.51719 11.6077 4.21984 11.7814C4.1913 11.7982 4.1961 11.8355 4.22098 11.8523V11.8522Z" fill="black" stroke="black" stroke-width="0.225"/>
<path d="M5.92199 10.7985C6.34512 11.1431 6.84827 11.3655 7.27094 11.7236C7.69065 12.0792 8.05306 12.4893 8.43772 12.88C8.47105 12.9139 8.5223 12.8693 8.50107 12.8297C8.03217 11.9491 6.97463 10.9308 5.97678 10.6999C5.92359 10.6876 5.87462 10.76 5.92199 10.7986V10.7985Z" fill="black" stroke="black" stroke-width="0.225"/>
<path d="M9.48051 11.811C9.91517 12.319 10.2724 12.886 10.5847 13.4763C10.6271 13.5564 10.7455 13.4847 10.7052 13.4047C10.3946 12.7901 9.98594 12.2774 9.48873 11.8025C9.48313 11.7972 9.47583 11.8053 9.48062 11.811H9.48051Z" fill="black" stroke="black" stroke-width="0.225"/>
<path d="M7.34978 10.1923C7.95806 10.5935 8.57261 11.0159 9.14458 11.4694C9.15052 11.4741 9.15759 11.4667 9.15269 11.461C8.64509 10.8762 8.08179 10.4522 7.36679 10.1615C7.34613 10.1531 7.33061 10.1795 7.34978 10.1921V10.1923Z" fill="black" stroke="black" stroke-width="0.225"/>
<path d="M10.1082 10.2665C11.372 11.3281 12.1657 12.7018 12.7478 14.226C12.7585 14.2539 12.7987 14.2434 12.7929 14.2136C12.4674 12.554 11.4762 11.2347 10.1648 10.2076C10.1242 10.1758 10.0674 10.2323 10.1082 10.2665Z" fill="black" stroke="black" stroke-width="0.225"/>
<path d="M13.8277 11.8292C14.38 12.9799 14.8052 13.8993 14.8101 15.2146C14.8104 15.2986 14.9323 15.2949 14.9385 15.2137C15.0275 14.0554 14.7504 12.6244 13.9273 11.7501C13.8747 11.6942 13.7981 11.7676 13.8277 11.8292Z" fill="black" stroke="black" stroke-width="0.225"/>
<path d="M15.7891 13.7881C15.8711 14.2242 16.1555 14.6318 16.3028 15.0529C16.4536 15.484 16.5283 15.9338 16.6671 16.3678C16.6732 16.3867 16.7009 16.3831 16.7015 16.363C16.7178 15.8694 16.5907 15.3816 16.4546 14.9101C16.337 14.5025 16.2206 14.0216 15.9245 13.7077C15.8649 13.6444 15.7753 13.7149 15.7891 13.7881Z" fill="black" stroke="black" stroke-width="0.225"/>
<path d="M1.0405 14.8488C2.02191 15.1587 2.98655 15.3137 3.94067 15.7399C4.77838 16.1141 5.5638 16.5996 6.34637 17.0753C6.39409 17.1043 6.44899 17.0323 6.40516 16.9954C5.02493 15.8339 2.88256 14.814 1.05386 14.7381C0.987428 14.7354 0.981835 14.8304 1.0405 14.8489V14.8488Z" fill="black" stroke="black" stroke-width="0.225"/>
<path d="M7.27947 9.53794C8.20415 9.72651 9.20006 9.57287 10.1483 9.7434C11.1066 9.91576 11.9879 10.2842 12.9191 10.5439C12.9408 10.5499 12.9496 10.5207 12.9328 10.5093C12.1005 9.9443 11.0466 9.674 10.0671 9.50347C9.21524 9.35531 8.10553 9.1551 7.27867 9.45336C7.24055 9.46706 7.23336 9.52858 7.27947 9.53794Z" fill="black" stroke="black" stroke-width="0.225"/>
<path d="M6.33552 9.70951C6.33347 9.72058 6.33153 9.73165 6.32959 9.74272C6.32753 9.75962 6.32548 9.77651 6.32343 9.79352C6.32571 9.81064 6.32811 9.82776 6.3305 9.84488C6.33689 9.87205 6.34956 9.89545 6.36817 9.91531C6.37742 9.93083 6.38997 9.94293 6.40572 9.95172C6.41851 9.96382 6.43335 9.97215 6.45035 9.97649C6.46565 9.98494 6.48209 9.98905 6.49955 9.98905C6.51667 9.99338 6.53368 9.99316 6.55069 9.98859C6.57762 9.98722 6.60262 9.979 6.62579 9.96405C6.63983 9.95298 6.65387 9.94179 6.6678 9.93072C6.67807 9.91679 6.68834 9.90287 6.69862 9.88894C6.70489 9.87319 6.71106 9.85721 6.71734 9.84134C6.7195 9.82445 6.72156 9.80756 6.72361 9.79055C6.72122 9.77343 6.71882 9.75631 6.71654 9.73919C6.71015 9.71202 6.69759 9.68862 6.67887 9.66876C6.66962 9.65335 6.65707 9.64113 6.64132 9.63235C6.62168 9.61522 6.59885 9.60381 6.57283 9.59822C6.56221 9.59468 6.55149 9.59114 6.54087 9.5876C6.5193 9.58132 6.49784 9.58064 6.47638 9.58532C6.45366 9.58657 6.43255 9.59354 6.41303 9.60609C6.37707 9.62972 6.34363 9.66579 6.33575 9.70951H6.33552Z" fill="black" stroke="black" stroke-width="0.225"/>
<path d="M6.76233 17.3334C6.75422 17.3445 6.746 17.3557 6.7379 17.3667C6.72534 17.3897 6.71906 17.4143 6.71918 17.4405C6.71952 17.4675 6.72648 17.4928 6.7403 17.516C6.75422 17.5393 6.77294 17.5575 6.79657 17.5706C6.81951 17.5832 6.84417 17.5894 6.87042 17.5893C6.88412 17.5875 6.8977 17.5856 6.9114 17.5837C6.94187 17.5834 6.97018 17.5755 6.99643 17.56C7.02257 17.5444 7.04301 17.5232 7.05784 17.4966C7.08661 17.4446 7.08558 17.3798 7.05522 17.3286C7.02474 17.2775 6.96824 17.2458 6.90889 17.2461C6.87852 17.2464 6.8501 17.2543 6.82396 17.2698C6.79782 17.2855 6.77739 17.3067 6.76255 17.3332L6.76233 17.3334Z" fill="black" stroke="black" stroke-width="0.225"/>
<path d="M15.6039 3.7048C15.5966 3.72329 15.6235 3.73448 15.6356 3.72238C16.146 3.21432 16.6442 2.69463 17.2019 2.23839C17.6933 1.83638 18.2504 1.5033 18.7131 1.07138C18.7314 1.05415 18.7171 1.015 18.6902 1.01854C17.3099 1.19569 16.0929 2.46577 15.6039 3.7048Z" fill="black" stroke="black" stroke-width="0.225"/>
<path d="M21.4849 7.5403C21.4004 8.33611 21.7031 9.16879 21.671 9.98857C21.6321 10.9821 21.4102 11.9541 21.0383 12.8744C21.0149 12.9322 21.0967 12.982 21.1259 12.9228C21.5414 12.079 21.8256 11.1991 21.9264 10.2602C22.014 9.44445 22.1151 8.21569 21.6359 7.49807C21.5885 7.42718 21.4932 7.46143 21.4849 7.54018V7.5403Z" fill="black" stroke="black" stroke-width="0.225"/>
<path d="M21.2185 6.96844C21.4035 7.27948 21.8874 6.99241 21.702 6.68091C21.517 6.36975 21.0331 6.65683 21.2185 6.96844Z" fill="black" stroke="black" stroke-width="0.225"/>
</svg>
