<svg width="22" height="22" viewBox="0 0 22 22" fill="none" xmlns="http://www.w3.org/2000/svg">
<path d="M1.042 1.0382C0.914774 1.16543 1.00807 1.27569 2.30581 2.59039L3.62899 3.90509L3.45935 4.17651C3.25579 4.51579 3.0607 4.99926 2.94196 5.49121C2.77232 6.16977 2.82321 7.23001 3.05222 7.88312C3.14552 8.12909 3.14552 8.14606 2.99285 8.14606C2.78928 8.14606 2.77232 8.23936 2.81473 8.90095C2.94196 10.5549 3.42543 11.9969 4.34148 13.3794C5.15574 14.6178 6.48741 15.7883 7.84452 16.4753C8.59093 16.857 9.85473 17.2557 10.5163 17.332C10.6775 17.349 10.7962 17.3829 10.8132 17.4168C10.8556 17.5186 10.7369 18.0784 10.6096 18.4262C10.1516 19.69 8.86235 20.6315 7.59006 20.6315C7.45435 20.6315 7.32712 20.6569 7.29319 20.6824C7.22533 20.7502 7.22533 20.9029 7.29319 20.9623C7.36953 21.0386 16.4113 21.0386 16.4791 20.9623C16.5555 20.8859 16.5385 20.7248 16.4452 20.6739C16.3943 20.6484 16.2586 20.6315 16.1314 20.6315C15.8345 20.6315 15.2747 20.4958 14.9185 20.3346C14.2569 20.0377 13.6716 19.4779 13.3493 18.8333C13.1372 18.4177 13.0015 17.9427 12.9761 17.578C12.9591 17.3829 12.9676 17.3659 13.0694 17.3574C13.8667 17.2641 15.0457 16.9079 15.8769 16.5008C17.7429 15.5762 19.1425 14.1767 20.0585 12.3277C20.6353 11.1487 21 9.68977 21 8.51078C21 8.20543 20.9576 8.14606 20.7625 8.14606H20.6183L20.6862 7.9849C20.9321 7.41661 21.017 6.51753 20.8982 5.88986C20.6013 4.42249 19.5157 3.27743 18.0822 2.89574C17.2001 2.66673 16.089 2.83637 15.3086 3.31984L15.0966 3.45555L14.9693 3.29439C14.6979 2.94663 13.7904 2.09844 13.4087 1.82702C12.9676 1.51318 11.9837 0.987305 11.8395 0.987305C11.7038 0.987305 11.6699 1.07212 11.6275 1.46229C11.5511 2.07299 11.3051 2.58191 10.881 2.98904L10.686 3.17564L10.4994 3.00601C10.1007 2.64128 9.4476 2.26808 8.87931 2.06451C7.25078 1.51318 5.35083 1.98817 4.13791 3.28591L3.85801 3.58278L2.56027 2.28504C1.2795 1.00427 1.16923 0.910967 1.042 1.0382ZM13.5868 2.42923C13.9345 2.70066 14.2908 3.04842 14.5622 3.38769L14.7912 3.6676L14.5368 3.93902C14.2569 4.2274 14.0703 4.48186 13.8921 4.81266L13.7734 5.02471L13.7479 4.87203C13.7395 4.78721 13.7055 4.5582 13.6801 4.35463C13.5868 3.65063 13.2814 2.79396 12.8913 2.14933C12.7895 1.97969 12.7047 1.8355 12.7047 1.82702C12.7047 1.78461 13.3238 2.2087 13.5868 2.42923ZM12.798 2.80244C13.1118 3.42162 13.3493 4.31222 13.3493 4.82962V4.99926H12.781H12.2042L12.2891 4.71087C12.4841 4.02384 12.5435 3.03145 12.4332 2.29352L12.4078 2.12388L12.5011 2.25111C12.5435 2.31897 12.6792 2.56494 12.798 2.80244ZM8.57396 2.3529C9.04895 2.49709 9.61724 2.77699 10.0159 3.08234L10.3721 3.35376L10.2195 3.43858C9.99893 3.54885 9.60876 3.64215 9.36278 3.64215C8.57396 3.64215 7.92933 4.12562 7.66639 4.92292C7.64943 4.97381 7.56461 4.99926 7.32712 5.01622C6.86909 5.05015 6.40259 5.31309 6.18206 5.66933L6.08875 5.81353L5.12181 4.8381C4.58745 4.30374 4.14639 3.83724 4.14639 3.82027C4.14639 3.75242 4.72316 3.18413 4.97762 3.00601C5.46109 2.65825 6.00394 2.42075 6.61463 2.28504C7.03873 2.19174 8.15835 2.22567 8.57396 2.3529ZM12.0855 3.20957C12.0855 3.82875 12.0346 4.17651 11.865 4.72784L11.7886 4.97381L11.2458 4.99078L10.7029 5.00774L10.8556 4.80418C11.3645 4.1341 11.7801 3.2435 11.9498 2.46316L12.0007 2.21719L12.0431 2.41227C12.06 2.50557 12.077 2.86181 12.0855 3.20957ZM11.161 3.51492C10.9489 3.97295 10.6351 4.44793 10.3467 4.77025L10.1431 4.99926H9.12529H8.10746L8.1329 4.88051C8.20076 4.59213 8.42129 4.31222 8.67575 4.18499C8.79449 4.12562 8.99806 4.08321 9.29493 4.04928C10.0413 3.98143 10.5757 3.7609 11.0677 3.31984C11.2118 3.19261 11.3306 3.09931 11.3391 3.09931C11.3476 3.10779 11.2712 3.29439 11.161 3.51492ZM17.7345 3.20957C18.4809 3.32832 19.0661 3.63367 19.609 4.18499C20.3384 4.92292 20.6183 5.65237 20.5759 6.72109C20.5505 7.2809 20.4826 7.60322 20.296 7.97642L20.2197 8.12909L17.2425 8.14606L14.2653 8.15454L14.1636 7.92553C13.9176 7.3742 13.8073 6.50056 13.9006 5.94924C14.1127 4.78721 14.9609 3.7609 16.0381 3.37921C16.5979 3.17564 17.2001 3.11627 17.7345 3.20957ZM4.91825 5.19434C5.47806 5.75415 5.93608 6.22914 5.93608 6.25459C5.93608 6.28003 5.74948 6.32244 5.52895 6.34789C5.01155 6.40726 4.66379 6.56842 4.30755 6.89921C4.03613 7.16215 3.78167 7.6117 3.73078 7.90856C3.70533 8.04428 3.67989 8.06972 3.60355 8.06972C3.52721 8.06972 3.49328 8.02731 3.44239 7.88312C3.14552 7.08582 3.12856 6.0595 3.39998 5.19434C3.51025 4.8381 3.8156 4.19348 3.87497 4.19348C3.90042 4.18499 4.36692 4.64302 4.91825 5.19434ZM13.4341 5.40639L13.6292 5.43184L13.5529 5.72022C13.5104 5.88138 13.4765 6.07647 13.4765 6.16129L13.468 6.32244H9.89714H6.32625L6.36018 6.16977C6.42803 5.86442 6.70794 5.57603 7.06418 5.4488C7.19141 5.38943 13.0185 5.3555 13.4341 5.40639ZM13.485 7.00948C13.5104 7.23001 13.6038 7.6117 13.7564 8.0782C13.7819 8.15454 13.5274 8.15454 8.95565 8.15454H4.14639V8.01035C4.14639 7.49295 4.68075 6.89921 5.26601 6.78895C5.36779 6.7635 7.25078 6.74654 9.45608 6.74654L13.468 6.73806L13.485 7.00948ZM20.6353 8.73979C20.6353 9.04514 20.5165 9.90182 20.4147 10.3429C19.7362 13.2607 17.5394 15.6611 14.7064 16.6025C11.5426 17.6543 8.08201 16.8485 5.74948 14.516C4.27362 13.0401 3.40846 11.208 3.21338 9.10452C3.18793 8.84158 3.17097 8.61257 3.17097 8.57864C3.17097 8.53623 4.94369 8.52775 11.9074 8.52775H20.6438V8.73979H20.6353ZM12.6368 17.7137C12.7471 18.7485 13.4171 19.8172 14.3502 20.4109L14.6894 20.6315H11.8989H9.10832L9.4476 20.4109C9.6342 20.2922 9.93955 20.0377 10.1262 19.8426C10.7199 19.2319 11.0507 18.5364 11.1949 17.5865L11.2203 17.4253H11.9158H12.6114L12.6368 17.7137Z" fill="black" stroke="black" stroke-width="0.5"/>
</svg>
