<svg width="22" height="27" viewBox="0 0 22 27" fill="none" xmlns="http://www.w3.org/2000/svg">
<mask id="path-1-inside-1_165_2079" fill="white">
<path d="M13.1191 11.2557C11.529 9.32683 14.1017 8.10112 13.1709 4.9982C15.2395 7.11852 12.68 9.02915 13.1191 11.2557ZM11.6939 0C14.0691 2.99673 11.033 4.70335 11.6307 7.65376C9.73311 5.43989 12.8325 3.79533 11.6939 0Z"/>
</mask>
<path d="M13.1191 11.2557L12.3475 11.8918L14.1002 11.0622L13.1191 11.2557ZM13.1709 4.9982L13.8867 4.29988L12.2131 5.28554L13.1709 4.9982ZM11.6939 0L12.4776 -0.621145L10.7361 0.287351L11.6939 0ZM11.6307 7.65376L10.8715 8.30455L13.3744 11.2247L12.6108 7.45521L11.6307 7.65376ZM13.8907 10.6196C13.6277 10.3005 13.586 10.0856 13.5873 9.90755C13.589 9.66511 13.6698 9.3875 13.8414 8.89817C14.1717 7.95639 14.6949 6.59829 14.1287 4.71086L12.2131 5.28554C12.5777 6.50103 12.28 7.30725 11.9541 8.23627C11.7977 8.68233 11.5917 9.26673 11.5873 9.89357C11.5825 10.5848 11.8155 11.2464 12.3475 11.8918L13.8907 10.6196ZM12.4551 5.69652C12.8353 6.08626 12.9499 6.40294 12.98 6.66951C13.0139 6.96948 12.9533 7.31426 12.8035 7.78261C12.7287 8.01686 12.6431 8.24892 12.5463 8.51991C12.4531 8.78073 12.3526 9.06936 12.2693 9.36925C12.1022 9.97111 11.9861 10.679 12.138 11.4492L14.1002 11.0622C14.0326 10.7191 14.0718 10.3532 14.1964 9.90434C14.259 9.67887 14.3385 9.44791 14.4297 9.19285C14.5172 8.94796 14.6203 8.66786 14.7086 8.3916C14.8852 7.83894 15.0492 7.16935 14.9674 6.44516C14.8819 5.68757 14.5407 4.9703 13.8867 4.29988L12.4551 5.69652ZM10.9102 0.621145C11.4047 1.245 11.5686 1.73474 11.6064 2.1384C11.6459 2.56108 11.5578 2.99152 11.3796 3.52992C11.054 4.51329 10.2835 6.04005 10.6506 7.8523L12.6108 7.45521C12.3802 6.31706 12.829 5.51531 13.2782 4.15858C13.4873 3.52694 13.6756 2.78443 13.5977 1.95208C13.518 1.10072 13.1708 0.253362 12.4776 -0.621145L10.9102 0.621145ZM12.39 7.00297C12.064 6.62267 11.9971 6.33699 12.0001 6.0689C12.0039 5.73024 12.1178 5.34953 12.3244 4.74194C12.7224 3.57186 13.3201 1.94038 12.6518 -0.287351L10.7361 0.287351C11.2064 1.85495 10.8237 2.94341 10.431 4.09791C10.2423 4.65261 10.0083 5.33535 10.0002 6.0463C9.99139 6.82782 10.2486 7.57791 10.8715 8.30455L12.39 7.00297Z" fill="black" mask="url(#path-1-inside-1_165_2079)"/>
<path d="M20.0476 19.4194H14.5636H14.1636V19.0194V17.4461C14.1636 16.9242 14.4483 16.5143 14.7472 16.2036C14.9619 15.9806 15.2275 15.7673 15.4564 15.5835C15.5387 15.5174 15.6162 15.4552 15.6849 15.3977C15.8249 15.2804 15.9349 15.179 16.0137 15.086C16.0938 14.9915 16.1197 14.9311 16.1265 14.8989C16.1301 14.8822 16.1337 14.8587 16.1019 14.8065C16.0653 14.7464 15.984 14.6551 15.8157 14.5368C15.6728 14.4808 15.5227 14.3859 15.4336 14.2192C15.3268 14.0193 15.3606 13.8183 15.4132 13.6795C15.4646 13.5437 15.5505 13.4196 15.6328 13.3166C15.7182 13.2099 15.8186 13.1029 15.9183 13.0018C16.0006 12.9182 16.0797 12.841 16.1555 12.767C16.277 12.6483 16.3897 12.5382 16.4929 12.4245C16.5724 12.3369 16.628 12.2662 16.6619 12.2112C16.6762 12.188 16.6832 12.173 16.6864 12.1654V11.1306H11.5H11.1V10.7306V9.63897C11.091 9.63347 11.0746 9.62681 11.0506 9.62681H6.44943C6.42543 9.62681 6.409 9.63347 6.4 9.63897V10.7306V11.1306H6H5.71107V12.1654C5.71426 12.173 5.72128 12.188 5.73557 12.2112C5.76946 12.2662 5.825 12.3369 5.9045 12.4245C6.0077 12.5382 6.12047 12.6483 6.24198 12.767C6.31772 12.841 6.39685 12.9182 6.47917 13.0018C6.57887 13.1029 6.67927 13.2099 6.7646 13.3166C6.84697 13.4196 6.9328 13.5437 6.98426 13.6795C7.03688 13.8183 7.07067 14.0193 6.96386 14.2192C6.87474 14.3859 6.72465 14.4808 6.58169 14.5368C6.41336 14.6551 6.33211 14.7464 6.29551 14.8065C6.26369 14.8587 6.2673 14.8822 6.27084 14.8989C6.27763 14.9311 6.30351 14.9915 6.38368 15.086C6.46251 15.179 6.57248 15.2804 6.71252 15.3977C6.7812 15.4552 6.85872 15.5174 6.94099 15.5835C7.16987 15.7673 7.43555 15.9806 7.65018 16.2036C7.94912 16.5143 8.23386 16.9242 8.23386 17.4461V19.0194V19.4194H7.83386H1.91017C2.13313 19.7229 2.254 20.0668 2.3531 20.3488L2.36029 20.3692C2.49712 20.7583 2.60039 21.0378 2.79979 21.241C2.9768 21.4213 3.27856 21.5845 3.91379 21.5845H6.58217H7.0242L6.98019 22.0243C6.92504 22.5754 6.99389 22.7159 7.06185 22.7806C7.10462 22.8213 7.18966 22.8736 7.37244 22.9219C7.55501 22.9701 7.80231 23.0061 8.14091 23.0365C8.14092 23.0365 8.14094 23.0365 8.14095 23.0365L20.0476 19.4194ZM20.0476 19.4194C19.8094 19.7237 19.6728 20.0689 19.5607 20.3568L19.5512 20.3812C19.4026 20.763 19.2942 21.0417 19.1008 21.2466C18.9297 21.4278 18.6548 21.5845 18.0862 21.5845H15.6549H15.2129L15.2569 22.0243C15.3086 22.5408 15.2211 22.6867 15.1298 22.7624C15.0668 22.8146 14.9572 22.871 14.7585 22.9206C14.5607 22.9699 14.3026 23.0061 13.9642 23.0365M20.0476 19.4194L13.9642 23.0365M13.9642 23.0365C13.5374 23.0749 13.2051 23.432 13.2051 23.8651V26.3731H8.9L13.9642 23.0365Z" stroke="black" stroke-width="0.8"/>
<path d="M20.0476 19.4194H14.5636H14.1636V19.0194V17.4461C14.1636 16.9242 14.4483 16.5143 14.7472 16.2036C14.9619 15.9806 15.2275 15.7673 15.4564 15.5835C15.5387 15.5174 15.6162 15.4552 15.6849 15.3977C15.8249 15.2804 15.9349 15.179 16.0137 15.086C16.0938 14.9915 16.1197 14.9311 16.1265 14.8989C16.1301 14.8822 16.1337 14.8587 16.1019 14.8065C16.0653 14.7464 15.984 14.6551 15.8157 14.5368C15.6728 14.4808 15.5227 14.3859 15.4336 14.2192C15.3268 14.0193 15.3606 13.8183 15.4132 13.6795C15.4646 13.5437 15.5505 13.4196 15.6328 13.3166C15.7182 13.2099 15.8186 13.1029 15.9183 13.0018C16.0006 12.9182 16.0797 12.841 16.1555 12.767C16.277 12.6483 16.3897 12.5382 16.4929 12.4245C16.5724 12.3369 16.628 12.2662 16.6619 12.2112C16.6762 12.188 16.6832 12.173 16.6864 12.1654V11.1306H11.5H11.1V10.7306V9.63897C11.091 9.63347 11.0746 9.62681 11.0506 9.62681H6.44943C6.42543 9.62681 6.409 9.63347 6.4 9.63897V10.7306V11.1306H6H5.71107V12.1654C5.71426 12.173 5.72128 12.188 5.73557 12.2112C5.76946 12.2662 5.825 12.3369 5.9045 12.4245C6.0077 12.5382 6.12047 12.6483 6.24198 12.767C6.31772 12.841 6.39685 12.9182 6.47917 13.0018C6.57887 13.1029 6.67927 13.2099 6.7646 13.3166C6.84697 13.4196 6.9328 13.5437 6.98426 13.6795C7.03688 13.8183 7.07067 14.0193 6.96386 14.2192C6.87474 14.3859 6.72465 14.4808 6.58169 14.5368C6.41336 14.6551 6.33211 14.7464 6.29551 14.8065C6.26369 14.8587 6.2673 14.8822 6.27084 14.8989C6.27763 14.9311 6.30351 14.9915 6.38368 15.086C6.46251 15.179 6.57248 15.2804 6.71252 15.3977C6.7812 15.4552 6.85872 15.5174 6.94099 15.5835C7.16987 15.7673 7.43555 15.9806 7.65018 16.2036C7.94912 16.5143 8.23386 16.9242 8.23386 17.4461V19.0194V19.4194H7.83386H1.91017C2.13313 19.7229 2.254 20.0668 2.3531 20.3488L2.36029 20.3692C2.49712 20.7583 2.60039 21.0378 2.79979 21.241C2.9768 21.4213 3.27856 21.5845 3.91379 21.5845H6.58217H7.0242L6.98019 22.0243C6.92504 22.5754 6.99389 22.7159 7.06185 22.7806C7.10462 22.8213 7.18966 22.8736 7.37244 22.9219C7.55501 22.9701 7.80231 23.0061 8.14091 23.0365C8.14092 23.0365 8.14094 23.0365 8.14095 23.0365L20.0476 19.4194ZM20.0476 19.4194C19.8094 19.7237 19.6728 20.0689 19.5607 20.3568L19.5512 20.3812C19.4026 20.763 19.2942 21.0417 19.1008 21.2466C18.9297 21.4278 18.6548 21.5845 18.0862 21.5845H15.6549H15.2129L15.2569 22.0243C15.3086 22.5408 15.2211 22.6867 15.1298 22.7624C15.0668 22.8146 14.9572 22.871 14.7585 22.9206C14.5607 22.9699 14.3026 23.0061 13.9642 23.0365M20.0476 19.4194L13.9642 23.0365M13.9642 23.0365C13.5374 23.0749 13.2051 23.432 13.2051 23.8651V26.3731H8.9L13.9642 23.0365Z" stroke="black" stroke-width="0.8"/>
</svg>
