<svg width="23" height="36" viewBox="0 0 23 36" fill="none" xmlns="http://www.w3.org/2000/svg">
<path d="M2.11913 23.5493C1.50137 23.5493 1 23.0945 1 22.5367C1 21.9789 1.50265 21.5242 2.11913 21.5242C2.73561 21.5242 3.23826 21.9789 3.23826 22.5367C3.23826 23.0945 2.73561 23.5493 2.11913 23.5493ZM2.11913 21.7996C1.6702 21.7996 1.30568 22.1294 1.30568 22.5356C1.30568 22.9417 1.67148 23.2715 2.11913 23.2715C2.56678 23.2715 2.93258 22.9406 2.93258 22.5356C2.93258 22.1305 2.56678 21.7996 2.11913 21.7996Z" fill="black" stroke="black" stroke-width="0.4"/>
<path d="M4.2167 24.6347C4.17705 24.6347 4.13868 24.6208 4.10926 24.5942L2.66783 23.2901C2.60771 23.2357 2.60771 23.1489 2.66783 23.0945C2.72794 23.0401 2.82387 23.0401 2.88398 23.0945L4.32541 24.3987C4.38553 24.453 4.38553 24.5398 4.32541 24.5942C4.296 24.6208 4.25635 24.6347 4.21798 24.6347H4.2167Z" fill="black" stroke="black" stroke-width="0.4"/>
<path d="M11.9995 31.3012H11.6324C10.9711 29.8339 11.3446 28.5378 11.6644 27.8389H11.9995C12.8078 27.8389 13.4652 27.2441 13.4652 26.5127C13.4652 25.7814 12.8078 25.1866 11.9995 25.1866H11.3779C10.8458 24.7248 10.5337 24.2342 10.3572 23.8708C10.6808 23.6197 10.8727 23.2529 10.8727 22.8675C10.8727 22.2103 10.3316 21.6629 9.61285 21.5669C9.40437 20.9744 9.63587 20.4397 9.73563 20.2523H10.3623C11.154 20.2523 11.7974 19.6702 11.7974 18.9539C11.7974 18.2376 11.154 17.6555 10.3623 17.6555H9.59878C10.1321 17.1568 10.434 16.4983 10.434 15.7948C10.434 14.9465 9.9812 14.1377 9.22147 13.632C9.20271 13.6196 9.17031 13.5984 9.12426 13.5683V12.2618C9.47855 12.1646 9.73179 11.8684 9.73179 11.5259C9.73179 11.2678 9.58983 11.0398 9.37495 10.8998C9.58983 10.7598 9.73179 10.5318 9.73179 10.2738C9.73179 9.84677 9.34809 9.50076 8.87614 9.50076H8.32105V6.91096C8.74952 6.72696 9.09485 6.40526 9.29053 6.00835H10.9098C12.0621 6.00835 13.0137 5.19252 13.0751 4.14989C13.0777 4.10939 13.061 4.07004 13.0303 4.04111C12.9997 4.01218 12.9574 3.99482 12.9127 3.99482H9.47471V1.14696C9.47471 1.06596 9.40181 1 9.31228 1H5.62106C5.53153 1 5.45863 1.06596 5.45863 1.14696V3.99482H2.02066C1.9759 3.99482 1.93369 4.01102 1.90299 4.04111C1.87229 4.07004 1.85567 4.10939 1.85823 4.14989C1.91962 5.19137 2.8712 6.00835 4.02359 6.00835H5.64281C5.8385 6.40526 6.18383 6.72696 6.61229 6.91096V9.50076H6.06872C5.59676 9.50076 5.21434 9.84793 5.21434 10.2738C5.21434 10.5318 5.35631 10.7598 5.57119 10.8998C5.35631 11.041 5.21434 11.2678 5.21434 11.5259C5.21434 11.8603 5.45863 12.1542 5.8078 12.2584V13.5729C5.76261 13.5953 5.73063 13.6127 5.71188 13.625C4.94703 14.1307 4.49043 14.9419 4.49043 15.7948C4.49043 16.4995 4.79227 17.1579 5.32561 17.6555H4.56205C3.77035 17.6555 3.127 18.2388 3.127 18.9539C3.127 19.669 3.77035 20.2523 4.56205 20.2523H5.19771C5.29748 20.4397 5.52898 20.9732 5.32178 21.5657C4.60809 21.6583 4.06195 22.2068 4.06195 22.8675C4.06195 23.254 4.25253 23.6197 4.5774 23.8708C4.40089 24.2342 4.08754 24.726 3.55547 25.1889C3.00038 25.1958 2.49006 25.4921 2.25216 25.9503C2.15752 26.132 2.1102 26.3206 2.1102 26.5127C2.1102 26.7048 2.15879 26.8934 2.25472 27.0763C2.44657 27.4408 2.80725 27.7046 3.25235 27.7995C3.58233 28.5008 3.9801 29.8281 3.28944 31.3313C2.83795 31.4123 2.45553 31.6819 2.25344 32.0638C2.15752 32.2466 2.10892 32.4352 2.10892 32.6262C2.10892 33.3575 2.76632 33.9523 3.57465 33.9523H3.74476L4.07219 34.7751C4.09521 34.8341 4.1566 34.8723 4.22567 34.8723H10.7102C10.7793 34.8723 10.8407 34.833 10.8637 34.7751L11.1911 33.9523H12.0007C12.8091 33.9523 13.4665 33.3575 13.4665 32.6262C13.4665 31.8948 12.8091 31.3 12.0007 31.3L11.9995 31.3012ZM6.13395 13.3947V12.3H8.80068V13.3982C7.97828 13.0233 6.96018 13.0221 6.13395 13.3947ZM5.78478 3.22182H6.77601C6.86554 3.22182 6.93845 3.15586 6.93845 3.07485C6.93845 2.99385 6.86554 2.92789 6.77601 2.92789H5.78478V2.06231H6.77601C6.86554 2.06231 6.93845 1.99635 6.93845 1.91534C6.93845 1.83434 6.86554 1.76838 6.77601 1.76838H5.78478V1.29624H9.14985V3.99714H5.78478V3.22413V3.22182ZM2.201 4.28991H12.7336C12.6019 5.09995 11.8319 5.71442 10.911 5.71442H4.02359C3.1027 5.71442 2.33274 5.09995 2.201 4.28991ZM6.00349 6.00835H8.93241C8.74696 6.31153 8.45278 6.55107 8.0985 6.68183C7.69177 6.83111 7.24412 6.83111 6.8374 6.68183C6.48439 6.55223 6.18894 6.31269 6.00349 6.00835ZM6.93845 7.02321C6.95124 7.02668 6.96403 7.02784 6.97682 7.03015C7.03949 7.04404 7.10215 7.05677 7.16483 7.06487C7.18529 7.06834 7.20575 7.07065 7.2275 7.07297C7.30679 7.08223 7.38737 7.08801 7.46795 7.08801C7.54853 7.08801 7.62783 7.08223 7.7084 7.07297C7.72887 7.07065 7.74933 7.06718 7.77107 7.06487C7.83374 7.05561 7.89642 7.04404 7.95909 7.03015C7.97188 7.02668 7.98467 7.02668 7.99746 7.02321V9.50076H6.93972V7.02321H6.93845ZM5.54049 10.2738C5.54049 10.0099 5.77838 9.79469 6.07 9.79469H8.8787C9.17031 9.79469 9.40821 10.0099 9.40821 10.2738C9.40821 10.5376 9.17031 10.7529 8.8787 10.7529H6.07C5.77838 10.7529 5.54049 10.5376 5.54049 10.2738ZM5.54049 11.5259C5.54049 11.262 5.77838 11.0468 6.07 11.0468H8.8787C9.17031 11.0468 9.40821 11.262 9.40821 11.5259C9.40821 11.7654 9.20868 11.9679 8.92218 12.0003C8.90811 12.0026 8.89405 12.0049 8.8787 12.0049H6.07C6.04825 12.0049 6.02651 12.0015 5.99454 11.998C5.73618 11.9644 5.54049 11.7619 5.54049 11.527V11.5259ZM4.81785 15.7948C4.81785 15.1004 5.15807 14.4362 5.73874 13.9826C5.98303 13.8009 6.12115 13.7187 6.37184 13.6134C7.05739 13.3322 7.87851 13.3346 8.5615 13.6158C8.55894 13.6192 8.86079 13.7754 9.19077 13.9849C9.77656 14.4408 10.1091 15.09 10.1091 15.7948C10.1091 16.4995 9.75098 17.1973 9.12298 17.6555H5.80396C5.17597 17.1973 4.81785 16.5226 4.81785 15.7948ZM3.45443 18.9539C3.45443 18.4008 3.95197 17.9506 4.56333 17.9506H10.3636C10.975 17.9506 11.4725 18.4008 11.4725 18.9539C11.4725 19.507 10.975 19.9572 10.3636 19.9572H4.56333C3.95197 19.9572 3.45443 19.507 3.45443 18.9539ZM9.38007 20.2523C9.25984 20.5207 9.11275 21.0033 9.26751 21.5483H5.66967C5.82443 21.0021 5.67862 20.5207 5.55711 20.2523H9.38135H9.38007ZM4.40089 23.0145H6.46521C6.55474 23.0145 6.62764 22.9485 6.62764 22.8675C6.62764 22.7865 6.55474 22.7206 6.46521 22.7206H4.40089C4.47636 22.2484 4.9125 21.8747 5.4484 21.8446H9.48238C10.081 21.8793 10.5491 22.3283 10.5491 22.8687C10.5491 23.1846 10.3854 23.4855 10.1078 23.6811H4.83192C4.59786 23.5167 4.44438 23.2772 4.40217 23.0157L4.40089 23.0145ZM4.88435 23.9738H10.0515C10.2127 24.3094 10.4838 24.7515 10.9213 25.1866H4.01335C4.45205 24.7515 4.72193 24.3094 4.88308 23.9738H4.88435ZM2.6947 27.1607H5.12098C5.21051 27.1607 5.28341 27.0948 5.28341 27.0138C5.28341 26.9328 5.21051 26.8668 5.12098 26.8668H2.50797C2.45936 26.7511 2.43378 26.6319 2.43378 26.5139C2.43378 26.3958 2.45808 26.2778 2.50541 26.1621H4.77564C4.86517 26.1621 4.93808 26.0961 4.93808 26.0151C4.93808 25.9341 4.86517 25.8681 4.77564 25.8681H2.69086C2.90446 25.6298 3.22932 25.484 3.57337 25.484H11.9995C12.6275 25.484 13.1391 25.9468 13.1391 26.515C13.1391 27.0832 12.6275 27.5461 11.9995 27.5461H11.6362C11.6132 27.5345 11.5851 27.5276 11.5569 27.5276H3.38025C3.10782 27.4848 2.86481 27.354 2.69342 27.1619L2.6947 27.1607ZM3.61303 27.8203H11.3229C11.0006 28.5656 10.6706 29.8559 11.2896 31.3162H3.64628C4.26404 29.8593 3.9379 28.5725 3.61303 27.8203ZM10.5964 34.5784H4.34078L4.09138 33.9523H10.8458L10.5964 34.5784ZM12.0007 33.6584H3.57465C3.17944 33.6584 2.83027 33.4756 2.62563 33.1978H6.54067C6.6302 33.1978 6.70311 33.1319 6.70311 33.0509C6.70311 32.9699 6.6302 32.9039 6.54067 32.9039H2.47727C2.45041 32.816 2.43506 32.7234 2.43506 32.6285C2.43506 32.5105 2.45936 32.3936 2.50797 32.2767H4.34718C4.43671 32.2767 4.50961 32.2107 4.50961 32.1297C4.50961 32.0487 4.43671 31.9828 4.34718 31.9828H2.69342C2.87376 31.7803 3.12956 31.6472 3.40327 31.6125H11.525C11.5505 31.6125 11.5761 31.6067 11.5979 31.5974H12.0007C12.6287 31.5974 13.1403 32.0603 13.1403 32.6285C13.1403 33.1967 12.6287 33.6596 12.0007 33.6596V33.6584Z" fill="black" stroke="black" stroke-width="0.4"/>
<path d="M18.58 11.718V15.1861C18.58 15.4176 18.4111 15.6108 18.1796 15.6779V15.9649C18.5812 15.892 18.8856 15.5703 18.8856 15.1861V11.718C18.8856 11.3327 18.5825 11.0121 18.1796 10.9392V11.2262C18.4111 11.2933 18.58 11.4866 18.58 11.718Z" fill="black" stroke="black" stroke-width="0.4"/>
<path d="M17.4352 15.1862V11.7181C17.4352 11.4739 17.6232 11.2702 17.8752 11.2158V10.9358C17.4544 10.9948 17.1295 11.3211 17.1295 11.7181V15.1862C17.1295 15.5831 17.4544 15.9106 17.8752 15.9684V15.6884C17.6232 15.634 17.4352 15.4303 17.4352 15.1862Z" fill="black" stroke="black" stroke-width="0.4"/>
<path d="M20.0138 18.3232H18.1809V15.9648C18.1247 15.9753 18.0671 15.981 18.0083 15.981C17.9622 15.981 17.9187 15.9753 17.8753 15.9683V18.3221H16.806C15.7112 18.3221 14.8197 19.1275 14.8197 20.1192V22.8143C14.8197 23.6521 14.0664 24.3348 13.1391 24.3348H10.5466C10.4621 24.3348 10.3943 24.3962 10.3943 24.4726C10.3943 24.5489 10.4621 24.6103 10.5466 24.6103H13.1391C14.2339 24.6103 15.1254 23.8049 15.1254 22.8131V20.118C15.1254 19.2791 15.8787 18.5975 16.806 18.5975H17.8753V27.8018C17.8753 28.7924 18.7667 29.5989 19.8616 29.5989H20.0138C21.1086 29.5989 22.0001 28.7924 22.0001 27.8018V20.1169C22.0001 19.1263 21.1099 18.3197 20.0138 18.3197V18.3232ZM21.6944 27.8041C21.6944 28.6419 20.941 29.3247 20.0138 29.3247H19.8616C18.9356 29.3247 18.1809 28.6431 18.1809 27.8041V18.5998H20.0138C20.9398 18.5998 21.6944 19.2814 21.6944 20.1203V27.8053V27.8041Z" fill="black" stroke="black" stroke-width="0.4"/>
<path d="M18.1796 10.9393V10.1663C18.1796 10.0899 18.1118 10.0286 18.0274 10.0286C17.943 10.0286 17.8752 10.0899 17.8752 10.1663V10.9358C17.9187 10.93 17.9622 10.9231 18.0082 10.9231C18.067 10.9231 18.1246 10.9289 18.1809 10.9393H18.1796Z" fill="black" stroke="black" stroke-width="0.4"/>
<path d="M18.1796 15.9662V15.6792C18.1246 15.6954 18.067 15.7058 18.0069 15.7058C17.9609 15.7058 17.9174 15.7 17.8739 15.6908V15.9708C17.9174 15.9766 17.9609 15.9835 18.0069 15.9835C18.0657 15.9835 18.1233 15.9778 18.1796 15.9673V15.9662Z" fill="black" stroke="black" stroke-width="0.4"/>
<path d="M18.0069 11.2009C18.067 11.2009 18.1246 11.2113 18.1796 11.2275V10.9405C18.1233 10.9301 18.0657 10.9243 18.0069 10.9243C17.9609 10.9243 17.9174 10.9301 17.8739 10.937V11.2171C17.9161 11.2078 17.9609 11.202 18.0069 11.202V11.2009Z" fill="black" stroke="black" stroke-width="0.4"/>
</svg>
