<svg width="15" height="23" viewBox="0 0 15 23" fill="none" xmlns="http://www.w3.org/2000/svg">
<path d="M7.50469 15.7588C3.36773 15.7588 0 12.3911 0 8.26348C0 4.12652 3.36773 0.758789 7.50469 0.758789C11.6417 0.758789 15 4.12652 15 8.26348C15 12.3911 11.6417 15.7588 7.50469 15.7588ZM7.50469 1.66873C3.8743 1.66873 0.909944 4.6237 0.909944 8.26348C0.909944 11.9033 3.86492 14.8582 7.50469 14.8582C11.1351 14.8582 14.0994 11.9033 14.0994 8.26348C14.0994 4.6237 11.1445 1.66873 7.50469 1.66873Z" fill="black"/>
<path d="M12.9362 8.13206C12.7955 8.13206 12.6736 8.01011 12.6736 7.8694C12.6736 5.67428 11.2664 3.76996 9.1745 3.12268C8.70546 2.98197 8.21766 2.90692 7.71109 2.90692C7.57038 2.90692 7.44843 2.78497 7.44843 2.64426C7.44843 2.50354 7.57038 2.38159 7.71109 2.38159C8.26456 2.38159 8.80865 2.46602 9.3246 2.62549C11.6417 3.33844 13.1989 5.44913 13.1989 7.8694C13.1895 8.01949 13.0769 8.13206 12.9362 8.13206Z" fill="black"/>
<path d="M10.1032 12.9538C10.0281 12.9538 9.96246 12.9351 9.88741 12.8975L7.32643 11.5467L4.75608 12.8975C4.60598 12.982 4.41837 12.9632 4.27765 12.86C4.13694 12.7568 4.07127 12.588 4.09942 12.4191L4.58722 9.55794L2.50467 7.54106C2.38272 7.41911 2.33582 7.24087 2.3921 7.07202C2.44839 6.90316 2.5891 6.79059 2.75795 6.76245L5.6285 6.34031L6.91368 3.74181C6.98872 3.58233 7.1482 3.48853 7.31705 3.48853C7.49529 3.48853 7.64538 3.58233 7.72043 3.74181L9.00561 6.34031L11.8762 6.76245C12.045 6.79059 12.1857 6.90316 12.242 7.07202C12.2983 7.24087 12.2514 7.41911 12.1294 7.54106L10.0469 9.56732L10.5347 12.4285C10.5628 12.5973 10.4972 12.7662 10.3565 12.8694C10.2908 12.9257 10.197 12.9538 10.1032 12.9538ZM7.32643 10.5898C7.40148 10.5898 7.46715 10.6086 7.54219 10.6461L9.51217 11.678L9.13694 9.49228C9.1088 9.34218 9.1557 9.19209 9.26827 9.0889L10.863 7.54106L8.6679 7.22211C8.5178 7.20335 8.39585 7.10954 8.33019 6.97821L7.3452 4.98946L6.36021 6.97821C6.29454 7.10954 6.16321 7.20335 6.02249 7.22211L3.82737 7.54106L5.42212 9.0889C5.52531 9.19209 5.58159 9.34218 5.55345 9.49228L5.17822 11.678L7.1482 10.6461C7.17634 10.5992 7.25139 10.5898 7.32643 10.5898Z" fill="black"/>
<path d="M12.5611 22.8976C12.4954 22.8976 12.4203 22.8788 12.3641 22.8507L7.57982 20.4867L2.79558 22.785C2.65486 22.8507 2.48601 22.8413 2.35468 22.7569C2.22334 22.6725 2.13892 22.5317 2.13892 22.3723V13.4605C2.13892 13.2916 2.23272 13.1321 2.3922 13.0571C2.54229 12.982 2.72991 12.9914 2.87062 13.0946C4.49351 14.3047 6.12578 14.9145 7.72053 14.9145C10.4785 14.9145 12.2233 13.0758 12.2421 13.0571C12.3641 12.9257 12.5704 12.8788 12.7393 12.9445C12.9175 13.0102 13.0301 13.179 13.0301 13.3666V22.4379C13.0301 22.5974 12.9457 22.7381 12.8143 22.8226C12.7299 22.8788 12.6455 22.8976 12.5611 22.8976ZM7.57982 19.5299C7.64548 19.5299 7.72053 19.5486 7.77681 19.5768L12.1108 21.7156V14.3516C11.2477 14.9802 9.72803 15.8244 7.71115 15.8244C6.16331 15.8244 4.5967 15.3272 3.04886 14.3329V21.6593L7.38282 19.5768C7.44848 19.5486 7.51415 19.5299 7.57982 19.5299Z" fill="black"/>
<path d="M4.69985 21.7812C4.44657 21.7812 4.24957 21.5748 4.24957 21.3309V14.783C4.24957 14.5298 4.45595 14.3328 4.69985 14.3328C4.94376 14.3328 5.15014 14.5391 5.15014 14.783V21.3309C5.15952 21.5748 4.95314 21.7812 4.69985 21.7812Z" fill="black"/>
<path d="M10.4222 21.8468C10.1689 21.8468 9.97192 21.6405 9.97192 21.3966V14.8487C9.97192 14.5954 10.1783 14.3984 10.4222 14.3984C10.6755 14.3984 10.8725 14.6048 10.8725 14.8487V21.3966C10.8725 21.6405 10.6755 21.8468 10.4222 21.8468Z" fill="black"/>
</svg>
