<svg width="18" height="25" viewBox="0 0 18 25" fill="none" xmlns="http://www.w3.org/2000/svg">
<path d="M0.0233827 1.58282C0.0404726 1.35655 0.237688 1.18692 0.464006 1.20406C0.690226 1.22115 0.859854 1.41841 0.842764 1.64468C0.755118 2.80513 0.879288 4.4977 1.96864 5.97114C3.05951 7.44667 4.60672 7.96 5.43797 8.23583C6.66892 8.64418 7.7989 8.75058 8.84699 8.72308C8.75515 8.52489 8.70349 8.30434 8.70349 8.07187C8.70349 7.34809 9.20085 6.73828 9.8717 6.56621V6.03051H7.67795C6.84724 6.03051 6.17146 5.35468 6.17146 4.52402V4.08579C6.17146 3.85884 6.3554 3.67495 6.5823 3.67495H8.58176L7.75964 1.02315C7.68459 0.781063 7.72776 0.525155 7.87815 0.321152C8.02854 0.117148 8.26013 0.000156364 8.5136 0.000156364H10.6934C10.9203 0.000156364 11.1043 0.184043 11.1043 0.410995C11.1043 0.637948 10.9203 0.821834 10.6934 0.821834H8.55749L9.44201 3.675H11.136L12.3464 0.273154C12.4224 0.0593847 12.6575 -0.0520408 12.8712 0.0237891C13.085 0.0998632 13.1966 0.334872 13.1206 0.548641L12.0081 3.6749H13.9503C14.1772 3.6749 14.3611 3.85879 14.3611 4.08574V4.52397C14.3611 5.35464 13.6854 6.03046 12.8547 6.03046H10.6933V6.58027C11.3387 6.76913 11.8117 7.36615 11.8117 8.07187C11.8117 8.18627 11.799 8.2977 11.7754 8.40512C13.4069 8.17489 14.8257 8.06317 15.996 9.14598C16.3145 9.44076 17.0663 10.2543 17.1672 11.4396C17.174 11.5199 17.3167 13.4165 15.7814 14.4452C15.1698 14.855 14.5357 14.9686 14.0206 14.9686C13.8149 14.9686 13.6284 14.9505 13.4697 14.9259C13.3505 15.2688 13.1108 15.5556 12.8014 15.7356C14.3211 16.5793 15.3521 18.2007 15.3521 20.0587C15.3521 20.9783 15.0959 21.8715 14.621 22.6444H15.7768C16.8375 22.6444 17.7004 23.5074 17.7004 24.5681V24.5892C17.7004 24.8161 17.5165 25 17.2896 25H3.24295C3.01605 25 2.83212 24.8161 2.83212 24.5892V24.5681C2.83212 23.5074 3.695 22.6444 4.75574 22.6444H13.6178C14.2075 21.9137 14.5304 21.0026 14.5304 20.0587C14.5304 17.7872 12.6823 15.9391 10.4108 15.9391C8.13928 15.9391 6.29119 17.7872 6.29119 20.0587C6.29119 20.4913 6.35779 20.9171 6.48924 21.3245C6.55886 21.5404 6.44026 21.7719 6.2243 21.8416C6.00828 21.9112 5.77684 21.7926 5.70716 21.5766C5.54949 21.0877 5.46951 20.5769 5.46951 20.0587C5.46951 18.2564 6.43953 16.6767 7.88469 15.8135C7.35252 15.5808 6.97947 15.0496 6.97947 14.4326C6.97947 13.7546 7.42976 13.18 8.04695 12.9916C8.15203 12.3138 8.56145 11.7356 9.13054 11.4005C8.88078 11.1246 8.72844 10.7591 8.72844 10.3585C8.72844 10.0582 8.81428 9.77772 8.96242 9.53978C7.81497 9.57714 6.54964 9.47035 5.17933 9.01576C4.32703 8.733 2.55365 8.14457 1.308 6.45971C0.00306981 4.69473 -0.0569882 2.64654 0.0233827 1.58282ZM13.8135 23.466C13.8118 23.466 13.8101 23.4663 13.8083 23.4663C13.8063 23.4663 13.8043 23.4661 13.8022 23.466H4.75565C4.28524 23.466 3.8827 23.7623 3.72494 24.1782H16.8075C16.6498 23.7624 16.2472 23.466 15.7768 23.466H13.8135ZM12.8547 5.20879C13.2322 5.20879 13.5395 4.90156 13.5395 4.52402V4.49663H11.4258H9.13923H6.99314V4.52402C6.99314 4.90161 7.30032 5.20879 7.6779 5.20879H12.8547ZM10.3598 7.34731C10.3347 7.35209 10.309 7.35483 10.2825 7.35483C10.2492 7.35483 10.217 7.35043 10.1859 7.34296C9.81559 7.37909 9.52512 7.69208 9.52512 8.07182C9.52512 8.31371 9.64357 8.52797 9.82487 8.66142C10.1646 8.62875 10.4954 8.5869 10.8182 8.54223C10.9252 8.41488 10.99 8.25082 10.99 8.07182C10.9901 7.70268 10.7153 7.39731 10.3598 7.34731ZM10.2825 9.62592C9.87858 9.62592 9.55002 9.95448 9.55002 10.3584C9.55002 10.7622 9.87858 11.0908 10.2825 11.0908C10.6863 11.0909 11.0149 10.7622 11.0149 10.3584C11.0149 9.95453 10.6863 9.62592 10.2825 9.62592ZM13.5155 14.0993C13.9094 14.1711 14.6474 14.2158 15.3239 13.7625C16.4613 13.0003 16.3497 11.524 16.3484 11.5091C16.272 10.6101 15.6862 9.97865 15.4379 9.74896C14.46 8.84403 13.2139 9.02543 11.4893 9.27631C11.4623 9.28026 11.435 9.28422 11.4078 9.28812C11.6733 9.56708 11.8366 9.94388 11.8366 10.3584C11.8366 10.7649 11.6796 11.1353 11.4232 11.4125C11.9814 11.7493 12.3819 12.3219 12.4857 12.9914C12.9986 13.148 13.3959 13.5715 13.5155 14.0993ZM8.48591 13.7478C8.10832 13.7478 7.80115 14.055 7.80115 14.4325C7.80115 14.8101 8.10832 15.1173 8.48591 15.1173H12.0467C12.4243 15.1173 12.7315 14.8101 12.7315 14.4325C12.7315 14.055 12.4243 13.7478 12.0467 13.7478H8.48591ZM8.90261 12.9261H11.6299C11.4531 12.3403 10.9088 11.9126 10.2663 11.9126C9.62375 11.9126 9.07946 12.3404 8.90261 12.9261Z" fill="black"/>
</svg>
