<svg width="26" height="18" viewBox="0 0 26 18" fill="none" xmlns="http://www.w3.org/2000/svg">
<path d="M23.5093 13.4008C23.5498 13.3148 23.5893 13.2288 23.6282 13.1422C23.7788 12.8064 23.918 12.4656 24.0456 12.1205C24.0785 12.0317 24.1108 11.9424 24.142 11.8531C24.571 10.6292 24.8564 9.35496 24.9852 8.06753L25 7.91742L22.9949 7.83798L22.7138 7.82702L22.6903 7.82593C22.4125 7.81497 22.132 7.80401 21.8499 7.80347C21.7507 7.80347 21.6521 7.80456 21.5529 7.80785C21.3458 7.81442 21.1393 7.82867 20.9333 7.85496C20.8139 7.8703 20.6945 7.89003 20.5756 7.91413C20.483 7.93331 20.391 7.95522 20.2995 7.98042C20.0809 8.04123 19.8656 8.11793 19.6508 8.21161C19.4914 8.28174 19.332 8.36063 19.1725 8.44992C18.9863 8.55401 18.8 8.67125 18.6121 8.80274C18.5442 8.84985 18.4779 8.89861 18.4116 8.94791C18.2182 9.09255 18.0325 9.2443 17.8555 9.3966C17.6112 9.60752 17.3838 9.82063 17.1784 10.0179C17.0979 10.0951 17.0179 10.1729 16.9395 10.2507C16.8256 10.3635 16.7149 10.4764 16.6064 10.5898C16.1972 11.0166 15.8285 11.4428 15.514 11.8526C15.4324 11.9589 15.3546 12.0646 15.2801 12.1681C15.1327 12.3752 14.9541 12.6333 14.7646 12.9236C14.5405 13.2671 14.3011 13.6561 14.0787 14.0604C13.6152 14.9035 13.3413 15.6075 13.2635 16.1537C13.2624 16.1625 13.2613 16.1712 13.2602 16.1795L13.2427 16.312C13.2427 16.312 14.9832 17.1146 15.7874 17.3316C16.4722 17.5168 17.1548 17.6176 17.815 17.6318C17.9076 17.634 17.9974 17.634 18.0851 17.6329C18.4308 17.628 18.7408 17.6 19.0126 17.5595C19.6371 17.4663 20.0617 17.3091 20.2589 17.2237C20.2825 17.2132 20.306 17.2028 20.3301 17.1919C20.4682 17.1283 20.6079 17.0527 20.747 16.9673C21.0237 16.7969 21.2993 16.5843 21.5617 16.3389C21.6329 16.272 21.703 16.203 21.7721 16.1323C21.8526 16.0496 21.9309 15.9636 22.0071 15.876C22.2284 15.6207 22.4317 15.3462 22.6075 15.063C22.6338 15.0202 22.6601 14.9775 22.6864 14.9342C22.739 14.8477 22.7905 14.7611 22.8415 14.6734C23.0825 14.2593 23.3049 13.8341 23.5087 13.3997L23.5093 13.4008ZM22.5484 14.6137C22.5045 14.6028 22.4602 14.5913 22.4158 14.5781C21.5694 14.3354 20.8725 13.8309 20.3345 13.0737C20.523 12.9116 20.712 12.7428 20.9015 12.5692C20.9711 12.5056 21.0407 12.441 21.1108 12.3758C21.2653 12.2311 21.4203 12.0832 21.5759 11.9315C21.788 12.2191 22.023 12.4727 22.2805 12.6902C22.4607 12.8425 22.6514 12.9773 22.8519 13.0945C22.9795 13.1691 23.1104 13.2359 23.2458 13.2956C23.0343 13.7459 22.8015 14.1859 22.5489 14.6137H22.5484ZM23.3636 13.0381C22.7385 12.7647 22.2093 12.3276 21.7792 11.731C21.8893 11.6219 21.9989 11.5107 22.1095 11.3979C22.1769 11.3288 22.2443 11.2598 22.3111 11.1897C22.3999 11.0971 22.4892 11.0034 22.5779 10.9086C22.7719 11.1596 22.9844 11.3831 23.2145 11.5781C23.3948 11.7304 23.5854 11.8652 23.7859 11.9824C23.7881 11.9835 23.7903 11.9846 23.7925 11.9863C23.6616 12.3418 23.5186 12.693 23.3636 13.0387V13.0381ZM22.773 10.6994C22.9417 10.5169 23.1115 10.3301 23.2808 10.1395C23.3471 10.065 23.4134 9.98991 23.4797 9.91431C23.867 9.47275 24.2554 9.01037 24.6455 8.52772C24.5031 9.61135 24.2478 10.6813 23.8889 11.7156C23.4655 11.4625 23.0929 11.1234 22.773 10.6994ZM24.5579 8.18422C24.1415 8.70412 23.7361 9.18897 23.3411 9.64149C23.2715 9.49028 23.2052 9.32264 23.1499 9.13911C23.048 8.80219 22.9943 8.46307 22.9883 8.12231L24.5579 8.18422ZM22.6787 8.10971L22.7067 8.11081C22.7111 8.48553 22.768 8.85697 22.8782 9.22074C22.9521 9.46508 23.0431 9.68367 23.1367 9.87322C22.9571 10.0759 22.7796 10.2721 22.6048 10.4616C22.5385 10.5334 22.4728 10.604 22.407 10.6736C22.3227 10.764 22.2383 10.8522 22.155 10.9393C22.0301 10.7207 21.9003 10.4463 21.8027 10.1241C21.5995 9.45303 21.5874 8.77206 21.7649 8.0878C22.0706 8.08561 22.3763 8.09766 22.6782 8.10971H22.6787ZM21.474 8.09492C21.4406 8.23517 21.4143 8.37542 21.3957 8.51566C21.3196 9.08652 21.365 9.65518 21.5316 10.2063C21.6472 10.5882 21.8038 10.9065 21.9501 11.1513C21.8378 11.2664 21.7266 11.3792 21.6159 11.4888C21.5469 11.5573 21.4784 11.6252 21.4105 11.6915C21.2516 11.8466 21.0955 11.9961 20.9415 12.1402C20.7821 11.8997 20.5893 11.5491 20.4561 11.1097C20.1636 10.1433 20.2671 9.1561 20.7629 8.16724C20.9974 8.1267 21.2346 8.10478 21.4735 8.09437L21.474 8.09492ZM20.3751 8.25434C20.3882 8.25051 20.4008 8.24722 20.414 8.24393C20.2271 8.66194 20.1044 9.08214 20.0485 9.50178C19.9724 10.0726 20.0179 10.6413 20.1844 11.1924C20.3345 11.6882 20.5537 12.0767 20.7301 12.3363C20.5411 12.51 20.3553 12.6749 20.1735 12.8321C20.1006 12.8951 20.0283 12.957 19.9565 13.0179C19.8508 13.1071 19.7467 13.1937 19.6437 13.2775C19.4678 13.0529 19.1539 12.5911 18.9605 11.9512C18.6335 10.8708 18.7748 9.76585 19.3796 8.66084C19.6914 8.49211 20.0223 8.35186 20.3756 8.25434H20.3751ZM18.9299 8.93093C18.7332 9.3703 18.6044 9.81296 18.5458 10.2534C18.4653 10.8544 18.5135 11.4532 18.6888 12.0334C18.8964 12.7198 19.2301 13.2118 19.4218 13.4556C19.269 13.5767 19.1194 13.6922 18.9731 13.8018C18.8959 13.8599 18.8192 13.9163 18.7436 13.9711C18.6242 14.0577 18.5069 14.1409 18.3919 14.2204C18.2067 13.9793 17.8977 13.512 17.7049 12.8738C17.3773 11.7907 17.5038 10.6846 18.0807 9.57739C18.3464 9.34948 18.6285 9.12925 18.9293 8.93093H18.9299ZM17.3751 10.2233C17.4359 10.1647 17.4978 10.1061 17.5608 10.0469C17.4255 10.4035 17.3334 10.7613 17.2858 11.1185C17.203 11.7392 17.2523 12.3572 17.4337 12.9559C17.6364 13.626 17.9552 14.1163 18.1568 14.3803C17.9706 14.5042 17.7909 14.6187 17.6172 14.7238C17.5345 14.7742 17.4529 14.8225 17.3729 14.8685C17.1893 14.9748 17.014 15.0706 16.8464 15.1572C16.6963 14.9211 16.504 14.5633 16.3714 14.119C16.0416 13.0168 16.1983 11.8898 16.8354 10.7629C17.0086 10.5827 17.1888 10.403 17.3756 10.2238L17.3751 10.2233ZM15.5119 12.3336C15.7135 12.0509 15.9452 11.7573 16.201 11.4587C16.0832 11.7825 16.0027 12.1068 15.9594 12.4306C15.8789 13.0326 15.9271 13.632 16.103 14.2127C16.2372 14.6559 16.4235 15.018 16.5906 15.2848C16.5286 15.315 16.4678 15.3435 16.4087 15.3708C16.2892 15.4256 16.1736 15.4766 16.0613 15.5231C15.9704 15.5609 15.8822 15.596 15.7956 15.6289C15.6472 15.6853 15.5053 15.7346 15.3711 15.7773C15.262 15.5752 15.1536 15.3325 15.0692 15.0536C14.8692 14.3929 14.8544 13.7229 15.0232 13.0491C15.2116 12.7615 15.3826 12.5144 15.5119 12.3336ZM14.6386 13.661C14.5986 14.159 14.6523 14.6543 14.7975 15.1358C14.8807 15.4119 14.9859 15.6546 15.0927 15.8601C14.7251 15.9614 14.4238 16.0129 14.1959 16.0376C13.905 16.0693 13.6941 16.0633 13.5692 16.0529C13.7127 15.3298 14.1757 14.4291 14.6386 13.661ZM13.9806 16.34C14.0469 16.3367 14.1187 16.3312 14.1959 16.323C14.5005 16.2918 14.827 16.2288 15.1667 16.1351C15.1903 16.1285 15.2133 16.1219 15.2368 16.1154C15.3294 16.0885 15.4236 16.06 15.5184 16.0288C15.6587 15.9828 15.8006 15.9318 15.9441 15.8765C16.2032 16.283 16.5035 16.6314 16.842 16.918C17.0223 17.0703 17.2129 17.205 17.4134 17.3223C17.4183 17.325 17.4233 17.3277 17.4282 17.3305C16.3024 17.2478 15.1464 16.9158 13.9812 16.34H13.9806ZM18.1316 17.3491C17.3493 17.0609 16.7062 16.5317 16.2104 15.7686C16.3024 15.7297 16.395 15.6891 16.4876 15.647C16.5747 15.607 16.6623 15.5659 16.75 15.5226C16.8354 15.481 16.9215 15.4377 17.0075 15.3928C17.174 15.3062 17.3416 15.2142 17.5104 15.1172C17.7909 15.5922 18.124 15.9943 18.5058 16.3175C18.6861 16.4698 18.8767 16.6046 19.0772 16.7218C19.3243 16.8659 19.5862 16.9826 19.8612 17.0714C19.516 17.1853 18.9233 17.3321 18.1311 17.3491H18.1316ZM20.2956 16.8949C20.2217 16.8785 20.1455 16.8593 20.0688 16.8374C19.0947 16.5586 18.319 15.9324 17.7547 14.9731C17.9487 14.8559 18.1442 14.7321 18.3409 14.6006C18.3415 14.6011 18.342 14.6017 18.3426 14.6022L18.3502 14.5945C18.5305 14.4746 18.7118 14.3486 18.8942 14.2165C19.149 14.6093 19.4421 14.9474 19.7719 15.2262C19.9521 15.3785 20.1428 15.5133 20.3433 15.6305C20.6325 15.7993 20.9421 15.9307 21.2691 16.0233C21.3267 16.0398 21.3831 16.054 21.439 16.0677C21.0774 16.4172 20.6868 16.7021 20.2962 16.8949H20.2956ZM22.3665 14.9139C22.1627 15.2426 21.9271 15.5505 21.6724 15.8272C21.5633 15.8064 21.4499 15.7801 21.3332 15.7467C20.4173 15.4842 19.676 14.9145 19.1216 14.0489C19.4498 13.804 19.7812 13.541 20.1154 13.2595C20.1165 13.2584 20.1176 13.2578 20.1187 13.2567C20.3384 13.5613 20.5838 13.8292 20.8533 14.0571C21.0336 14.2094 21.2242 14.3442 21.4247 14.4614C21.714 14.6302 22.0235 14.7616 22.3506 14.8542C22.3654 14.8586 22.3807 14.8624 22.3955 14.8668C22.3857 14.8822 22.3763 14.8981 22.3665 14.9139Z" fill="black" stroke="black" stroke-width="0.257143"/>
<path d="M3.15851 14.6749C3.20946 14.7626 3.26095 14.8491 3.31355 14.9357C3.33984 14.979 3.36614 15.0217 3.39244 15.0644C3.5683 15.3477 3.771 15.6221 3.99287 15.8774C4.06903 15.9651 4.14737 16.0511 4.2279 16.1338C4.29693 16.205 4.36705 16.2741 4.43827 16.3403C4.70069 16.5858 4.97626 16.7978 5.25292 16.9687C5.39207 17.0547 5.53177 17.1298 5.66983 17.1933C5.69338 17.2043 5.71749 17.2147 5.74105 17.2251C5.93827 17.3106 6.36285 17.4678 6.98739 17.5609C7.25913 17.6015 7.5692 17.6294 7.91489 17.6344C8.00255 17.6355 8.09294 17.6355 8.18498 17.6333C8.84568 17.619 9.52775 17.5177 10.2126 17.333C11.0168 17.1161 12.7573 16.3135 12.7573 16.3135L12.7398 16.1809C12.7387 16.1722 12.7376 16.1639 12.7365 16.1552C12.6587 15.609 12.3842 14.905 11.9213 14.0619C11.6994 13.6576 11.4594 13.2686 11.2354 12.9251C11.0458 12.6342 10.8672 12.3761 10.7199 12.1696C10.6459 12.0655 10.5676 11.9603 10.4859 11.854C10.1715 11.4443 9.80276 11.018 9.39352 10.5913C9.28505 10.4784 9.17384 10.365 9.06044 10.2522C8.98209 10.1744 8.90266 10.0966 8.82158 10.0193C8.61559 9.8221 8.38878 9.60953 8.14444 9.39806C7.96804 9.24576 7.78232 9.09346 7.58838 8.94938C7.52264 8.90007 7.4558 8.85186 7.38787 8.8042C7.19995 8.67272 7.01369 8.55548 6.82742 8.45139C6.668 8.36209 6.50858 8.28265 6.34915 8.21308C6.1344 8.11939 5.91854 8.04215 5.7005 7.98189C5.60901 7.95668 5.51698 7.93477 5.42439 7.9156C5.30551 7.89094 5.18608 7.87177 5.06665 7.85643C4.86066 7.83013 4.65358 7.81534 4.44704 7.80931C4.34788 7.80603 4.24872 7.80493 4.15011 7.80493C3.86851 7.80493 3.58747 7.81644 3.30971 7.82739L3.28615 7.82849L3.00511 7.83945L1 7.91888L1.01479 8.06899C1.14354 9.35697 1.42896 10.6313 1.85793 11.8546C1.88915 11.9439 1.92148 12.0332 1.95435 12.1219C2.082 12.4671 2.22115 12.8078 2.3718 13.1437C2.4107 13.2302 2.45014 13.3162 2.49068 13.4023C2.69448 13.8367 2.91691 14.2618 3.15796 14.676L3.15851 14.6749ZM2.7553 13.296C2.89007 13.2363 3.02155 13.1694 3.14919 13.0949C3.3497 12.9777 3.54036 12.8429 3.7206 12.6906C3.97754 12.4731 4.21311 12.2195 4.42512 11.9318C4.58071 12.0836 4.73575 12.2321 4.89024 12.3761C4.95982 12.4413 5.02994 12.506 5.09952 12.5695C5.28962 12.7432 5.47863 12.9114 5.66654 13.0741C5.12855 13.8318 4.43169 14.3363 3.58528 14.5785C3.54035 14.5911 3.49598 14.6031 3.4527 14.6141C3.20014 14.1862 2.96785 13.7458 2.75584 13.296H2.7553ZM2.20799 11.9866C2.20799 11.9866 2.21238 11.9844 2.21457 11.9828C2.41508 11.8656 2.60573 11.7308 2.78597 11.5785C3.01607 11.3835 3.22863 11.1599 3.42257 10.909C3.51187 11.0038 3.60062 11.0975 3.68937 11.1901C3.75675 11.2602 3.82414 11.3298 3.89098 11.3982C4.00109 11.5111 4.1112 11.6223 4.22132 11.7313C3.79126 12.3279 3.26205 12.7651 2.63696 13.0385C2.48192 12.6928 2.33893 12.3416 2.20799 11.9861V11.9866ZM2.11158 11.7165C1.75219 10.6828 1.49744 9.61227 1.355 8.52863C1.74507 9.01129 2.13349 9.47367 2.52082 9.91523C2.58711 9.99083 2.6534 10.0659 2.71968 10.1404C2.88952 10.331 3.0588 10.5179 3.22754 10.7003C2.9076 11.1243 2.53506 11.4634 2.11158 11.7165ZM3.01223 8.12268C3.00621 8.46344 2.95252 8.80256 2.85062 9.13948C2.79529 9.32301 2.729 9.4912 2.65942 9.64186C2.26443 9.18934 1.85847 8.70449 1.44266 8.18459L3.01223 8.12268ZM4.23502 8.08872C4.41252 8.77297 4.40047 9.45394 4.19722 10.1251C4.0997 10.4472 3.96986 10.7217 3.84495 10.9402C3.76168 10.8531 3.67731 10.7644 3.59295 10.6745C3.5272 10.605 3.46146 10.5343 3.39517 10.4625C3.22041 10.273 3.04291 10.0768 2.86322 9.87414C2.95745 9.68459 3.04784 9.466 3.1218 9.22166C3.23192 8.85789 3.28889 8.48645 3.29328 8.11172L3.32122 8.11063C3.62308 8.09858 3.92933 8.08652 4.23448 8.08872H4.23502ZM5.23703 8.1687C5.73283 9.15756 5.83637 10.1442 5.54382 11.1112C5.41069 11.5505 5.21785 11.9012 5.05843 12.1417C4.90449 11.9976 4.74835 11.848 4.58948 11.693C4.52155 11.6261 4.45306 11.5588 4.38404 11.4903C4.27392 11.3807 4.16271 11.2679 4.04985 11.1528C4.19613 10.9079 4.3528 10.5896 4.4684 10.2078C4.63494 9.65665 4.68097 9.08798 4.60427 8.51713C4.58564 8.37688 4.55934 8.23663 4.52593 8.09638C4.76479 8.10679 5.00255 8.12871 5.23648 8.16925L5.23703 8.1687ZM6.62088 8.66176C7.2257 9.76676 7.3665 10.8712 7.03999 11.9521C6.8466 12.5914 6.53268 13.0533 6.35683 13.2784C6.25383 13.1946 6.14919 13.1081 6.044 13.0188C5.97223 12.958 5.89992 12.8966 5.82706 12.833C5.64517 12.6758 5.46 12.5109 5.27045 12.3372C5.44685 12.0776 5.66599 11.6886 5.8161 11.1933C5.98265 10.6422 6.02867 10.0736 5.95197 9.5027C5.89609 9.0836 5.77337 8.66286 5.58655 8.24485C5.5997 8.24814 5.61285 8.25143 5.62545 8.25526C5.97826 8.35332 6.30916 8.49357 6.62143 8.66176H6.62088ZM7.91927 9.57776C8.49615 10.685 8.62271 11.791 8.2951 12.8741C8.10226 13.5124 7.79272 13.9797 7.6081 14.2207C7.49305 14.1413 7.37581 14.0586 7.25638 13.9715C7.18078 13.9167 7.10408 13.8603 7.02684 13.8022C6.88056 13.6926 6.731 13.577 6.57815 13.4559C6.7699 13.2122 7.10353 12.7202 7.31117 12.0337C7.48648 11.4536 7.53469 10.8548 7.45415 10.2538C7.39499 9.81278 7.26624 9.37067 7.07011 8.9313C7.37088 9.12962 7.65303 9.34985 7.91873 9.57776H7.91927ZM9.16562 10.7627C9.80331 11.8897 9.95945 13.0166 9.62965 14.1188C9.49652 14.5637 9.30477 14.9209 9.15466 15.157C8.98702 15.0704 8.81171 14.9746 8.62819 14.8683C8.5482 14.8223 8.46712 14.7735 8.38385 14.7237C8.21018 14.6185 8.03048 14.504 7.84422 14.3802C8.04582 14.1161 8.36467 13.6258 8.56738 12.9558C8.74871 12.357 8.79802 11.739 8.71529 11.1183C8.66763 10.7611 8.57559 10.4034 8.44027 10.0467C8.50327 10.1059 8.56463 10.1645 8.62599 10.2231C8.81281 10.4023 8.99305 10.582 9.16617 10.7622L9.16562 10.7627ZM10.9768 13.0494C11.1455 13.7233 11.1307 14.3933 10.9308 15.054C10.8464 15.3329 10.7379 15.5761 10.6289 15.7777C10.4947 15.735 10.3533 15.6857 10.2043 15.6292C10.1183 15.5964 10.0296 15.5613 9.93863 15.5235C9.82632 15.4769 9.71072 15.426 9.59129 15.3712C9.53213 15.3438 9.47132 15.3153 9.40941 15.2852C9.57651 15.0184 9.76277 14.6563 9.897 14.2131C10.0729 13.6324 10.1211 13.0325 10.0405 12.4309C9.99725 12.1072 9.91617 11.7823 9.79893 11.4591C10.0553 11.7576 10.2865 12.0513 10.4881 12.334C10.6169 12.5148 10.7883 12.7613 10.9768 13.0494ZM12.4308 16.0533C12.3059 16.0637 12.0949 16.0697 11.804 16.0379C11.5761 16.0133 11.2754 15.9623 10.9072 15.8604C11.014 15.6544 11.1192 15.4118 11.2025 15.1362C11.3482 14.6546 11.4014 14.1594 11.3614 13.6614C11.8243 14.4295 12.2872 15.3301 12.4308 16.0533ZM8.57231 17.3309C8.57724 17.3281 8.58217 17.3254 8.5871 17.3226C8.78761 17.2054 8.97826 17.0706 9.1585 16.9183C9.49707 16.6318 9.79674 16.2834 10.0564 15.8769C10.1999 15.9322 10.3418 15.9832 10.4821 16.0292C10.5769 16.0604 10.6705 16.0894 10.7637 16.1157C10.7872 16.1223 10.8108 16.1289 10.8338 16.1355C11.1735 16.2291 11.5005 16.2927 11.8046 16.3234C11.8818 16.331 11.9531 16.3365 12.0199 16.3403C10.8546 16.9156 9.69867 17.2481 8.57285 17.3309H8.57231ZM6.13824 17.0717C6.41325 16.983 6.67512 16.8663 6.9222 16.7222C7.12271 16.605 7.31336 16.4702 7.4936 16.3179C7.87545 15.9947 8.20854 15.5925 8.48903 15.1176C8.65777 15.2151 8.82596 15.3071 8.99196 15.3931C9.07797 15.438 9.16398 15.4813 9.24944 15.523C9.3371 15.5657 9.42475 15.6073 9.51186 15.6473C9.60499 15.6895 9.69703 15.7301 9.78907 15.7689C9.29327 16.5321 8.6501 17.0613 7.86778 17.3495C7.07614 17.3325 6.48338 17.1857 6.13769 17.0717H6.13824ZM4.56154 16.0681C4.61742 16.0549 4.67384 16.0401 4.73137 16.0237C5.05843 15.9311 5.36796 15.7996 5.65723 15.6309C5.85774 15.5137 6.04838 15.3789 6.22862 15.2266C6.55788 14.9477 6.85153 14.6097 7.10627 14.2169C7.2887 14.3489 7.47004 14.4749 7.65029 14.5949L7.65796 14.6026C7.65796 14.6026 7.65905 14.6015 7.65959 14.6009C7.85627 14.7319 8.05186 14.8562 8.24579 14.9735C7.68151 15.9328 6.90576 16.5589 5.9317 16.8378C5.85445 16.8597 5.77885 16.8789 5.70489 16.8953C5.31428 16.7025 4.92366 16.4176 4.56209 16.0681H4.56154ZM3.60445 14.8677C3.61925 14.8639 3.63458 14.8595 3.64938 14.8551C3.97644 14.7626 4.28597 14.6311 4.57523 14.4623C4.77574 14.3451 4.96639 14.2103 5.14663 14.058C5.41617 13.8301 5.66161 13.5622 5.88129 13.2576C5.88239 13.2587 5.88349 13.2593 5.88458 13.2604C6.21877 13.5414 6.55021 13.8049 6.87837 14.0498C6.32395 14.9154 5.58272 15.4846 4.66672 15.7476C4.55003 15.781 4.43663 15.8073 4.32761 15.8281C4.07286 15.5515 3.83728 15.2436 3.63349 14.9149C3.62362 14.8995 3.61432 14.8836 3.60445 14.8677Z" fill="black" stroke="black" stroke-width="0.257143"/>
<path d="M9.50199 5.59936C9.46803 5.68318 9.43461 5.76755 9.40174 5.85192C9.38531 5.8941 9.36942 5.93628 9.35353 5.97847C9.24835 6.25787 9.16452 6.55261 9.10481 6.84899C9.08399 6.95144 9.06646 7.05389 9.05112 7.15579C9.03852 7.24344 9.02757 7.3311 9.01935 7.4182C8.98867 7.73869 8.98867 8.04987 9.01935 8.33968C9.03469 8.4854 9.05715 8.62565 9.08783 8.75823C9.09331 8.78124 9.09823 8.8037 9.10426 8.82616C9.15137 9.01298 9.2719 9.4003 9.54747 9.89446C9.66745 10.1098 9.81701 10.3448 10.0027 10.593C10.0498 10.656 10.0992 10.7195 10.1512 10.7842C10.5226 11.2449 10.9675 11.6739 11.4731 12.059C12.067 12.511 13.5884 13.3075 13.5884 13.3075L13.6727 13.2226C13.6782 13.2171 13.6837 13.2117 13.6892 13.2062C14.0343 12.8523 14.3838 12.2727 14.729 11.4827C14.8944 11.1041 15.0396 10.7212 15.1607 10.3744C15.2631 10.0807 15.3486 9.81283 15.4149 9.59534C15.4483 9.48577 15.4801 9.37291 15.5113 9.25677C15.6302 8.80973 15.731 8.31448 15.8104 7.79074C15.8312 7.65213 15.851 7.51134 15.8685 7.3689C15.8806 7.27083 15.8926 7.17167 15.903 7.07197C15.9304 6.81831 15.9572 6.54056 15.9737 6.25184C15.9852 6.04311 15.9918 5.82836 15.9885 5.61196C15.9874 5.538 15.9852 5.46459 15.9819 5.39063C15.9726 5.18574 15.954 4.98906 15.926 4.80005C15.9019 4.63844 15.8712 4.48176 15.8334 4.33C15.7825 4.1262 15.7195 3.93117 15.6428 3.74326C15.6105 3.66437 15.576 3.58713 15.5387 3.51098C15.491 3.41346 15.4395 3.31813 15.3853 3.22445C15.2916 3.06393 15.1886 2.90889 15.0802 2.75879C15.0281 2.68702 14.975 2.6158 14.9207 2.54567C14.7662 2.34571 14.6052 2.15232 14.4457 1.96167L14.432 1.94524L14.2704 1.75185L13.1178 0.371826L13.0197 0.464412C12.176 1.25988 11.4277 2.15944 10.7938 3.13296C10.7472 3.20418 10.7018 3.2754 10.6569 3.34772C10.4815 3.62712 10.3161 3.912 10.16 4.20236C10.12 4.27741 10.08 4.35246 10.0411 4.42807C9.8444 4.80991 9.66416 5.20053 9.50199 5.59826V5.59936ZM10.2602 4.559C10.3764 4.622 10.4958 4.67898 10.6185 4.72829C10.8113 4.80663 11.0113 4.86799 11.2178 4.91236C11.5131 4.97591 11.8216 5.00385 12.1415 4.99728C12.1185 5.19067 12.0982 5.38186 12.0802 5.57032C12.0719 5.65579 12.0643 5.74015 12.0571 5.82452C12.0374 6.05462 12.0215 6.28033 12.0095 6.50275C11.1773 6.53508 10.4383 6.31649 9.80331 5.84808C9.76989 5.82343 9.73703 5.79823 9.7058 5.77303C9.87125 5.35995 10.057 4.954 10.2608 4.55791L10.2602 4.559ZM10.8902 3.45455C10.8902 3.45455 10.8941 3.45619 10.8963 3.45729C11.0891 3.53563 11.2891 3.59699 11.4956 3.64136C11.7597 3.69834 12.0347 3.72683 12.319 3.72737C12.3004 3.84242 12.2829 3.95692 12.2653 4.07032C12.2522 4.15634 12.2401 4.24235 12.2281 4.32781C12.2083 4.46806 12.1897 4.60666 12.1722 4.74417C11.5137 4.76554 10.9138 4.62858 10.378 4.33439C10.5385 4.03526 10.7094 3.74162 10.8902 3.45455ZM11.0294 3.23815C11.5668 2.41803 12.187 1.65159 12.8784 0.95802C12.7491 1.49874 12.6335 2.02741 12.5321 2.54348C12.5146 2.63168 12.4976 2.71989 12.4812 2.80754C12.4384 3.03216 12.3985 3.25458 12.3617 3.47427C11.8862 3.4792 11.4414 3.40031 11.0305 3.23815H11.0294ZM14.0727 1.91236C13.8278 2.09425 13.5571 2.24162 13.2629 2.35393C13.1024 2.41474 12.9468 2.45966 12.8017 2.49308C12.9069 1.96551 13.029 1.41218 13.1704 0.832564L14.0727 1.91291V1.91236ZM14.7657 2.76207C14.3767 3.26225 13.8869 3.62602 13.2997 3.849C13.0175 3.95583 12.7518 4.0139 12.5288 4.04458C12.5453 3.93775 12.5617 3.82982 12.5798 3.72025C12.5935 3.63534 12.6077 3.55042 12.6225 3.46386C12.6614 3.23596 12.7036 3.00312 12.7491 2.76481C12.9353 2.72811 13.1397 2.67277 13.3539 2.59169C13.6722 2.47117 13.9669 2.30846 14.2354 2.1063L14.2513 2.12548C14.4249 2.33311 14.6008 2.54403 14.7662 2.76207H14.7657ZM15.2571 3.517C14.8265 4.40944 14.1822 5.02248 13.3364 5.34352C12.9518 5.48924 12.5973 5.54457 12.3393 5.56265C12.3574 5.37474 12.3782 5.1819 12.4012 4.98468C12.4111 4.89976 12.4215 4.8143 12.433 4.72774C12.4505 4.58968 12.4697 4.44889 12.4899 4.3059C12.7441 4.27577 13.0553 4.21276 13.3895 4.08621C13.8716 3.90323 14.3006 3.62493 14.6638 3.25842C14.7531 3.16857 14.838 3.07325 14.9196 2.97244C15.0429 3.14775 15.1574 3.328 15.2566 3.517H15.2571ZM15.6636 4.76883C15.21 5.80206 14.5033 6.50659 13.5577 6.86543C12.9983 7.07799 12.4987 7.10757 12.2429 7.10593C12.2461 6.98705 12.2505 6.86543 12.256 6.74161C12.2598 6.65779 12.2642 6.57233 12.2692 6.48632C12.2812 6.27156 12.2971 6.04914 12.3168 5.82014C12.5979 5.80316 12.9934 5.74618 13.4273 5.58183C13.9094 5.39885 14.3384 5.12054 14.7016 4.75403C14.9684 4.48504 15.2001 4.16784 15.3946 3.80681C15.3995 3.81777 15.4039 3.82927 15.4083 3.84023C15.5316 4.14428 15.6132 4.45601 15.6642 4.76937L15.6636 4.76883ZM15.7233 6.19158C15.2527 7.20673 14.5372 7.9014 13.5895 8.26079C13.0307 8.4728 12.5299 8.50896 12.2582 8.50951C12.2516 8.3846 12.2461 8.25586 12.2429 8.12383C12.2407 8.04001 12.2385 7.95509 12.2374 7.86853C12.2352 7.70473 12.2352 7.53544 12.2374 7.36068C12.5151 7.36342 13.0466 7.33164 13.6475 7.10319C14.1554 6.91035 14.6068 6.61725 14.9892 6.23157C15.2697 5.94834 15.5135 5.61525 15.7178 5.23559C15.7419 5.55772 15.7398 5.87821 15.7233 6.19158ZM15.5633 7.72445C15.1119 8.79329 14.3975 9.52028 13.435 9.88898C13.0466 10.038 12.6877 10.0966 12.4379 10.1196C12.4078 9.95363 12.3798 9.77613 12.3552 9.58822C12.3442 9.50604 12.3338 9.42222 12.3245 9.33566C12.3042 9.15487 12.2872 8.96477 12.273 8.76481C12.5705 8.76316 13.0931 8.72153 13.6793 8.4991C14.203 8.30023 14.6693 7.99727 15.0643 7.59954C15.2916 7.37054 15.4949 7.10922 15.674 6.81831C15.6663 6.89501 15.6587 6.97116 15.6505 7.04622C15.6253 7.27631 15.5962 7.50312 15.5633 7.72445ZM14.9311 10.2604C14.5455 10.7485 14.0612 11.1046 13.4832 11.3243C13.2394 11.4169 13.0071 11.4728 12.8044 11.5062C12.7611 11.3873 12.7189 11.2602 12.6779 11.1238C12.6537 11.0449 12.6307 10.9628 12.6077 10.8773C12.5792 10.7721 12.5518 10.662 12.5261 10.5475C12.513 10.4905 12.5003 10.4313 12.4877 10.3711C12.7682 10.3437 13.1276 10.278 13.5155 10.1311C14.0239 9.93829 14.4759 9.64464 14.8588 9.25841C15.0648 9.05078 15.2511 8.81575 15.4165 8.55498C15.3448 8.90012 15.2631 9.22499 15.1722 9.52247C15.1141 9.71258 15.033 9.96951 14.9317 10.2604H14.9311ZM13.5944 12.935C13.5188 12.8517 13.3988 12.7055 13.2624 12.4814C13.1556 12.3061 13.0268 12.0645 12.8981 11.7478C13.103 11.7111 13.3325 11.653 13.5736 11.5616C13.9949 11.4016 14.3756 11.1687 14.7071 10.868C14.4151 11.6163 14.0288 12.4376 13.5938 12.935H13.5944ZM10.578 10.8948C10.5829 10.897 10.5873 10.8987 10.5922 10.9009C10.785 10.9792 10.985 11.0406 11.1916 11.0849C11.58 11.1682 11.9914 11.1912 12.4215 11.1529C12.4604 11.2849 12.502 11.4136 12.5464 11.538C12.576 11.6224 12.6066 11.7045 12.639 11.7851C12.6472 11.8053 12.6548 11.8256 12.6631 11.8459C12.7825 12.1384 12.9162 12.4047 13.0608 12.6381C13.0975 12.6972 13.1326 12.7509 13.1665 12.8002C12.1207 12.288 11.2529 11.6492 10.5785 10.8954L10.578 10.8948ZM9.43078 9.02558C9.64389 9.1724 9.87015 9.29457 10.1079 9.39099C10.3008 9.46933 10.5007 9.53069 10.7073 9.57507C11.145 9.6693 11.6128 9.68573 12.1032 9.62547C12.1262 9.79859 12.153 9.96787 12.1826 10.1333C12.1979 10.2188 12.2144 10.3037 12.2314 10.387C12.2489 10.473 12.2675 10.5574 12.2867 10.6412C12.3075 10.7305 12.3294 10.8181 12.3519 10.9047C11.5394 10.9699 10.8119 10.8028 10.1797 10.4056C9.75893 9.8342 9.53925 9.33347 9.43078 9.02613V9.02558ZM9.28067 7.35794C9.32066 7.39026 9.36175 7.42259 9.40503 7.45436C9.64937 7.6357 9.91233 7.78361 10.1901 7.89702C10.3829 7.97536 10.5829 8.03672 10.7894 8.08109C11.1674 8.16218 11.5679 8.18573 11.9859 8.15177C11.992 8.35337 12.0018 8.5506 12.015 8.74453L12.0139 8.7544C12.0139 8.7544 12.015 8.7544 12.0155 8.7544C12.0303 8.96586 12.0489 9.1724 12.0719 9.37401C11.0825 9.49837 10.2142 9.28964 9.48337 8.75111C9.4253 8.70838 9.37051 8.6651 9.31847 8.62127C9.24177 8.23833 9.23027 7.80553 9.28067 7.35794ZM9.60938 6.02175C9.62033 6.02996 9.63129 6.03873 9.64279 6.04695C9.88713 6.22828 10.1501 6.3762 10.4279 6.48961C10.6207 6.56795 10.8207 6.62931 11.0272 6.67368C11.3362 6.73997 11.6605 6.76791 11.9969 6.7575C11.9969 6.7586 11.9969 6.76024 11.9969 6.76134C11.9799 7.15195 11.9744 7.53161 11.9799 7.89811C11.0628 7.9781 10.2531 7.76334 9.56555 7.25659C9.47789 7.19194 9.39736 7.1262 9.32286 7.05991C9.37983 6.72792 9.46967 6.39209 9.59184 6.06777C9.59787 6.05243 9.60335 6.03709 9.60938 6.02175Z" fill="black" stroke="black" stroke-width="0.257143"/>
</svg>
