<svg width="24" height="17" viewBox="0 0 24 17" fill="none" xmlns="http://www.w3.org/2000/svg">
<path d="M1.58577 0.0331993C0.965693 0.155181 0.538755 0.500798 0.406607 0.978561C0.264295 1.45632 0.426938 1.94425 0.874206 2.42202C1.00635 2.55417 2.98856 4.1501 5.29606 5.94934C10.2567 9.8426 9.99238 9.6393 10.399 9.8426C11.3952 10.3305 12.7573 10.3102 13.723 9.79178C14.1194 9.57831 19.9543 5.03447 19.9441 4.94299C19.939 4.90746 20.5032 4.45506 20.0457 3.89597C19.5816 3.32864 19.0343 3.713 19.0089 3.713C18.9886 3.713 18.6226 4.00779 16.6607 5.5224C14.6989 7.04718 12.9911 8.32799 12.8793 8.38898C12.3812 8.61261 11.568 8.60245 11.1004 8.36865C10.9682 8.29749 8.96569 6.75239 6.63787 4.92265L2.40915 1.62913L11.7916 1.6088C18.1042 1.59864 21.2452 1.61897 21.3875 1.64946C21.7027 1.73078 22.0381 2.01541 22.2109 2.35086L22.3634 2.64565V8.02303V13.4004L22.2313 13.6749C22.1601 13.8274 22.0076 14.0307 21.8958 14.1221C21.4587 14.4779 22.1499 14.4576 11.9949 14.4576C1.85006 14.4576 2.52097 14.4779 2.09403 14.1323C1.98221 14.0408 1.8399 13.8578 1.76874 13.746L1.64676 13.5224L1.61626 9.31401L1.59593 7.04718C1.59593 7.04718 1.58577 6.50842 0.813215 6.50842C0.0406607 6.50842 0 7.01668 0 7.01668V9.29368C0 12.8617 0.0101652 13.5732 0.0813215 13.8274C0.325286 14.7829 1.01652 15.5351 1.99238 15.9112L2.35832 16.0535L11.8119 16.0739C20.2897 16.084 21.3062 16.084 21.6518 16.0027C22.7395 15.7587 23.6239 14.9049 23.9085 13.8375C24.0305 13.3699 24.0305 2.70664 23.9085 2.23904C23.6645 1.28352 22.9733 0.531293 21.9975 0.155182L21.6315 0.0128688L11.7205 0.00270381C6.27192 -0.00746138 1.70775 0.0128689 1.58577 0.0331993Z" fill="white"/>
<circle cx="0.75" cy="4.99463" r="0.75" fill="white"/>
</svg>
