<svg width="29" height="28" viewBox="0 0 29 28" fill="none" xmlns="http://www.w3.org/2000/svg">
<path d="M0.599976 9.39167C0.599976 6.06964 0.599976 4.40862 1.25673 3.14432C1.81017 2.0789 2.67887 1.2102 3.74429 0.656755C5.0086 0 6.66961 0 9.99164 0H19.2083C22.5303 0 24.1914 0 25.4557 0.656755C26.5211 1.2102 27.3898 2.0789 27.9432 3.14432C28.6 4.40862 28.6 6.06964 28.6 9.39167V18.6083C28.6 21.9304 28.6 23.5914 27.9432 24.8557C27.3898 25.9211 26.5211 26.7898 25.4557 27.3432C24.1914 28 22.5303 28 19.2083 28H9.99164C6.66961 28 5.0086 28 3.74429 27.3432C2.67887 26.7898 1.81017 25.9211 1.25673 24.8557C0.599976 23.5914 0.599976 21.9304 0.599976 18.6083V9.39167Z" fill="url(#paint0_linear_286_167)"/>
<path d="M20.0444 17.8888L20.6666 13.9999H16.9333V11.2777C16.9333 10.1888 17.3222 9.33323 19.0333 9.33323H20.8222V5.75545C19.811 5.59989 18.7222 5.44434 17.711 5.44434C14.5222 5.44434 12.2666 7.38878 12.2666 10.8888V13.9999H8.7666V17.8888H12.2666V27.9999C13.8222 27.9999 15.3777 27.9999 16.9333 27.9999V17.8888H20.0444Z" fill="white"/>
<defs>
<linearGradient id="paint0_linear_286_167" x1="14.6" y1="27.1819" x2="14.6" y2="0" gradientUnits="userSpaceOnUse">
<stop stop-color="#0062E0"/>
<stop offset="1" stop-color="#19AFFF"/>
</linearGradient>
</defs>
</svg>
