<svg width="28" height="28" viewBox="0 0 28 28" fill="none" xmlns="http://www.w3.org/2000/svg">
<path d="M0 9.32458C0 6.02628 0 4.37713 0.652064 3.12186C1.20155 2.06405 2.06405 1.20155 3.12186 0.652064C4.37713 0 6.02628 0 9.32458 0H18.4754C21.7737 0 23.4229 0 24.6781 0.652064C25.736 1.20155 26.5985 2.06405 27.1479 3.12186C27.8 4.37713 27.8 6.02628 27.8 9.32458V18.4754C27.8 21.7737 27.8 23.4229 27.1479 24.6781C26.5985 25.736 25.736 26.5985 24.6781 27.1479C23.4229 27.8 21.7737 27.8 18.4754 27.8H9.32458C6.02628 27.8 4.37713 27.8 3.12186 27.1479C2.06405 26.5985 1.20155 25.736 0.652064 24.6781C0 23.4229 0 21.7737 0 18.4754V9.32458Z" fill="url(#paint0_radial_244_510)"/>
<path d="M0 9.32458C0 6.02628 0 4.37713 0.652064 3.12186C1.20155 2.06405 2.06405 1.20155 3.12186 0.652064C4.37713 0 6.02628 0 9.32458 0H18.4754C21.7737 0 23.4229 0 24.6781 0.652064C25.736 1.20155 26.5985 2.06405 27.1479 3.12186C27.8 4.37713 27.8 6.02628 27.8 9.32458V18.4754C27.8 21.7737 27.8 23.4229 27.1479 24.6781C26.5985 25.736 25.736 26.5985 24.6781 27.1479C23.4229 27.8 21.7737 27.8 18.4754 27.8H9.32458C6.02628 27.8 4.37713 27.8 3.12186 27.1479C2.06405 26.5985 1.20155 25.736 0.652064 24.6781C0 23.4229 0 21.7737 0 18.4754V9.32458Z" fill="url(#paint1_radial_244_510)"/>
<path d="M13.8848 3.79053C11.1394 3.79053 10.7949 3.80253 9.71659 3.8516C8.64042 3.90089 7.90585 4.07127 7.2631 4.32125C6.59824 4.57946 6.03425 4.92485 5.47237 5.48696C4.91007 6.04886 4.56468 6.61286 4.30565 7.27753C4.05503 7.92051 3.88445 8.65532 3.83601 9.73109C3.78778 10.8094 3.77515 11.1542 3.77515 13.8996C3.77515 16.6451 3.78736 16.9886 3.83622 18.0669C3.88571 19.1431 4.05609 19.8777 4.30586 20.5204C4.56426 21.1853 4.90965 21.7493 5.47174 22.3112C6.03341 22.8735 6.59739 23.2198 7.26183 23.478C7.90501 23.728 8.63979 23.8983 9.71574 23.9476C10.794 23.9967 11.1383 24.0087 13.8835 24.0087C16.6291 24.0087 16.9726 23.9967 18.0509 23.9476C19.127 23.8983 19.8624 23.728 20.5056 23.478C21.1703 23.2198 21.7334 22.8735 22.2951 22.3112C22.8574 21.7493 23.2028 21.1853 23.4618 20.5207C23.7103 19.8777 23.8809 19.1429 23.9314 18.0671C23.9799 16.9888 23.9925 16.6451 23.9925 13.8996C23.9925 11.1542 23.9799 10.8096 23.9314 9.7313C23.8809 8.65511 23.7103 7.92051 23.4618 7.27774C23.2028 6.61286 22.8574 6.04886 22.2951 5.48696C21.7328 4.92464 21.1705 4.57925 20.505 4.32125C19.8605 4.07127 19.1255 3.90089 18.0494 3.8516C16.9711 3.80253 16.6278 3.79053 13.8816 3.79053H13.8848ZM12.9779 5.61227C13.2471 5.61185 13.5474 5.61227 13.8848 5.61227C16.5838 5.61227 16.9037 5.62196 17.9696 5.6704C18.9552 5.71547 19.4901 5.88016 19.8464 6.01853C20.3182 6.20176 20.6545 6.42079 21.0081 6.7746C21.3619 7.12842 21.5809 7.46539 21.7646 7.93715C21.9029 8.29307 22.0678 8.82801 22.1127 9.81365C22.1611 10.8793 22.1717 11.1994 22.1717 13.8973C22.1717 16.5952 22.1611 16.9153 22.1127 17.981C22.0676 18.9666 21.9029 19.5015 21.7646 19.8575C21.5813 20.3292 21.3619 20.6651 21.0081 21.0187C20.6543 21.3726 20.3184 21.5916 19.8464 21.7748C19.4905 21.9138 18.9552 22.0781 17.9696 22.1232C16.9039 22.1716 16.5838 22.1821 13.8848 22.1821C11.1855 22.1821 10.8656 22.1716 9.79998 22.1232C8.81438 22.0777 8.27945 21.913 7.92291 21.7746C7.45116 21.5914 7.1142 21.3723 6.7604 21.0185C6.40659 20.6647 6.18757 20.3286 6.00392 19.8566C5.86556 19.5007 5.70066 18.9657 5.6558 17.9801C5.60736 16.9144 5.59768 16.5943 5.59768 13.8948C5.59768 11.1952 5.60736 10.8768 5.6558 9.81112C5.70087 8.82549 5.86556 8.29055 6.00392 7.9342C6.18714 7.46244 6.40659 7.12547 6.7604 6.77166C7.1142 6.41784 7.45116 6.19881 7.92291 6.01516C8.27924 5.87616 8.81438 5.71189 9.79998 5.66661C10.7325 5.62448 11.0939 5.61185 12.9779 5.60974V5.61227ZM19.2808 7.2908C18.6111 7.2908 18.0677 7.83353 18.0677 8.50347C18.0677 9.1732 18.6111 9.71656 19.2808 9.71656C19.9505 9.71656 20.4938 9.1732 20.4938 8.50347C20.4938 7.83374 19.9505 7.29038 19.2808 7.29038V7.2908ZM13.8848 8.70818C11.0179 8.70818 8.69349 11.0326 8.69349 13.8996C8.69349 16.7666 11.0179 19.09 13.8848 19.09C16.7517 19.09 19.0752 16.7666 19.0752 13.8996C19.0752 11.0326 16.7515 8.70818 13.8846 8.70818H13.8848ZM13.8848 10.5299C15.7456 10.5299 17.2544 12.0385 17.2544 13.8996C17.2544 15.7605 15.7456 17.2693 13.8848 17.2693C12.0237 17.2693 10.5152 15.7605 10.5152 13.8996C10.5152 12.0385 12.0237 10.5299 13.8848 10.5299V10.5299Z" fill="white"/>
<defs>
<radialGradient id="paint0_radial_244_510" cx="0" cy="0" r="1" gradientUnits="userSpaceOnUse" gradientTransform="translate(7.38441 29.9412) rotate(-90) scale(27.5519 25.6254)">
<stop stop-color="#FFDD55"/>
<stop offset="0.1" stop-color="#FFDD55"/>
<stop offset="0.5" stop-color="#FF543E"/>
<stop offset="1" stop-color="#C837AB"/>
</radialGradient>
<radialGradient id="paint1_radial_244_510" cx="0" cy="0" r="1" gradientUnits="userSpaceOnUse" gradientTransform="translate(-4.65665 2.00267) rotate(78.6806) scale(12.3158 50.7662)">
<stop stop-color="#3771C8"/>
<stop offset="0.128" stop-color="#3771C8"/>
<stop offset="1" stop-color="#6600FF" stop-opacity="0"/>
</radialGradient>
</defs>
</svg>
