<svg width="22" height="22" viewBox="0 0 22 22" fill="none" xmlns="http://www.w3.org/2000/svg">
<path d="M19.774 1.04839C20.1006 1.12574 20.3498 1.27183 20.6076 1.52105C21.0545 1.96792 21.2264 2.56949 21.0975 3.17964C21.0631 3.31714 19.5936 6.29917 16.7748 11.9453C12.7443 20.0148 12.4865 20.5132 12.2803 20.7281C11.6615 21.3812 10.6904 21.4585 9.93419 20.9085C9.5045 20.5906 9.47013 20.5218 8.60216 17.8835C8.17247 16.5859 7.75997 15.3914 7.69122 15.2367C7.53653 14.9015 7.27012 14.6265 6.96075 14.4718C6.84044 14.4117 5.78341 14.0421 4.61466 13.6554C3.44591 13.2687 2.44044 12.9164 2.38028 12.8734C2.24278 12.7789 2.12247 12.521 2.12247 12.3406C2.12247 12.0312 2.38028 11.7218 2.69825 11.6789C2.87012 11.6531 3.042 11.7132 5.08731 12.4523C6.29903 12.8906 7.40762 13.3117 7.55372 13.389C8.08653 13.664 8.48184 14.0593 8.75684 14.5921C8.83419 14.7382 9.29825 15.9671 9.78809 17.325C10.5443 19.4132 10.7076 19.8171 10.8108 19.9117C10.9568 20.0492 11.1459 20.0578 11.3006 19.9375C11.4381 19.8171 19.8772 2.94761 19.8772 2.77574C19.8772 2.50933 19.6365 2.26871 19.3701 2.26871C19.2756 2.26871 17.2303 3.27417 12.3404 5.7148C7.04669 8.35308 5.41388 9.16089 5.31075 9.16089C4.77794 9.16089 4.46856 8.53355 4.80372 8.12964C4.94122 7.97496 18.6311 1.11714 18.9576 1.04839C19.2154 0.979643 19.5162 0.988237 19.774 1.04839Z" fill="white"/>
<path d="M1.74456 9.92574C2.14847 10.0976 2.243 10.6304 1.92503 10.9484C1.66722 11.2062 1.30628 11.2062 1.04847 10.9484C0.558625 10.45 1.10863 9.65074 1.74456 9.92574Z" fill="white"/>
</svg>
