<svg width="29" height="28" viewBox="0 0 29 28" fill="none" xmlns="http://www.w3.org/2000/svg">
<g clip-path="url(#clip0_244_514)">
<path d="M0.599854 9.32458C0.599854 6.02628 0.599854 4.37713 1.25192 3.12186C1.8014 2.06405 2.6639 1.20155 3.72171 0.652064C4.97699 0 6.62614 0 9.92444 0H19.0753C22.3736 0 24.0227 0 25.278 0.652064C26.3358 1.20155 27.1983 2.06405 27.7478 3.12186C28.3999 4.37713 28.3999 6.02628 28.3999 9.32458V18.4754C28.3999 21.7737 28.3999 23.4229 27.7478 24.6781C27.1983 25.736 26.3358 26.5985 25.278 27.1479C24.0227 27.8 22.3736 27.8 19.0753 27.8H9.92444C6.62614 27.8 4.97699 27.8 3.72171 27.1479C2.6639 26.5985 1.8014 25.736 1.25192 24.6781C0.599854 23.4229 0.599854 21.7737 0.599854 18.4754V9.32458Z" fill="black"/>
<path d="M9.03461 16.6457C9.14775 15.709 9.53193 15.1845 10.2559 14.6469C11.2918 13.9187 12.5858 14.3306 12.5858 14.3306V11.8872C12.9003 11.8791 13.215 11.8978 13.5262 11.9429V15.0874C13.5262 15.0874 12.2326 14.6755 11.1967 15.404C10.4731 15.9413 10.0882 16.4661 9.97543 17.4029C9.97189 17.9115 10.0674 18.5764 10.5069 19.1513C10.3982 19.0956 10.2875 19.0321 10.1746 18.9608C9.20628 18.3106 9.0299 17.3351 9.03461 16.6457ZM18.869 7.36917C18.1564 6.58831 17.8869 5.79992 17.7895 5.24609H18.686C18.686 5.24609 18.5072 6.69825 19.8098 8.12631L19.8279 8.14551C19.4768 7.92468 19.1549 7.66401 18.869 7.36917ZM23.1873 9.58298V12.6643C23.1873 12.6643 22.0434 12.6194 21.1969 12.4041C20.0149 12.1029 19.2552 11.6409 19.2552 11.6409C19.2552 11.6409 18.7303 11.3115 18.6879 11.2885V17.6514C18.6879 18.0056 18.5909 18.8904 18.2951 19.6284C17.9089 20.5937 17.313 21.2273 17.2034 21.3569C17.2034 21.3569 16.4787 22.2134 15.2 22.7902C14.0475 23.3105 13.0355 23.2973 12.7331 23.3105C12.7331 23.3105 10.9838 23.3798 9.40976 22.3568C9.06938 22.1314 8.75165 21.876 8.46069 21.5941L8.46855 21.5997C10.043 22.6226 11.7919 22.5534 11.7919 22.5534C12.0947 22.5402 13.1066 22.5534 14.2588 22.0331C15.5363 21.4563 16.2622 20.5997 16.2622 20.5997C16.3706 20.4702 16.9693 19.8366 17.3539 18.8708C17.6489 18.1333 17.7467 17.2481 17.7467 16.8938V10.5318C17.7891 10.5551 18.3136 10.8845 18.3136 10.8845C18.3136 10.8845 19.0737 11.3469 20.2557 11.6477C21.1026 11.8631 22.2461 11.9079 22.2461 11.9079V9.49338C22.6374 9.5811 22.9709 9.60482 23.1873 9.58298Z" fill="#FD355A"/>
<path d="M22.2466 9.49338V11.9071C22.2466 11.9071 21.1031 11.8623 20.2561 11.647C19.0741 11.3458 18.314 10.8838 18.314 10.8838C18.314 10.8838 17.7896 10.5544 17.7471 10.531V16.8946C17.7471 17.2489 17.6501 18.134 17.3543 18.8716C16.9682 19.8373 16.3723 20.471 16.2627 20.6005C16.2627 20.6005 15.5375 21.457 14.2592 22.0338C13.1071 22.5541 12.0952 22.5409 11.7923 22.5541C11.7923 22.5541 10.0434 22.6234 8.46899 21.6005L8.46113 21.5948C8.2949 21.4338 8.13843 21.2639 7.99249 21.0858C7.49006 20.4732 7.18209 19.7488 7.1047 19.5421C7.10457 19.5413 7.10457 19.5404 7.1047 19.5395C6.98018 19.1803 6.71855 18.3178 6.7543 17.4823C6.81755 16.0083 7.33608 15.1036 7.47317 14.8769C7.83626 14.2589 8.3085 13.7059 8.86888 13.2426C9.36338 12.8428 9.92388 12.5247 10.5274 12.3013C11.1798 12.0391 11.8784 11.8985 12.5858 11.8872V14.3306C12.5858 14.3306 11.2918 13.9203 10.2563 14.6469C9.53237 15.1845 9.14818 15.709 9.03505 16.6457C9.03033 17.3351 9.20671 18.3106 10.1742 18.9612C10.2871 19.0327 10.3979 19.0962 10.5066 19.1517C10.6756 19.3714 10.8813 19.5629 11.1155 19.7183C12.0606 20.3166 12.8525 20.3584 13.8652 19.9698C14.5405 19.7101 15.0488 19.1246 15.2845 18.4759C15.4326 18.0708 15.4306 17.663 15.4306 17.2413V5.24609H17.7876C17.885 5.79992 18.1545 6.58831 18.8671 7.36917C19.1529 7.66401 19.4749 7.92468 19.826 8.14551C19.9297 8.25281 20.46 8.7833 21.1408 9.10897C21.4928 9.27731 21.8638 9.40629 22.2466 9.49338V9.49338Z" fill="white"/>
<path d="M6.1665 18.7917V18.7936L6.22499 18.9521C6.21827 18.9337 6.19654 18.8776 6.1665 18.7917Z" fill="#33F3ED"/>
<path d="M10.5273 12.3012C9.92375 12.5246 9.36325 12.8427 8.86875 13.2425C8.3082 13.7068 7.83607 14.261 7.47344 14.8803C7.33634 15.1062 6.81781 16.0116 6.75456 17.4856C6.71882 18.3211 6.98044 19.1836 7.10497 19.5428C7.10483 19.5437 7.10483 19.5446 7.10497 19.5455C7.18353 19.7503 7.49033 20.4747 7.99275 21.0891C8.1387 21.2672 8.29517 21.4372 8.46139 21.5981C7.9288 21.2451 7.4538 20.8183 7.05193 20.3316C6.55383 19.7243 6.24664 19.0074 6.1665 18.7958C6.16641 18.7943 6.16641 18.7928 6.1665 18.7913V18.7887C6.04159 18.4299 5.77918 17.567 5.81571 16.7304C5.87896 15.2564 6.39749 14.3517 6.53458 14.125C6.89711 13.5057 7.36925 12.9515 7.9299 12.4872C8.4243 12.0873 8.98482 11.7692 9.58841 11.546C9.9649 11.3963 10.3571 11.2858 10.7582 11.2165C11.3628 11.1154 11.9802 11.1066 12.5876 11.1906V11.8871C11.8796 11.8982 11.1803 12.0388 10.5273 12.3012Z" fill="#33F3ED"/>
<path d="M17.7894 5.24604H15.4325V17.2417C15.4325 17.6634 15.4325 18.07 15.2863 18.4762C15.0483 19.1245 14.5419 19.71 13.8671 19.9698C12.854 20.3598 12.062 20.3165 11.1173 19.7183C10.8828 19.5635 10.6765 19.3727 10.5068 19.1535C11.3117 19.565 12.0322 19.5579 12.9247 19.2145C13.5992 18.9547 14.1063 18.3693 14.3436 17.7206C14.4921 17.3155 14.4901 16.9077 14.4901 16.4864V4.48853H17.7447C17.7447 4.48853 17.7081 4.78671 17.7894 5.24604ZM22.2464 8.82579V9.49332C21.8644 9.4061 21.494 9.27712 21.1426 9.10892C20.4618 8.78325 19.9315 8.25276 19.8278 8.14546C19.9481 8.22118 20.073 8.29008 20.2018 8.35178C21.0295 8.74786 21.8446 8.86608 22.2464 8.82579Z" fill="#33F3ED"/>
</g>
<defs>
<clipPath id="clip0_244_514">
<rect width="27.8" height="27.8" fill="white" transform="translate(0.599854)"/>
</clipPath>
</defs>
</svg>
