<svg width="25" height="25" viewBox="0 0 25 25" fill="none" xmlns="http://www.w3.org/2000/svg">
<path d="M11.711 1.01386C9.37208 1.21852 7.40349 1.96892 5.54211 3.36251C4.95738 3.80106 3.78793 4.97051 3.34938 5.55524C2.08248 7.2607 1.36131 9.01488 1.0592 11.1394C0.971495 11.7728 0.98124 13.3906 1.08844 14.063C1.39055 16.0413 2.14095 17.8345 3.34938 19.462C3.78793 20.0467 4.95738 21.2162 5.54211 21.6547C7.15986 22.8632 8.97251 23.6233 10.9411 23.9157C11.711 24.0326 13.28 24.0326 14.0596 23.9157C16.0282 23.6136 17.8409 22.8632 19.4586 21.6547C20.0433 21.2162 21.2128 20.0467 21.6513 19.462C22.6161 18.1659 23.2788 16.8015 23.6589 15.3202C23.9318 14.2384 24 13.6635 24 12.5037C24 11.344 23.9318 10.7691 23.6589 9.68731C23.2788 8.206 22.6161 6.8319 21.6513 5.5455C21.2128 4.96077 20.0433 3.79131 19.4586 3.35277C17.8409 2.14433 16.0185 1.37444 14.0791 1.09182C13.5724 1.02361 12.1495 0.974879 11.711 1.01386ZM14.1279 1.84222C16.4375 2.19306 18.5328 3.25531 20.1408 4.86331C21.778 6.5103 22.8111 8.56659 23.1716 10.925C23.2886 11.6754 23.2886 13.3419 23.1716 14.0825C22.8695 16.0511 22.0899 17.8345 20.8815 19.3158C19.176 21.4111 16.8079 22.756 14.0694 23.1848C13.319 23.3017 11.6525 23.3017 10.9119 23.1848C8.5632 22.8144 6.47768 21.7814 4.85018 20.1539C3.22269 18.5264 2.17993 16.4507 1.81935 14.0923C1.7024 13.3419 1.7024 11.6754 1.81935 10.9347C2.12146 8.98564 2.87186 7.2607 4.07055 5.74041C4.42138 5.30186 5.27898 4.43451 5.73702 4.08368C6.92597 3.13837 8.41702 2.40746 9.89833 2.04688C10.3271 1.94942 11.0385 1.82273 11.594 1.76426C12.0033 1.71553 13.6601 1.76426 14.1279 1.84222Z" fill="black" stroke="black" stroke-width="0.2"/>
<path d="M11.633 3.63546C9.69365 3.82062 7.7738 4.72695 6.30224 6.14004C5.06456 7.32898 4.13874 8.99545 3.77816 10.6717C3.35911 12.6208 3.62224 14.6478 4.52856 16.441C5.43489 18.2536 6.84798 19.657 8.66063 20.5341C9.72289 21.0408 10.6487 21.304 11.8474 21.4014C14.5371 21.6256 17.3341 20.4756 19.1857 18.3706C20.7645 16.5774 21.5831 14.1508 21.3882 11.8606C21.2907 10.6619 21.0276 9.73611 20.5209 8.67385C18.8739 5.29218 15.3265 3.27487 11.633 3.63546ZM13.9232 4.44433C17.0027 4.99982 19.4391 7.15356 20.3357 10.1162C20.5988 10.9835 20.6573 11.4318 20.6573 12.5136C20.6573 13.5856 20.5988 14.0436 20.3357 14.9109C19.9361 16.2558 19.3027 17.2986 18.2989 18.3024C17.0807 19.5205 15.6481 20.2709 13.9232 20.5828C13.2702 20.6997 11.7402 20.6997 11.0873 20.5828C7.64711 19.9591 5.06456 17.3863 4.43111 13.9364C4.31416 13.2835 4.31416 11.7632 4.43111 11.1005C4.90864 8.48869 6.52638 6.31546 8.85554 5.17524C9.67416 4.77567 10.6195 4.49306 11.5258 4.37611C12.0326 4.31764 13.4262 4.35662 13.9232 4.44433Z" fill="black" stroke="black" stroke-width="0.2"/>
<path d="M8.4755 5.85721C8.24161 5.91568 7.86154 6.14957 7.70561 6.31525C7.62765 6.40296 7.5107 6.57837 7.44249 6.71481L7.3158 6.95845V12.5134V18.0683L7.47172 18.3606C7.65689 18.692 7.84205 18.8674 8.18314 19.0526C8.53398 19.2377 9.02125 19.2377 9.36234 19.0526C9.71318 18.8674 9.89834 18.692 10.0738 18.3606L10.2297 18.0683V12.5134V6.95845L10.103 6.71481C9.91783 6.36397 9.73267 6.17881 9.42081 6.01314C9.14794 5.85721 8.73863 5.78899 8.4755 5.85721ZM9.23565 6.67583C9.49878 6.87074 9.52801 6.99743 9.52801 8.05968C9.52801 8.81008 9.51827 9.02448 9.46954 9.00499C9.4403 8.99525 9.09921 8.88805 8.71914 8.76135L8.02721 8.53721L8.03696 7.75757C8.0467 6.89023 8.07594 6.80252 8.40729 6.63685C8.62169 6.52965 9.06023 6.54914 9.23565 6.67583ZM8.84583 9.56048L9.52801 9.78463V10.5253C9.52801 11.1003 9.51827 11.2562 9.46954 11.2367C9.4403 11.227 9.09921 11.1198 8.72889 10.9931L8.03696 10.7689V10.0283C8.03696 9.45328 8.0467 9.29736 8.09543 9.31685C8.12467 9.32659 8.46576 9.43379 8.84583 9.56048ZM8.84583 11.7922L9.52801 12.0163V12.757C9.52801 13.332 9.51827 13.4879 9.46954 13.4684C9.4403 13.4587 9.09921 13.3515 8.72889 13.2248L8.03696 13.0006V12.26C8.03696 11.685 8.0467 11.5291 8.09543 11.5486C8.12467 11.5583 8.46576 11.6655 8.84583 11.7922ZM8.84583 14.0239L9.52801 14.248V14.9887C9.52801 15.5637 9.51827 15.7196 9.46954 15.7001C9.4403 15.6904 9.09921 15.5832 8.72889 15.4565L8.03696 15.2323V14.4917C8.03696 13.9167 8.0467 13.7608 8.09543 13.7803C8.12467 13.79 8.46576 13.8972 8.84583 14.0239ZM8.84583 16.2556L9.52801 16.4798V17.2009C9.52801 17.7954 9.51827 17.9513 9.4403 18.078C9.30387 18.3509 9.14794 18.4288 8.77761 18.4288C8.40729 18.4288 8.25136 18.3411 8.11492 18.078C8.0467 17.9416 8.02721 17.7759 8.02721 16.9475C8.02721 16.1971 8.03696 15.9827 8.08569 16.0022C8.12467 16.0217 8.46576 16.1289 8.84583 16.2556Z" fill="black" stroke="black" stroke-width="0.2"/>
<path d="M14.8003 7.3679C14.3617 7.45561 14.1766 7.51409 13.7868 7.70899C12.6758 8.25474 11.8669 9.25852 11.5258 10.5059C11.4186 10.8958 11.4186 10.9152 11.4186 13.5758C11.4186 16.0414 11.4186 16.2752 11.5063 16.5286C11.8084 17.5227 12.5783 18.351 13.5041 18.6824C13.7965 18.7798 13.9232 18.7993 14.3812 18.7993C14.8393 18.7993 14.966 18.7798 15.2583 18.6824C15.7456 18.507 16.0769 18.2926 16.457 17.9222C16.8273 17.5422 17.0417 17.2108 17.2074 16.7235C17.3146 16.4312 17.3341 16.2947 17.3438 15.788C17.3536 15.096 17.3731 15.0571 17.7824 14.7744C18.5913 14.2092 19.1955 13.3321 19.4586 12.3771C19.5853 11.8898 19.595 10.9542 19.4781 10.4962C19.0785 8.98565 18.0163 7.89416 16.5447 7.4751C15.999 7.31918 15.2778 7.27045 14.8003 7.3679ZM16.2134 8.1183C16.418 8.15729 16.7591 8.28398 17.0125 8.40092C17.3828 8.57634 17.5095 8.67379 17.8506 9.01488C18.2892 9.45343 18.5133 9.82376 18.6985 10.4182C18.7959 10.7203 18.8057 10.8568 18.8057 11.422C18.8057 12.0165 18.7959 12.1139 18.6692 12.4453C18.601 12.6499 18.4743 12.9326 18.3964 13.069C18.2014 13.4003 17.7629 13.8681 17.3536 14.1702C16.7494 14.6088 16.5934 14.9304 16.5934 15.6808C16.5934 16.4507 16.4083 16.9574 15.9892 17.4057C15.4532 17.971 14.5761 18.2146 13.7868 18.0099C12.9876 17.8053 12.3444 17.1036 12.1788 16.246C12.1398 16.0414 12.13 15.2227 12.1398 13.4101C12.1593 10.5254 12.1398 10.6424 12.5296 9.86274C12.7148 9.50216 12.822 9.35598 13.1436 9.01488C13.4749 8.68354 13.6113 8.57634 13.9817 8.40092C14.2253 8.28398 14.5566 8.15729 14.7223 8.1183C15.1414 8.03059 15.7748 8.03059 16.2134 8.1183Z" fill="black" stroke="black" stroke-width="0.2"/>
<path d="M15.0829 9.57977C14.5469 9.71621 14.0402 10.145 13.7868 10.681C13.6601 10.9539 13.6406 11.0416 13.6406 11.3827C13.6406 11.7238 13.6601 11.8115 13.7868 12.0844C13.9914 12.5229 14.2935 12.825 14.7223 13.0394C15.0439 13.1953 15.1024 13.2148 15.4727 13.2148C15.8431 13.2148 15.9015 13.2051 16.2231 13.0394C16.6519 12.825 16.954 12.5229 17.1587 12.0844C17.2854 11.8115 17.3049 11.7238 17.3049 11.3827C17.3049 11.0416 17.2854 10.9539 17.1587 10.681C16.8566 10.0281 16.2426 9.58952 15.5897 9.55054C15.4143 9.55054 15.1901 9.56028 15.0829 9.57977ZM15.9015 10.3497C16.457 10.5446 16.7299 11.2073 16.5252 11.8212C16.2816 12.5326 15.2388 12.747 14.6834 12.2013C14.2643 11.792 14.2643 11.0026 14.6834 10.5933C14.9757 10.2912 15.4727 10.1937 15.9015 10.3497Z" fill="black" stroke="black" stroke-width="0.2"/>
</svg>
