<svg width="27" height="20" viewBox="0 0 27 20" fill="none" xmlns="http://www.w3.org/2000/svg">
<path d="M12.5784 0.561774C12.4936 0.572368 12.2076 0.614741 11.964 0.646521C10.9682 0.784232 9.78178 1.155 8.8072 1.65288C5.58686 3.29483 3.48941 6.40923 3.16102 10.0215L3.09746 10.7101L2.54661 11.2397C1.54025 12.2037 1 13.0512 1 13.655C1 13.9516 1.02119 13.994 1.23305 14.2164C1.49788 14.5025 2.00636 14.7673 2.44068 14.852C2.89619 14.9368 3.20339 14.8308 3.59534 14.4495L3.83898 14.2164V14.8414V15.4664H3.46822H3.10805L3.12924 16.9601L3.15042 18.4537L3.33051 18.8245C3.53178 19.227 3.8072 19.513 4.22034 19.7143L4.47458 19.8414H13.5H22.5254L22.7797 19.7143C23.1928 19.513 23.4788 19.227 23.6695 18.8245L23.8496 18.4537L23.8708 16.9601L23.892 15.4664H23.5318H23.161V14.9897C23.161 14.7249 23.1716 14.513 23.1928 14.513C23.214 14.513 23.3517 14.5766 23.5 14.6508C23.9131 14.8626 24.1674 14.905 24.5805 14.8203C25.0784 14.7143 25.5021 14.5025 25.767 14.2058C25.9788 13.9728 26 13.941 26 13.6338C26 13.369 25.9576 13.2313 25.8093 12.9241C25.5657 12.4262 25.036 11.7694 24.4004 11.1656L23.892 10.6889L23.8284 10.0321C23.4894 6.37745 21.4025 3.28423 18.1822 1.63169C17.2606 1.155 16.2542 0.826605 15.1949 0.646521C14.7606 0.582961 12.9068 0.508808 12.5784 0.561774ZM15.1208 1.52576C18.9555 2.18254 22.0593 5.19101 22.822 8.99398C22.8856 9.30118 22.9492 9.75669 22.9703 10.0003L23.0127 10.4664H13.5H3.99788V10.2228C3.99788 9.83084 4.20975 8.70796 4.38983 8.12533C5.66102 4.01516 9.50636 1.25033 13.7542 1.38805C14.1462 1.40923 14.7712 1.47279 15.1208 1.52576ZM5.34322 11.6105C7.57839 12.7864 10.3114 12.7546 12.1017 11.5364L12.4407 11.3033H14.2733H16.1059L16.4555 11.6105C17.1547 12.2249 17.928 12.4897 18.9767 12.4897C20.0148 12.4897 20.8729 12.2249 21.7733 11.6317L22.2818 11.3033H22.8008H23.3199L24.0191 12.013C24.75 12.7652 25.1843 13.3372 25.1843 13.5702C25.1843 13.6762 25.1314 13.7291 24.8771 13.8457C24.464 14.0364 24.1886 14.0575 23.9661 13.941C23.8602 13.888 23.4364 13.6126 23.0021 13.3266C21.5191 12.3308 21.1165 12.352 20.3008 13.4961C20.1314 13.7397 19.9619 13.941 19.9301 13.9622C19.8983 13.9728 19.7394 13.7821 19.5699 13.5385C19.411 13.2948 19.1674 12.9876 19.0403 12.8711C18.8284 12.6804 18.7648 12.6486 18.5424 12.6486C18.0975 12.6486 17.875 12.8393 17.3771 13.5914C17.2288 13.8033 17.0911 13.9834 17.0593 13.9728C17.0275 13.9622 16.8475 13.7291 16.6568 13.4537C16.2331 12.8499 15.9576 12.6275 15.5975 12.6275C15.2373 12.638 14.9089 12.8393 14.2097 13.4749C13.8814 13.7821 13.5636 14.0258 13.5 14.0258C13.447 14.0258 13.1292 13.7715 12.7903 13.4749C12.0911 12.8393 11.7627 12.6275 11.4131 12.6275C10.9894 12.6275 10.8517 12.7334 10.3114 13.4855C10.0996 13.7821 9.9089 14.0258 9.88771 14.0258C9.81356 14.0258 9.53814 13.8033 9.04025 13.3266C8.48941 12.7969 8.1928 12.6275 7.84322 12.6275C7.41949 12.6275 7.21822 12.8075 6.55085 13.7715L6.37076 14.0364L6.22246 13.9092C6.1483 13.8351 5.92585 13.5914 5.74576 13.369C5.33263 12.8605 5.00424 12.638 4.66525 12.638C4.2839 12.638 4.06144 12.7758 3.42585 13.4219C2.74788 14.1105 2.68432 14.1317 2.15466 13.8669C1.87924 13.7291 1.84746 13.6974 1.85805 13.5385C1.86864 13.2736 2.27119 12.7334 3.01271 11.9813L3.68008 11.3033H4.22034H4.76059L5.34322 11.6105ZM10.4809 11.3669C10.0678 11.6105 8.36229 11.6847 7.52542 11.5046C7.28178 11.4516 7.03814 11.3775 6.99576 11.3563C6.9428 11.3245 7.66314 11.3139 8.74364 11.3139C10.0254 11.3139 10.5551 11.3245 10.4809 11.3669ZM20.4703 11.3669C20.4386 11.3986 20.2055 11.4728 19.9513 11.5364C19.5593 11.6317 19.3792 11.6529 18.8496 11.6211C18.2352 11.5999 17.7267 11.4834 17.642 11.3563C17.6208 11.3245 18.214 11.3033 19.072 11.3033C20.036 11.3033 20.5021 11.3245 20.4703 11.3669ZM5.01483 13.8139C5.81992 14.7461 5.96822 14.8626 6.40254 14.8626C6.75212 14.8626 6.95339 14.7037 7.4089 14.0575C7.62076 13.7609 7.83263 13.5067 7.875 13.4961C7.90678 13.4749 8.22458 13.7397 8.57415 14.0575C9.32627 14.7567 9.54873 14.8838 9.98305 14.852C10.2479 14.8308 10.3114 14.7991 10.5127 14.6084C10.6398 14.4919 10.8623 14.2164 11.0106 14.0046C11.3708 13.4749 11.4131 13.4431 11.5932 13.5597C11.6674 13.6126 11.9428 13.8457 12.2076 14.0893C12.8644 14.7143 13.1292 14.8626 13.5106 14.8626C13.9025 14.8626 14.1568 14.7143 14.8136 14.0893C15.0784 13.8457 15.3538 13.602 15.4386 13.5491C15.6081 13.4431 15.5869 13.4114 16.1377 14.1953C16.5085 14.7037 16.7203 14.8626 17.0699 14.8626C17.4301 14.8626 17.6631 14.6825 18.0869 14.0575C18.2775 13.7821 18.4576 13.5491 18.4894 13.5385C18.5212 13.5279 18.6589 13.6868 18.7966 13.8986C19.2839 14.6508 19.517 14.8626 19.8877 14.8626C20.3114 14.8626 20.5339 14.6825 21.0742 13.888C21.3919 13.4114 21.4555 13.3902 21.8898 13.6126C22.3771 13.8669 22.3559 13.8351 22.3559 14.7037V15.4664H13.5H4.66525V14.5554C4.66525 14.0575 4.64407 13.602 4.63347 13.5597C4.55932 13.369 4.72881 13.4961 5.01483 13.8139ZM12.0275 17.0342L14.1886 17.7546L16.7309 17.0342L19.2733 16.3139L21.1589 16.3245L23.0339 16.3457L23.0233 17.3203C23.0233 18.1042 23.0021 18.3266 22.928 18.4643C22.8008 18.6974 22.536 18.9092 22.2924 18.9834C22.0064 19.0575 4.99364 19.0575 4.71822 18.9834C4.60169 18.9516 4.4322 18.8563 4.33686 18.7821C4.01907 18.5173 3.9767 18.3796 3.95551 17.3838C3.94492 16.8859 3.94492 16.441 3.9661 16.3986C3.99788 16.3245 4.37924 16.3139 6.9322 16.3139H9.86653L12.0275 17.0342ZM16.053 16.3245C16.0424 16.3351 15.6292 16.4622 15.1314 16.5999L14.2415 16.8541L13.4364 16.5787L12.6314 16.3139L14.3475 16.3033C15.3008 16.3033 16.0636 16.3139 16.053 16.3245Z" fill="black" stroke="black" stroke-width="0.2"/>
<path d="M10.4597 2.70162C10.2797 2.79696 10.1949 3.0512 10.2797 3.24188C10.375 3.47493 10.5869 3.53849 11.1165 3.5173C11.5085 3.49611 11.5826 3.48552 11.6674 3.369C11.8051 3.1995 11.8051 2.96645 11.6674 2.80755C11.572 2.68044 11.5085 2.66984 11.0636 2.65925C10.7987 2.64866 10.5233 2.66984 10.4597 2.70162Z" fill="black" stroke="black" stroke-width="0.2"/>
<path d="M13.2246 2.79669C13.1293 2.88143 13.0551 3.00855 13.0551 3.08271C13.0551 3.15686 13.1293 3.27338 13.2246 3.36872L13.3941 3.53821L14.2627 3.51703C15.0996 3.49584 15.1314 3.49584 15.2373 3.36872C15.2903 3.29457 15.3432 3.16745 15.3432 3.08271C15.3432 2.99796 15.2903 2.87084 15.2373 2.79669C15.142 2.66957 15.0996 2.65898 14.2627 2.64838L13.3941 2.6272L13.2246 2.79669Z" fill="black" stroke="black" stroke-width="0.2"/>
<path d="M7.31361 4.40702C6.60386 5.12736 6.5509 5.25448 6.80513 5.49813C7.06996 5.76296 7.21827 5.6994 7.87505 5.0638C8.19284 4.7566 8.50005 4.42821 8.54242 4.34347C8.69073 4.05745 8.50005 3.75024 8.17166 3.75024C7.98098 3.75024 7.90683 3.80321 7.31361 4.40702Z" fill="black" stroke="black" stroke-width="0.2"/>
<path d="M11.4238 4.57628C10.8835 5.11653 10.8305 5.26484 11.0742 5.50848C11.3178 5.75212 11.4555 5.69916 12.0064 5.1589C12.5466 4.61865 12.5996 4.47034 12.356 4.2267C12.1123 3.97246 11.9746 4.02543 11.4238 4.57628Z" fill="black" stroke="black" stroke-width="0.2"/>
<path d="M16.0636 4.19499C15.9788 4.26914 15.9365 4.37507 15.9365 4.51278C15.9365 4.70346 15.9894 4.77761 16.5615 5.34965C17.1335 5.92168 17.2076 5.97465 17.3983 5.97465C17.6526 5.97465 17.8221 5.80516 17.8221 5.56151C17.8221 5.4238 17.7055 5.28609 17.1653 4.73524C16.4661 4.0255 16.3178 3.96194 16.0636 4.19499Z" fill="black" stroke="black" stroke-width="0.2"/>
<path d="M18.9026 4.21631C18.7966 4.33283 18.7755 4.40699 18.7755 4.87309C18.7755 5.36038 18.786 5.41334 18.9026 5.51928C19.0721 5.67817 19.3051 5.67817 19.464 5.49809C19.5911 5.37097 19.6017 5.318 19.6017 4.8625C19.6017 4.40699 19.5911 4.34343 19.464 4.2269C19.3051 4.04682 19.0615 4.03622 18.9026 4.21631Z" fill="black" stroke="black" stroke-width="0.2"/>
<path d="M13.0445 5.79492C12.4407 6.38814 12.3877 6.46229 12.3877 6.64238C12.3877 6.97077 12.6949 7.16144 12.9809 7.01314C13.0657 6.97077 13.3941 6.66356 13.7119 6.34577C14.3475 5.68899 14.411 5.54068 14.1356 5.27585C13.892 5.02161 13.7648 5.08517 13.0445 5.79492Z" fill="black" stroke="black" stroke-width="0.2"/>
<path d="M8.92377 5.62512C8.8708 5.67809 8.82843 5.8158 8.82843 5.92173C8.82843 6.09123 8.89199 6.17597 9.32631 6.5997C9.64411 6.9069 9.85597 7.08699 9.94072 7.08699C10.0149 7.08699 10.142 7.01284 10.2267 6.92809C10.3115 6.84334 10.3856 6.71623 10.3856 6.64207C10.3856 6.56792 10.2161 6.34546 9.89835 6.02767C9.47462 5.58275 9.40046 5.52979 9.22038 5.52979C9.09326 5.52979 8.98733 5.57216 8.92377 5.62512Z" fill="black" stroke="black" stroke-width="0.2"/>
<path d="M6.80505 7.05548C6.56141 7.29912 6.61437 7.43684 7.15463 7.97709C7.56776 8.40082 7.6631 8.47497 7.822 8.47497C8.06565 8.47497 8.22454 8.30548 8.22454 8.07243C8.22454 7.91353 8.16099 7.81819 7.72666 7.40506C7.18641 6.8648 7.0487 6.81184 6.80505 7.05548Z" fill="black" stroke="black" stroke-width="0.2"/>
<path d="M15.3644 7.03442L15.2161 7.14035V8.04078C15.2161 8.90942 15.2267 8.9412 15.3432 9.05772C15.5127 9.21662 15.7458 9.21662 15.9047 9.03654C16.0424 8.89883 16.0424 8.87764 16.0424 8.04078C16.0424 7.19332 16.0318 7.17213 15.9047 7.04501C15.7458 6.88611 15.5657 6.87552 15.3644 7.03442Z" fill="black" stroke="black" stroke-width="0.2"/>
<path d="M18.1928 7.0554C17.928 7.32023 17.9915 7.46854 18.6271 8.12531C18.9343 8.44311 19.2627 8.75032 19.3475 8.79269C19.6335 8.94099 19.9407 8.75032 19.9407 8.42193C19.9407 8.24184 19.8877 8.16769 19.2839 7.57447C18.5636 6.85413 18.447 6.80116 18.1928 7.0554Z" fill="black" stroke="black" stroke-width="0.2"/>
<path d="M9.10382 8.29469C8.39408 9.00444 8.34111 9.11037 8.56357 9.38579C8.64832 9.49173 8.72247 9.5341 8.88137 9.5341C9.07204 9.5341 9.1462 9.48113 9.70764 8.9091C10.0466 8.57012 10.3432 8.23113 10.3644 8.16757C10.4068 8.01927 10.2691 7.73325 10.142 7.68029C9.86654 7.57435 9.7606 7.63791 9.10382 8.29469Z" fill="black" stroke="black" stroke-width="0.2"/>
<path d="M11.7839 7.76515C11.625 7.93464 11.625 8.21007 11.7839 8.35837C11.8898 8.45371 11.9746 8.46431 12.4407 8.46431C12.9598 8.46431 12.9809 8.45371 13.0975 8.316C13.2564 8.12532 13.2458 7.93464 13.0763 7.76515C12.9492 7.63803 12.8962 7.62744 12.4195 7.62744C11.9534 7.63803 11.8898 7.64863 11.7839 7.76515Z" fill="black" stroke="black" stroke-width="0.2"/>
<path d="M21.0318 7.77569C20.894 7.9134 20.894 7.93459 20.894 8.77145C20.894 9.60831 20.9046 9.64009 21.0318 9.76721C21.2012 9.9367 21.3919 9.9473 21.5826 9.7884L21.7309 9.68247V8.77145C21.7309 7.90281 21.7203 7.84984 21.6038 7.74391C21.4343 7.6062 21.1907 7.6062 21.0318 7.77569Z" fill="black" stroke="black" stroke-width="0.2"/>
<path d="M4.84534 9.09952C4.52754 9.18426 4.4428 9.5974 4.69703 9.80927C4.83475 9.9152 4.91949 9.92579 5.63983 9.92579C6.11653 9.92579 6.48729 9.89401 6.57203 9.86223C6.83686 9.73511 6.87924 9.35376 6.64619 9.15248C6.55085 9.06774 5.11017 9.02537 4.84534 9.09952Z" fill="black" stroke="black" stroke-width="0.2"/>
</svg>
