<svg width="15" height="22" viewBox="0 0 15 22" fill="none" xmlns="http://www.w3.org/2000/svg">
<path d="M3.29225 0.759651C2.97116 1.58022 2.16842 2.16889 1.2765 2.24917L1 2.26701V3.16785V4.0687H1.45488C1.70462 4.0687 1.90976 4.0687 1.90976 4.07761C1.90976 4.08653 2.12383 8.01101 2.37357 12.8006L2.83737 21.5058L7.75188 21.5148L12.6664 21.5237L12.7645 19.8201C12.818 18.8836 13.041 14.9591 13.264 11.0971L13.6564 4.07761L14.0578 4.0687L14.4592 4.05978V3.16785V2.26701L14.1559 2.24025C13.8259 2.21349 13.4245 2.0797 13.1213 1.91024C12.711 1.66942 12.2561 1.09858 12.1134 0.634782L12.0599 0.483154H7.72512H3.4082L3.29225 0.759651ZM11.6318 1.41968C12.0242 2.10646 12.604 2.57918 13.3532 2.83784L13.6921 2.95379V3.13217V3.31056H7.72512H1.75814V3.13217V2.95379L2.09707 2.83784C2.82845 2.57918 3.43496 2.08862 3.81849 1.41968L3.93444 1.22345H7.72512H11.5158L11.6318 1.41968ZM12.8805 4.18465C12.8805 4.24708 12.8359 5.07657 12.7734 6.03093C12.7199 6.98529 12.6664 7.80586 12.6664 7.85938V7.94857L7.76972 7.93965L2.86412 7.93073L2.77493 6.32527C2.72142 5.44226 2.68574 4.56817 2.68574 4.38979V4.0687H7.77864H12.8715V4.18465H12.8805ZM12.6129 8.99213C12.5861 9.32214 12.3453 13.5945 12.3453 13.7283C12.3453 13.8085 12.3007 13.8085 7.7608 13.8085C5.24557 13.8085 3.1763 13.8085 3.1763 13.7996C3.1763 13.7996 3.12278 12.7471 3.05143 11.4806C2.98899 10.2051 2.92656 9.06348 2.92656 8.92969V8.69779H7.77864H12.6307L12.6129 8.99213ZM12.2739 14.5845C12.2829 14.6113 11.9528 20.7031 11.935 20.7745C11.935 20.7834 10.053 20.7834 7.74296 20.7834H3.56875L3.54199 20.4445C3.52415 20.1769 3.22981 14.6826 3.22981 14.5756C3.22981 14.5488 12.2561 14.5488 12.2739 14.5845Z" fill="black" stroke="black" stroke-width="0.3"/>
<path d="M6.37831 1.98149C6.36939 2.01717 6.36047 2.18664 6.36939 2.36502L6.37831 2.69503L7.75187 2.70395L9.12544 2.71287V2.32043V1.92798H7.76079C6.66372 1.92798 6.39614 1.9369 6.37831 1.98149Z" fill="black" stroke="black" stroke-width="0.3"/>
</svg>
