<svg width="24" height="25" viewBox="0 0 24 25" fill="none" xmlns="http://www.w3.org/2000/svg">
<path d="M3.26439 24.2809C2.17626 24.3012 1.24066 23.6605 0.894902 22.6741C0.793207 22.3893 0.94575 22.0741 1.24066 21.9724C1.52541 21.8707 1.84066 22.0232 1.94236 22.3182C2.12541 22.847 2.63388 23.2029 3.1932 23.1927C8.54235 22.9792 13.5051 20.7724 17.1966 16.9792C20.8881 13.186 22.9118 8.20293 22.8915 2.94531C22.8915 2.59954 22.7491 2.27412 22.505 2.03005C22.322 1.847 21.7423 1.5826 21.4474 1.54192C21.1423 1.50124 20.9288 1.21649 20.9796 0.92158C21.0203 0.616496 21.305 0.402937 21.6 0.453784C22.0678 0.524971 22.8915 0.870733 23.2678 1.23683C23.7254 1.68429 23.9898 2.30463 24 2.94531C24.0101 8.48767 21.8847 13.7453 17.9898 17.7521C14.0949 21.7283 8.86777 24.0571 3.26439 24.2809Z" fill="black"/>
<path d="M2.33898 22.9897C1.04746 22.9897 0 21.9422 0 20.6507V2.95582C0 1.48125 1.2 0.28125 2.67457 0.28125H20.3796C21.0101 0.28125 21.6 0.525317 22.0474 0.982944C22.4847 1.4304 22.7288 2.04057 22.7186 2.66091C22.6169 8.05073 20.461 13.1151 16.6474 16.9287C12.8339 20.7422 7.76948 22.8982 2.37966 22.9999H2.33898V22.9897ZM2.67457 1.38972C1.81017 1.38972 1.10847 2.09142 1.10847 2.95582V20.6609C1.10847 21.3422 1.65762 21.8914 2.33898 21.8914H2.36949C7.46439 21.7999 12.2644 19.7558 15.8644 16.1558C19.4745 12.5456 21.5186 7.75582 21.6 2.65074C21.6101 2.32531 21.4779 1.99989 21.2542 1.76599C21.0203 1.5321 20.7152 1.39989 20.3796 1.39989H2.67457V1.38972Z" fill="black"/>
<path d="M19.6169 3.21C19.5966 3.69814 19.5559 4.19644 19.4949 4.68458C19.383 4.69475 19.2712 4.69475 19.1695 4.69475C18.8441 4.69475 18.5288 4.65407 18.2441 4.57271C18.1627 4.28797 18.122 3.97271 18.122 3.64729C18.122 3.49475 18.1322 3.35238 18.1525 3.21H19.6169ZM19.9627 2.53882H17.7254C17.6542 2.53882 17.5932 2.58967 17.5729 2.66085C17.5017 2.96594 17.4508 3.30153 17.4508 3.64729C17.4508 4.10492 17.522 4.53204 17.6542 4.89814C17.6949 5.02017 17.7864 5.1117 17.9085 5.15237C18.2746 5.27441 18.7118 5.35576 19.1593 5.35576C19.4847 5.35576 19.8 5.31509 20.0847 5.25407C20.2068 4.47102 20.2678 3.6778 20.2881 2.87441C20.2881 2.69136 20.1457 2.53882 19.9627 2.53882ZM19.1695 6.50491C19.0068 7.19644 18.8034 7.87779 18.5491 8.54898C18.4474 8.52864 18.3457 8.5083 18.2441 8.47779C18.1627 8.19305 18.122 7.87779 18.122 7.55237C18.122 7.22695 18.1627 6.91169 18.2441 6.62695C18.5288 6.55576 18.8441 6.50491 19.1695 6.50491ZM19.1695 5.8439C19.1593 5.8439 19.1593 5.8439 19.1695 5.8439C18.7118 5.8439 18.2847 5.91508 17.9085 6.04729C17.7864 6.08797 17.6949 6.17949 17.6542 6.30152C17.5322 6.66763 17.461 7.10491 17.461 7.55237C17.461 8.01 17.5322 8.43711 17.6542 8.80322C17.6949 8.92525 17.7864 9.01678 17.9085 9.05745C18.1932 9.15915 18.5186 9.22016 18.8644 9.25067H18.8746C18.9356 9.25067 18.9966 9.20999 19.0271 9.14898C19.4135 8.16254 19.7288 7.13542 19.9424 6.0778C19.9627 5.98627 19.9017 5.89475 19.8102 5.88458C19.6068 5.86424 19.383 5.8439 19.1695 5.8439ZM16.2712 3.21C16.2915 3.35238 16.3017 3.50492 16.3017 3.64729C16.3017 3.97271 16.261 4.28797 16.1797 4.57271C15.8949 4.65407 15.5797 4.69475 15.2542 4.69475C14.9288 4.69475 14.6136 4.65407 14.3288 4.57271C14.2474 4.28797 14.2068 3.97271 14.2068 3.64729C14.2068 3.49475 14.2169 3.35238 14.2373 3.21H16.2712ZM16.6881 2.53882H13.8203C13.7491 2.53882 13.6881 2.58967 13.6678 2.66085C13.5966 2.96594 13.5458 3.30153 13.5458 3.64729C13.5458 4.10492 13.6169 4.53204 13.7491 4.89814C13.7898 5.02017 13.8813 5.1117 14.0034 5.15237C14.3695 5.27441 14.8068 5.35576 15.2542 5.35576C15.7119 5.35576 16.139 5.28458 16.5051 5.15237C16.6271 5.1117 16.7186 5.02017 16.7593 4.89814C16.8813 4.53204 16.9627 4.09475 16.9627 3.64729C16.9627 3.30153 16.922 2.96594 16.8407 2.66085C16.8305 2.58967 16.7695 2.53882 16.6881 2.53882ZM15.2542 6.50491C15.5797 6.50491 15.8949 6.54559 16.1797 6.62695C16.261 6.91169 16.3017 7.22695 16.3017 7.55237C16.3017 7.87779 16.261 8.19305 16.1797 8.47779C15.8949 8.55915 15.5797 8.59983 15.2542 8.59983C14.9288 8.59983 14.6136 8.55915 14.3288 8.47779C14.2474 8.19305 14.2068 7.87779 14.2068 7.55237C14.2068 7.22695 14.2474 6.91169 14.3288 6.62695C14.6136 6.55576 14.9288 6.50491 15.2542 6.50491ZM15.2542 5.8439C14.7966 5.8439 14.3695 5.91508 13.9932 6.04729C13.8712 6.08797 13.7797 6.17949 13.739 6.30152C13.6169 6.66763 13.5356 7.10491 13.5356 7.55237C13.5356 8.01 13.6068 8.43711 13.739 8.80322C13.7797 8.92525 13.8712 9.01678 13.9932 9.05745C14.3593 9.17949 14.7966 9.26084 15.2441 9.26084C15.6915 9.26084 16.1288 9.18966 16.4949 9.05745C16.6169 9.01678 16.7085 8.92525 16.7491 8.80322C16.8712 8.43711 16.9424 7.99983 16.9424 7.55237C16.9424 7.09474 16.8712 6.66763 16.7491 6.30152C16.7085 6.17949 16.6169 6.08797 16.4949 6.04729C16.139 5.91508 15.7119 5.8439 15.2542 5.8439ZM15.2542 10.4202C15.5797 10.4202 15.8949 10.4608 16.1797 10.5422C16.261 10.8269 16.3017 11.1422 16.3017 11.4676C16.3017 11.793 16.261 12.1083 16.1797 12.393C15.8949 12.4744 15.5797 12.5151 15.2542 12.5151C14.9288 12.5151 14.6136 12.4744 14.3288 12.393C14.2474 12.1083 14.2068 11.793 14.2068 11.4676C14.2068 11.1422 14.2474 10.8269 14.3288 10.5422C14.6136 10.4608 14.9288 10.4202 15.2542 10.4202ZM15.2542 9.74898C14.7966 9.74898 14.3695 9.82016 14.0034 9.95237C13.8813 9.99304 13.7898 10.0846 13.7491 10.2066C13.6271 10.5727 13.5458 11.01 13.5458 11.4574C13.5458 11.9151 13.6169 12.3422 13.7491 12.7083C13.7898 12.8303 13.8813 12.9219 14.0034 12.9625C14.3695 13.0846 14.8068 13.1659 15.2542 13.1659C15.7017 13.1659 16.139 13.0947 16.5051 12.9625C16.6271 12.9219 16.7186 12.8303 16.7593 12.7083C16.8813 12.3422 16.9525 11.9049 16.9525 11.4574C16.9525 10.9998 16.8813 10.5727 16.7593 10.2066C16.7186 10.0846 16.6271 9.99304 16.5051 9.95237C16.139 9.83033 15.7119 9.74898 15.2542 9.74898ZM14.939 14.3456C14.7051 14.5896 14.461 14.8337 14.2169 15.0676C14.2373 14.8541 14.2678 14.6507 14.3288 14.4574C14.522 14.3964 14.7356 14.3659 14.939 14.3456ZM15.2542 13.6642C14.7966 13.6642 14.3695 13.7354 14.0034 13.8676C13.8813 13.9083 13.7898 13.9998 13.7491 14.1219C13.6271 14.488 13.5458 14.9252 13.5458 15.3727C13.5458 15.6473 13.5763 15.9117 13.6169 16.1557C13.6271 16.2371 13.7085 16.2879 13.7797 16.2879C13.8102 16.2879 13.8508 16.2778 13.8813 16.2473C14.6949 15.5659 15.4474 14.8134 16.139 13.9896C16.2203 13.8981 16.1695 13.7456 16.0474 13.7252C15.7932 13.6947 15.5288 13.6642 15.2542 13.6642ZM12.3661 3.21C12.3864 3.35238 12.3966 3.50492 12.3966 3.64729C12.3966 3.97271 12.3559 4.28797 12.2746 4.57271C11.9898 4.65407 11.6746 4.69475 11.3491 4.69475C11.0237 4.69475 10.7085 4.65407 10.4237 4.57271C10.3424 4.28797 10.3017 3.97271 10.3017 3.64729C10.3017 3.49475 10.3119 3.35238 10.3322 3.21H12.3661ZM12.783 2.53882H9.91525C9.84407 2.53882 9.78305 2.58967 9.76271 2.66085C9.69152 2.96594 9.64068 3.30153 9.64068 3.64729C9.64068 4.10492 9.71186 4.53204 9.84407 4.89814C9.88474 5.02017 9.97627 5.1117 10.0983 5.15237C10.4644 5.27441 10.9017 5.35576 11.3491 5.35576C11.7966 5.35576 12.2339 5.28458 12.6 5.15237C12.722 5.1117 12.8136 5.02017 12.8542 4.89814C12.9763 4.53204 13.0576 4.09475 13.0576 3.64729C13.0576 3.30153 13.0169 2.96594 12.9356 2.66085C12.9152 2.58967 12.8542 2.53882 12.783 2.53882ZM11.3491 6.50491C11.6746 6.50491 11.9898 6.54559 12.2746 6.62695C12.3559 6.91169 12.3966 7.22695 12.3966 7.55237C12.3966 7.87779 12.3559 8.19305 12.2746 8.47779C11.9898 8.55915 11.6746 8.59983 11.3491 8.59983C11.0237 8.59983 10.7085 8.55915 10.4237 8.47779C10.3424 8.19305 10.3017 7.87779 10.3017 7.55237C10.3017 7.22695 10.3424 6.91169 10.4237 6.62695C10.7085 6.55576 11.0237 6.50491 11.3491 6.50491ZM11.3491 5.8439C10.8915 5.8439 10.4644 5.91508 10.0881 6.04729C9.9661 6.08797 9.87457 6.17949 9.8339 6.30152C9.71186 6.66763 9.63051 7.10491 9.63051 7.55237C9.63051 8.01 9.70169 8.43711 9.8339 8.80322C9.87457 8.92525 9.9661 9.01678 10.0881 9.05745C10.4542 9.17949 10.8915 9.26084 11.339 9.26084C11.7864 9.26084 12.2237 9.18966 12.5898 9.05745C12.7119 9.01678 12.8034 8.92525 12.8441 8.80322C12.9661 8.43711 13.0475 7.99983 13.0475 7.55237C13.0475 7.09474 12.9763 6.66763 12.8441 6.30152C12.8034 6.17949 12.7119 6.08797 12.5898 6.04729C12.2339 5.91508 11.7966 5.8439 11.3491 5.8439ZM11.3491 10.4202C11.6746 10.4202 11.9898 10.4608 12.2746 10.5422C12.3559 10.8269 12.3966 11.1422 12.3966 11.4676C12.3966 11.793 12.3559 12.1083 12.2746 12.393C11.9898 12.4744 11.6746 12.5151 11.3491 12.5151C11.0237 12.5151 10.7085 12.4744 10.4237 12.393C10.3424 12.1083 10.3017 11.793 10.3017 11.4676C10.3017 11.1422 10.3424 10.8269 10.4237 10.5422C10.7085 10.4608 11.0237 10.4202 11.3491 10.4202ZM11.3491 9.74898C10.8915 9.74898 10.4644 9.82016 10.0983 9.95237C9.97627 9.99304 9.88474 10.0846 9.84407 10.2066C9.72203 10.5727 9.64068 11.01 9.64068 11.4574C9.64068 11.9151 9.71186 12.3422 9.84407 12.7083C9.88474 12.8303 9.97627 12.9219 10.0983 12.9625C10.4644 13.0846 10.9017 13.1659 11.3491 13.1659C11.8068 13.1659 12.2339 13.0947 12.6 12.9625C12.722 12.9219 12.8136 12.8303 12.8542 12.7083C12.9763 12.3422 13.0576 11.9049 13.0576 11.4574C13.0576 10.9998 12.9864 10.5727 12.8542 10.2066C12.8136 10.0846 12.722 9.99304 12.6 9.95237C12.2339 9.83033 11.7966 9.74898 11.3491 9.74898ZM11.3491 14.3252C11.6746 14.3252 11.9898 14.3659 12.2746 14.4473C12.3559 14.732 12.3966 15.0473 12.3966 15.3727C12.3966 15.6981 12.3559 16.0134 12.2746 16.2981C11.9898 16.3795 11.6746 16.4202 11.3491 16.4202C11.0237 16.4202 10.7085 16.3795 10.4237 16.2981C10.3424 16.0134 10.3017 15.6981 10.3017 15.3727C10.3017 15.0473 10.3424 14.732 10.4237 14.4473C10.7085 14.3659 11.0237 14.3252 11.3491 14.3252ZM11.3491 13.6642C10.8915 13.6642 10.4644 13.7354 10.0983 13.8676C9.97627 13.9083 9.88474 13.9998 9.84407 14.1219C9.72203 14.488 9.64068 14.9252 9.64068 15.3727C9.64068 15.8202 9.71186 16.2574 9.84407 16.6235C9.88474 16.7456 9.97627 16.8371 10.0983 16.8778C10.4644 16.9998 10.9017 17.0812 11.3491 17.0812C11.8068 17.0812 12.2339 17.01 12.6 16.8778C12.722 16.8371 12.8136 16.7456 12.8542 16.6235C12.9763 16.2574 13.0576 15.8202 13.0576 15.3727C13.0576 14.9252 12.9864 14.488 12.8542 14.1219C12.8136 13.9998 12.722 13.9083 12.6 13.8676C12.2339 13.7354 11.7966 13.6642 11.3491 13.6642ZM8.37966 3.21C8.4 3.35238 8.41017 3.50492 8.41017 3.64729C8.41017 3.97271 8.36949 4.28797 8.28814 4.57271C8.00339 4.65407 7.68814 4.69475 7.36271 4.69475C7.03729 4.69475 6.72204 4.65407 6.43729 4.57271C6.35594 4.28797 6.31526 3.97271 6.31526 3.64729C6.31526 3.49475 6.32543 3.35238 6.34577 3.21H8.37966ZM8.79661 2.53882H5.91865C5.84746 2.53882 5.78645 2.58967 5.76611 2.66085C5.69492 2.96594 5.64407 3.30153 5.64407 3.64729C5.64407 4.10492 5.71526 4.53204 5.84746 4.89814C5.88814 5.02017 5.97967 5.1117 6.1017 5.15237C6.4678 5.27441 6.90509 5.35576 7.35255 5.35576C7.8 5.35576 8.23729 5.28458 8.60339 5.15237C8.72542 5.1117 8.81695 5.02017 8.85763 4.89814C8.97966 4.53204 9.06102 4.09475 9.06102 3.64729C9.06102 3.30153 9.02034 2.96594 8.93898 2.66085C8.92881 2.58967 8.8678 2.53882 8.79661 2.53882ZM7.4339 6.50491C7.75932 6.50491 8.07458 6.54559 8.35932 6.62695C8.44068 6.91169 8.48136 7.22695 8.48136 7.55237C8.48136 7.87779 8.44068 8.19305 8.35932 8.47779C8.07458 8.55915 7.75932 8.59983 7.4339 8.59983C7.10848 8.59983 6.79322 8.55915 6.50848 8.47779C6.42712 8.19305 6.38645 7.87779 6.38645 7.55237C6.38645 7.22695 6.42712 6.91169 6.50848 6.62695C6.80339 6.55576 7.11865 6.50491 7.4339 6.50491ZM7.4339 5.8439C6.97627 5.8439 6.54916 5.91508 6.17289 6.04729C6.05085 6.08797 5.95933 6.17949 5.91865 6.30152C5.79662 6.66763 5.71526 7.10491 5.71526 7.55237C5.71526 8.01 5.78645 8.43711 5.91865 8.80322C5.95933 8.92525 6.05085 9.01678 6.17289 9.05745C6.53899 9.17949 6.97627 9.26084 7.42373 9.26084C7.88136 9.26084 8.30848 9.18966 8.67458 9.05745C8.79661 9.01678 8.88814 8.92525 8.92881 8.80322C9.05085 8.43711 9.1322 7.99983 9.1322 7.55237C9.1322 7.09474 9.06102 6.66763 8.92881 6.30152C8.88814 6.17949 8.79661 6.08797 8.67458 6.04729C8.31865 5.91508 7.89153 5.8439 7.4339 5.8439ZM7.4339 10.4202C7.75932 10.4202 8.07458 10.4608 8.35932 10.5422C8.44068 10.8269 8.48136 11.1422 8.48136 11.4676C8.48136 11.793 8.44068 12.1083 8.35932 12.393C8.07458 12.4744 7.75932 12.5151 7.4339 12.5151C7.10848 12.5151 6.79322 12.4744 6.50848 12.393C6.42712 12.1083 6.38645 11.793 6.38645 11.4676C6.38645 11.1422 6.42712 10.8269 6.50848 10.5422C6.80339 10.4608 7.11865 10.4202 7.4339 10.4202ZM7.4339 9.74898C6.97627 9.74898 6.54916 9.82016 6.18306 9.95237C6.06102 9.99304 5.9695 10.0846 5.92882 10.2066C5.80679 10.5727 5.72543 11.01 5.72543 11.4574C5.72543 11.9151 5.79662 12.3422 5.92882 12.7083C5.9695 12.8303 6.06102 12.9219 6.18306 12.9625C6.54916 13.0846 6.98644 13.1659 7.4339 13.1659C7.89153 13.1659 8.31865 13.0947 8.68475 12.9625C8.80678 12.9219 8.89831 12.8303 8.93898 12.7083C9.06102 12.3422 9.14237 11.9049 9.14237 11.4574C9.14237 10.9998 9.07119 10.5727 8.93898 10.2066C8.89831 10.0846 8.80678 9.99304 8.68475 9.95237C8.31865 9.83033 7.89153 9.74898 7.4339 9.74898ZM7.4339 14.3252C7.75932 14.3252 8.07458 14.3659 8.35932 14.4473C8.44068 14.732 8.48136 15.0473 8.48136 15.3727C8.48136 15.6981 8.44068 16.0134 8.35932 16.2981C8.07458 16.3795 7.75932 16.4202 7.4339 16.4202C7.10848 16.4202 6.79322 16.3795 6.50848 16.2981C6.42712 16.0134 6.38645 15.6981 6.38645 15.3727C6.38645 15.0473 6.42712 14.732 6.50848 14.4473C6.80339 14.3659 7.11865 14.3252 7.4339 14.3252ZM7.4339 13.6642C6.97627 13.6642 6.54916 13.7354 6.18306 13.8676C6.06102 13.9083 5.9695 13.9998 5.92882 14.1219C5.80679 14.488 5.72543 14.9252 5.72543 15.3727C5.72543 15.8202 5.79662 16.2574 5.92882 16.6235C5.9695 16.7456 6.06102 16.8371 6.18306 16.8778C6.54916 16.9998 6.98644 17.0812 7.4339 17.0812C7.89153 17.0812 8.31865 17.01 8.68475 16.8778C8.80678 16.8371 8.89831 16.7456 8.93898 16.6235C9.06102 16.2574 9.14237 15.8202 9.14237 15.3727C9.14237 14.9252 9.07119 14.488 8.93898 14.1219C8.89831 13.9998 8.80678 13.9083 8.68475 13.8676C8.31865 13.7354 7.89153 13.6642 7.4339 13.6642ZM7.4339 18.2405C7.75932 18.2405 8.07458 18.2812 8.35932 18.3625C8.38983 18.4642 8.41017 18.5659 8.43051 18.6676C7.76949 18.9117 7.07797 19.1252 6.38645 19.2879C6.38645 18.9625 6.42712 18.6473 6.50848 18.3625C6.80339 18.2812 7.11865 18.2405 7.4339 18.2405ZM7.4339 17.5693C6.97627 17.5693 6.54916 17.6405 6.18306 17.7727C6.06102 17.8134 5.9695 17.9049 5.92882 18.0269C5.80679 18.393 5.72543 18.8303 5.72543 19.2778C5.72543 19.5015 5.74577 19.7151 5.77628 19.9185C5.78645 19.9998 5.85763 20.0507 5.93899 20.0507C5.94916 20.0507 5.95933 20.0507 5.9695 20.0507C7.02712 19.8371 8.05424 19.532 9.04068 19.1354C9.1017 19.1049 9.15254 19.0439 9.14237 18.9727C9.12203 18.6269 9.05085 18.3015 8.94915 18.0168C8.90847 17.8947 8.81695 17.8032 8.69492 17.7625C8.31865 17.6405 7.89153 17.5693 7.4339 17.5693ZM4.54577 3.21C4.56611 3.35238 4.57628 3.50492 4.57628 3.64729C4.57628 3.97271 4.5356 4.28797 4.45424 4.57271C4.1695 4.65407 3.85425 4.69475 3.52882 4.69475C3.37628 4.69475 3.23391 4.68458 3.09153 4.66424V3.21H4.54577ZM4.96272 2.53882H3.0712C2.71526 2.53882 2.42035 2.82356 2.42035 3.18966V5.08119C2.42035 5.15237 2.4712 5.21339 2.54238 5.23373C2.84747 5.30492 3.18306 5.35576 3.52882 5.35576C3.98645 5.35576 4.41357 5.28458 4.77967 5.15237C4.9017 5.1117 4.99323 5.02017 5.0339 4.89814C5.15594 4.53204 5.23729 4.09475 5.23729 3.64729C5.23729 3.30153 5.19662 2.96594 5.11526 2.66085C5.10509 2.58967 5.0339 2.53882 4.96272 2.53882ZM3.52882 6.50491C3.85425 6.50491 4.1695 6.54559 4.45424 6.62695C4.5356 6.91169 4.57628 7.22695 4.57628 7.55237C4.57628 7.87779 4.5356 8.19305 4.45424 8.47779C4.1695 8.55915 3.85425 8.59983 3.52882 8.59983C3.37628 8.59983 3.23391 8.58966 3.09153 8.56932V6.53542C3.23391 6.52525 3.37628 6.50491 3.52882 6.50491ZM3.52882 5.8439C3.18306 5.8439 2.84747 5.88458 2.54238 5.96593C2.4712 5.98627 2.42035 6.04729 2.42035 6.11847V8.98627C2.42035 9.05745 2.4712 9.11847 2.54238 9.13881C2.84747 9.20999 3.18306 9.26084 3.52882 9.26084C3.98645 9.26084 4.41357 9.18966 4.77967 9.05745C4.9017 9.01678 4.99323 8.92525 5.0339 8.80322C5.15594 8.43711 5.23729 7.99983 5.23729 7.55237C5.23729 7.10491 5.16611 6.66763 5.0339 6.30152C4.99323 6.17949 4.9017 6.08797 4.77967 6.04729C4.41357 5.91508 3.98645 5.8439 3.52882 5.8439ZM3.52882 10.4202C3.85425 10.4202 4.1695 10.4608 4.45424 10.5422C4.5356 10.8269 4.57628 11.1422 4.57628 11.4676C4.57628 11.793 4.5356 12.1083 4.45424 12.393C4.1695 12.4744 3.85425 12.5151 3.52882 12.5151C3.37628 12.5151 3.23391 12.5049 3.09153 12.4846V10.4507C3.23391 10.4303 3.37628 10.4202 3.52882 10.4202ZM3.52882 9.74898C3.18306 9.74898 2.84747 9.78966 2.54238 9.87101C2.4712 9.89135 2.42035 9.95237 2.42035 10.0236V12.8913C2.42035 12.9625 2.4712 13.0235 2.54238 13.0439C2.84747 13.1151 3.18306 13.1659 3.52882 13.1659C3.98645 13.1659 4.41357 13.0947 4.77967 12.9625C4.9017 12.9219 4.99323 12.8303 5.0339 12.7083C5.15594 12.3422 5.23729 11.9049 5.23729 11.4574C5.23729 11.01 5.16611 10.5727 5.0339 10.2066C4.99323 10.0846 4.9017 9.99304 4.77967 9.95237C4.41357 9.83033 3.98645 9.74898 3.52882 9.74898ZM3.52882 14.3252C3.85425 14.3252 4.1695 14.3659 4.45424 14.4473C4.5356 14.732 4.57628 15.0473 4.57628 15.3727C4.57628 15.6981 4.5356 16.0134 4.45424 16.2981C4.1695 16.3795 3.85425 16.4202 3.52882 16.4202C3.37628 16.4202 3.23391 16.41 3.09153 16.3896V14.3456C3.23391 14.3354 3.37628 14.3252 3.52882 14.3252ZM3.52882 13.6642C3.18306 13.6642 2.84747 13.7049 2.54238 13.7863C2.4712 13.8066 2.42035 13.8676 2.42035 13.9388V16.8066C2.42035 16.8778 2.4712 16.9388 2.54238 16.9591C2.84747 17.0303 3.18306 17.0812 3.52882 17.0812C3.98645 17.0812 4.41357 17.01 4.77967 16.8778C4.9017 16.8371 4.99323 16.7456 5.0339 16.6235C5.15594 16.2574 5.23729 15.8202 5.23729 15.3727C5.23729 14.9151 5.16611 14.488 5.0339 14.1219C4.99323 13.9998 4.9017 13.9083 4.77967 13.8676C4.41357 13.7354 3.98645 13.6642 3.52882 13.6642ZM3.52882 18.2405C3.85425 18.2405 4.1695 18.2812 4.45424 18.3625C4.5356 18.6473 4.57628 18.9625 4.57628 19.2879C4.57628 19.3998 4.56611 19.5117 4.56611 19.6134C4.07797 19.6744 3.57967 19.7151 3.09153 19.7354V18.2608C3.23391 18.2507 3.37628 18.2405 3.52882 18.2405ZM3.52882 17.5693C3.18306 17.5693 2.84747 17.61 2.54238 17.6913C2.4712 17.7117 2.42035 17.7727 2.42035 17.8439V20.0812C2.42035 20.2642 2.56272 20.4066 2.74577 20.4066H2.75594C3.52882 20.3964 4.28136 20.3252 5.02374 20.2235C5.09492 20.2134 5.14577 20.1625 5.15594 20.1015C5.20679 19.8473 5.23729 19.5727 5.23729 19.2879C5.23729 18.8303 5.16611 18.4032 5.0339 18.0371C4.99323 17.9151 4.9017 17.8235 4.77967 17.7829C4.41357 17.6405 3.98645 17.5693 3.52882 17.5693Z" fill="black"/>
</svg>
