<svg width="17" height="33" viewBox="0 0 17 33" fill="none" xmlns="http://www.w3.org/2000/svg">
<path d="M6.39523 1.16093C6.15411 1.2413 5.8728 1.36187 5.77902 1.41545C5.32357 1.71016 4.94849 2.04505 4.70736 2.37994C4.56001 2.58088 4.42605 2.75503 4.39926 2.75503C4.37247 2.75503 4.21172 2.70144 4.02418 2.62107C2.3631 1.97807 0.608256 3.59896 1.07711 5.32701C1.21107 5.83605 1.59954 6.37188 2.02821 6.6532L2.3631 6.85413L2.32292 7.20242C2.17556 8.50181 1.17088 21.5627 1.17088 22.0583C1.17088 23.8266 2.01481 25.7288 3.36779 27.0818C4.13134 27.8319 5.35036 28.5821 6.23448 28.85L6.489 28.9304V30.5647V32.1989H5.04226C3.79645 32.1989 3.56872 32.2123 3.48835 32.2927C3.40797 32.3731 3.40797 32.4133 3.44816 32.507C3.51514 32.6142 3.59551 32.6276 5.08244 32.6276C10.3336 32.6276 13.4548 32.6276 13.495 32.5874C13.5888 32.5338 13.562 32.2659 13.4548 32.2257C13.4012 32.2123 12.6645 32.1855 11.8071 32.1855H10.2666V30.5914V28.984L10.6551 28.8768C12.0215 28.5017 13.6022 27.3497 14.4729 26.1173C15.3302 24.8982 15.8393 23.3845 15.8393 22.0717C15.8393 21.5895 14.8212 8.5554 14.7006 7.56411C14.6738 7.33638 14.6872 7.32298 14.9953 7.12205C15.3704 6.88092 15.6651 6.54603 15.8526 6.11736C15.9598 5.88964 15.9866 5.7021 16 5.28683C16 4.80458 15.9866 4.71081 15.7991 4.34912C15.4106 3.55877 14.7006 3.10332 13.8299 3.10332C13.5888 3.10332 13.3075 3.1435 13.1735 3.19709L12.9592 3.29086L12.5841 2.90238C11.9545 2.25938 11.1909 1.99147 10.4006 2.12542L9.99869 2.1924L9.6638 1.8977C8.80647 1.08055 7.53387 0.785847 6.39523 1.16093ZM8.24385 1.53601C8.76628 1.69676 9.04759 1.85751 9.48965 2.28617L9.90492 2.67465L10.3336 2.58088C10.789 2.47371 11.057 2.50051 11.5526 2.66126C11.9009 2.76842 12.4233 3.22388 12.5975 3.55877C12.6645 3.69273 12.7582 3.7999 12.7984 3.7999C12.8386 3.7999 13.0127 3.73292 13.1869 3.66594C13.6423 3.465 14.205 3.4784 14.6604 3.69273C15.0355 3.88027 15.2498 4.0946 15.4642 4.50987C15.6785 4.91175 15.6517 5.63512 15.424 6.10397C15.1159 6.72017 14.5934 7.01488 13.8165 7.01488C13.4012 7.01488 13.3744 7.01488 13.1199 7.25601C12.785 7.56411 12.3697 7.77844 11.8473 7.9124C11.3249 8.05975 10.28 8.05975 9.77096 7.9124C9.36909 7.80523 8.80647 7.55071 8.63232 7.38996C8.53855 7.30959 8.47158 7.30959 8.05631 7.38996C7.80179 7.44355 7.56066 7.48373 7.52048 7.48373C7.49368 7.48373 7.4535 7.37657 7.4535 7.24261C7.4535 7.02828 7.37312 6.85413 7.26596 6.85413C7.23916 6.85413 7.17219 6.89432 7.1186 6.9479C7.03823 7.02828 7.02483 7.22921 7.02483 8.24729C7.02483 9.39933 7.02483 9.45291 6.90427 9.45291C6.7971 9.45291 6.78371 9.41273 6.78371 8.94387C6.78371 8.36786 6.66315 8.07315 6.36844 7.96598C6.12732 7.87221 6.04694 7.88561 5.83261 8.08654L5.63167 8.26069L5.60488 9.21179C5.57809 10.1093 5.56469 10.1629 5.44413 10.1629C5.32357 10.1629 5.32357 10.1093 5.28338 9.15821C5.25659 8.20711 5.24319 8.15352 5.10924 7.99277C4.8949 7.76505 4.56001 7.76505 4.33228 7.99277C4.19832 8.12673 4.17153 8.2205 4.17153 8.47502C4.17153 8.83671 4.10455 8.98406 3.9572 8.93048C3.87682 8.90369 3.86343 8.75633 3.86343 7.93919C3.86343 6.92111 3.82324 6.78715 3.55533 6.86753C3.47495 6.89432 3.39458 6.85413 3.3142 6.72017C3.23383 6.59961 3.11327 6.51924 2.95252 6.49245C2.3765 6.38528 1.88085 6.0102 1.62633 5.47437C1.50577 5.24664 1.47898 5.08589 1.47898 4.65723C1.47898 4.20177 1.50577 4.08121 1.65313 3.81329C1.98802 3.18369 2.55064 2.8488 3.26062 2.8488C3.6357 2.8488 3.75626 2.87559 4.10455 3.06313C4.33228 3.18369 4.56001 3.26406 4.6002 3.25067C4.64038 3.23727 4.74755 3.08992 4.82792 2.94257C5.16282 2.29957 5.76563 1.77713 6.47561 1.53601C6.94446 1.41545 7.73481 1.38866 8.24385 1.53601ZM3.11327 7.22921L3.40797 7.49713V8.2205C3.40797 9.03764 3.47495 9.25198 3.76966 9.37254C4.18493 9.53329 4.5868 9.1716 4.5868 8.62237C4.5868 8.36786 4.6002 8.31427 4.70736 8.31427C4.81453 8.31427 4.82792 8.38125 4.85472 9.30556C4.86811 10.2701 4.88151 10.2968 5.02886 10.4576C5.10924 10.538 5.26999 10.6317 5.37715 10.6451C5.5379 10.6719 5.61828 10.6451 5.77902 10.4978L5.99336 10.3102L6.02015 9.35914C6.04694 8.46163 6.06034 8.40804 6.1809 8.40804C6.28806 8.40804 6.30146 8.46162 6.34165 8.99746C6.36844 9.64045 6.42202 9.73422 6.71673 9.85479C6.86408 9.92176 6.94446 9.92176 7.09181 9.85479C7.42671 9.72083 7.46689 9.60027 7.46689 8.72954V7.96598L7.93574 7.88561L8.4046 7.80523L8.84666 8.03296C9.10118 8.15352 9.48966 8.30088 9.73078 8.35446C10.3068 8.48842 11.3383 8.50181 11.8741 8.35446C12.3965 8.2205 13.0931 7.88561 13.3744 7.64448C13.562 7.47034 13.6423 7.45694 13.9638 7.45694H14.3255L14.5533 10.3504C14.6872 11.9445 14.781 13.2975 14.781 13.3511C14.781 13.4582 14.4461 13.4582 8.55195 13.4582H2.29612V13.2037C2.29612 12.6947 2.76498 6.9479 2.80516 6.9479C2.81856 6.9613 2.95252 7.08186 3.11327 7.22921ZM14.8346 14.2486C14.9685 15.4274 15.424 21.5493 15.424 22.0315C15.424 23.2238 14.9551 24.6839 14.2318 25.7556C13.8835 26.278 13.0127 27.1621 12.4769 27.5238C10.146 29.1447 6.98464 29.1581 4.62699 27.5774C4.09116 27.2157 3.22043 26.345 2.84535 25.8225C2.06839 24.6973 1.59954 23.2506 1.59954 22.0181C1.59954 21.5091 2.09519 14.8246 2.18896 14.1414L2.21575 13.8869H8.49837H14.781L14.8346 14.2486ZM7.66783 29.1447C8.19026 29.2117 9.40928 29.1849 9.71738 29.1045L9.85134 29.0643V30.6182V32.1721H8.3912H6.93106V30.5914C6.93106 29.2117 6.94446 29.0107 7.02483 29.0375C7.07842 29.0643 7.37312 29.1045 7.66783 29.1447Z" fill="black" stroke="black" stroke-width="0.6"/>
</svg>
