<svg width="23" height="22" viewBox="0 0 23 22" fill="none" xmlns="http://www.w3.org/2000/svg">
<path d="M5.36458 21C5.24014 21 5.12458 20.9644 5.02681 20.8933C4.83125 20.7511 4.75125 20.5111 4.7957 20.2356L5.85347 14.0578C5.87125 13.9422 5.80014 13.72 5.72014 13.64L1.23125 9.25778C1.02681 9.06222 0.955696 8.82222 1.02681 8.59111C1.09792 8.36 1.30236 8.20889 1.57792 8.17333L3.52459 7.88889C3.74681 7.85333 3.95125 8.01333 3.98681 8.23556C4.02236 8.45778 3.86236 8.66222 3.64014 8.69778L2.04903 8.92889L6.28014 13.0533C6.5557 13.32 6.7157 13.8178 6.65347 14.2L5.65792 20.0222L10.8846 17.2756C11.2313 17.0978 11.7468 17.0978 12.0846 17.2756L17.3113 20.0222L16.3157 14.2C16.2535 13.8178 16.4135 13.3289 16.689 13.0533L20.9201 8.92889L15.0713 8.07556C14.689 8.02222 14.2713 7.72 14.1024 7.37333L11.489 2.07556L8.67125 7.79111C8.57347 7.99556 8.32458 8.07556 8.12903 7.97778C7.92458 7.88 7.84458 7.63111 7.94236 7.43556L10.9201 1.4C11.0446 1.15111 11.2579 1 11.489 1C11.729 1 11.9335 1.14222 12.0579 1.4L14.8313 7.01778C14.8846 7.12444 15.0713 7.25778 15.1868 7.27556L21.3913 8.17333C21.6757 8.21778 21.8713 8.36889 21.9424 8.59111C22.0135 8.81333 21.9424 9.06222 21.7379 9.25778L17.249 13.6311C17.1601 13.72 17.089 13.9333 17.1157 14.0489L18.1735 20.2267C18.2179 20.5022 18.1379 20.7422 17.9424 20.8844C17.7468 21.0267 17.4979 21.0267 17.249 20.8933L11.7024 17.9778C11.5957 17.9156 11.3646 17.9156 11.2579 17.9778L5.71125 20.8933C5.5957 20.9733 5.48014 21 5.36458 21Z" fill="black" stroke="black" stroke-width="0.5"/>
<path d="M6.38678 7.95999C6.38678 8.1911 6.20011 8.38666 5.96011 8.38666C5.729 8.38666 5.53345 8.19999 5.53345 7.95999C5.53345 7.72888 5.72011 7.53333 5.96011 7.53333C6.20011 7.53333 6.38678 7.71999 6.38678 7.95999Z" fill="black" stroke="black" stroke-width="0.5"/>
</svg>
