<svg width="25" height="29" viewBox="0 0 25 29" fill="none" xmlns="http://www.w3.org/2000/svg">
<path d="M12.8879 0.860439C12.2412 1.04858 11.6885 1.22495 11.6532 1.23671C11.5004 1.34254 11.5121 1.56595 11.8766 3.706C12.0765 4.91713 12.2412 5.90485 12.2294 5.91661C12.2176 5.92837 11.03 6.19881 11.0183 6.18706C11.0183 6.18706 11.0888 5.56385 11.1711 4.83482L11.3358 3.49435L11.2064 3.36501C11.0888 3.24742 11.0065 3.23566 10.1011 3.17687C8.5725 3.0828 8.5137 3.0828 8.38436 3.20039C8.29029 3.29446 8.26677 3.49435 8.14919 5.43451C8.07864 6.61036 8.00809 7.57456 7.98457 7.59808C7.97281 7.60984 7.94929 7.59808 7.94929 7.53929C7.94929 7.49225 7.87874 7.40994 7.79643 7.37467L7.64357 7.30412L7.43192 5.11703C7.31433 3.91766 7.20851 2.88291 7.17323 2.81236C7.14971 2.7418 7.0674 2.67125 7.00861 2.64774C6.85575 2.58894 4.46877 2.96522 4.33942 3.07104C4.29239 3.10632 4.24536 3.18863 4.22184 3.23566C4.21008 3.29446 4.35118 4.32921 4.55108 5.55209L4.90383 7.7627L4.84504 9.0679C4.80976 9.77341 4.77449 10.3731 4.76273 10.3849C4.76273 10.3849 4.58635 9.31483 4.38646 7.99787C4.18656 6.68091 3.99843 5.50506 3.97491 5.39923C3.88084 5.04648 3.83381 5.04648 2.46982 5.32868C1.23517 5.59913 1 5.68144 1 5.89309C1 5.95188 1.38803 7.77446 1.87013 9.93803C2.35223 12.1016 2.7285 13.8889 2.71675 13.8889C2.71675 13.9007 2.45806 13.9594 2.16409 14.03C1.52913 14.1711 1.44682 14.2064 1.39979 14.371C1.37627 14.4415 2.07003 17.3224 3.05774 21.2615C4.55108 27.2466 4.76273 28.0579 4.88032 28.152L5.02142 28.2813H12.2764C19.0846 28.2813 19.5079 28.2813 19.6255 28.1873C19.7196 28.1167 20.0488 26.8468 21.4246 21.3673C22.3417 17.6634 23.106 14.5591 23.106 14.4768C23.106 14.2769 23.012 14.1946 22.6827 14.1241C22.4593 14.0653 22.424 14.0418 22.4476 13.9242C22.4476 13.8536 22.8121 12.2427 23.2471 10.3496C23.6822 8.45645 24.0115 6.85729 23.9997 6.78674C23.9527 6.58685 23.7645 6.51629 22.9297 6.38695C22.4828 6.3164 22.1301 6.24585 22.1301 6.23409C22.1301 6.22233 22.2006 5.59913 22.2947 4.84658C22.4476 3.50611 22.4476 3.38852 22.2829 3.24742C22.2359 3.21215 21.7185 3.16511 20.919 3.11808C19.6373 3.04753 19.6373 3.04753 19.5197 3.16511C19.4139 3.27094 19.4021 3.37677 19.3316 4.6702C19.2963 5.43451 19.2492 6.06947 19.2375 6.08123C19.214 6.10475 17.6736 6.36343 17.6501 6.35168C17.6501 6.35168 17.5795 5.79902 17.4972 5.1523C17.3444 3.87062 17.2973 3.71776 17.0504 3.71776C16.9681 3.71776 16.4742 3.84711 15.9333 3.99997C15.4042 4.15283 14.9574 4.27041 14.9456 4.25866C14.9339 4.2469 14.828 3.43556 14.7105 2.47136C14.5106 0.860439 14.487 0.719337 14.3812 0.625268C14.3107 0.566476 14.2166 0.5312 14.1696 0.5312C14.1108 0.507683 13.5346 0.660544 12.8879 0.860439ZM13.8521 1.48364C13.8991 1.70705 14.6046 7.82149 14.5811 7.83325C14.5576 7.85677 13.4876 8.03315 13.464 8.00963C13.464 7.99787 13.4288 7.5628 13.3935 7.02191C13.3229 6.01068 13.2759 5.84606 13.076 5.77551C13.0172 5.76375 12.9584 5.70496 12.9349 5.64616C12.8408 5.30517 12.3117 1.82464 12.3352 1.78936C12.3823 1.74233 13.6287 1.36606 13.7463 1.36606C13.7933 1.36606 13.8403 1.42485 13.8521 1.48364ZM6.5853 3.63545C6.60882 3.85887 6.93806 7.18653 6.93806 7.25708C6.93806 7.2806 5.6211 7.23356 5.59759 7.21005C5.57407 7.19829 5.04494 3.84711 5.04494 3.72952C5.04494 3.63545 5.11549 3.61194 5.71517 3.50611C6.62058 3.35325 6.55003 3.32973 6.5853 3.63545ZM10.1011 3.89414C10.5127 3.91766 10.5714 3.94118 10.5479 4.01173C10.5362 4.07052 10.3951 5.17582 10.2422 6.46926C9.96 8.77393 9.94825 8.83272 9.83066 8.868C9.76011 8.87976 9.68956 8.93855 9.65428 9.0091C9.60725 9.10317 9.50142 10.1144 9.48966 10.6671C9.48966 11.0198 9.45439 10.8317 9.36032 9.87923C9.23097 8.51524 9.21922 8.46821 8.88998 8.46821C8.76063 8.46821 8.73712 8.44469 8.73712 8.33887C8.73712 8.1037 8.96053 4.25866 8.98405 4.03524L9.00756 3.80007L9.31328 3.82359C9.4779 3.84711 9.84242 3.87062 10.1011 3.89414ZM21.6245 3.88238C21.6597 3.91766 21.4246 6.02244 21.3893 6.09299C21.3775 6.1165 21.3187 6.14002 21.26 6.14002C21.2012 6.14002 21.1306 6.1753 21.0953 6.22233C21.0601 6.26936 20.8837 7.17477 20.7073 8.2448C20.5309 9.31483 20.3898 10.1967 20.3781 10.2085C20.3781 10.2202 20.284 9.32658 20.1664 8.23304C19.9665 6.28112 19.9665 6.19881 20.0135 5.09351C20.0371 4.47031 20.0841 3.91766 20.0841 3.88238C20.1076 3.82359 20.237 3.81183 20.8484 3.83535C21.26 3.84711 21.601 3.87062 21.6245 3.88238ZM16.6976 4.58789C16.6976 4.68196 17.8265 14.3122 17.8617 14.5239C17.8853 14.6767 17.8617 14.712 17.4032 15.053C17.1327 15.2529 16.9093 15.4175 16.8975 15.4175C16.8505 15.4175 16.7447 14.4063 16.4507 11.3843C16.2861 9.65582 16.1332 8.16249 16.1215 8.05666C16.0862 7.83325 15.9216 7.66863 15.7334 7.66863H15.5806L15.3807 6.41047C15.2631 5.71671 15.169 5.11703 15.1455 5.06999C15.122 4.99944 15.2749 4.94065 15.8628 4.76427C16.7564 4.48207 16.6976 4.49383 16.6976 4.58789ZM3.38698 6.01068C3.39874 6.09299 3.66919 7.7627 3.96315 9.71462C4.25711 11.6665 4.5158 13.3245 4.52756 13.3833C4.55108 13.4891 4.5158 13.5126 4.0337 13.6067C3.73974 13.6655 3.49281 13.7125 3.49281 13.7008C3.45753 13.6655 1.84661 6.22233 1.87013 6.19881C1.89365 6.1753 3.16357 5.86958 3.29291 5.85782C3.32819 5.86958 3.36347 5.94013 3.38698 6.01068ZM12.6527 6.9396C12.6645 7.1395 12.735 8.17425 12.8056 9.23252L12.9232 11.1609L12.5939 13.2422C12.4058 14.3945 12.2294 15.4881 12.1941 15.6762L12.1236 16.0289L12.0295 15.2999L11.9472 14.5709L12.3 11.9723C12.4881 10.5377 12.6292 9.31483 12.6174 9.25603C12.5704 9.0679 12.4058 9.02086 11.8531 8.98559C11.5592 8.96207 11.3358 8.92679 11.3122 8.89152C11.2887 8.80921 11.0653 6.9396 11.0888 6.9396C11.1006 6.92784 12.5116 6.5986 12.6057 6.5986C12.6057 6.57509 12.6292 6.73971 12.6527 6.9396ZM19.3198 7.10422C19.4374 7.99787 19.896 13.0658 19.8842 13.2304L19.8724 13.4303L19.5785 13.4068C19.308 13.395 19.2845 13.4068 19.0846 13.5949C18.967 13.7125 18.873 13.7948 18.8495 13.7713C18.7907 13.7125 17.7559 7.0807 17.8029 7.05719C17.8853 7.02191 19.0023 6.84553 19.1552 6.84553C19.2845 6.84553 19.2963 6.86905 19.3198 7.10422ZM22.4593 7.02191C22.8709 7.09246 23.2001 7.16301 23.2001 7.17477C23.2001 7.2806 21.695 13.7948 21.6715 13.8301C21.6245 13.8771 20.7426 13.689 20.6955 13.6067C20.672 13.5714 20.6485 13.4656 20.6485 13.3598C20.6485 13.1363 21.6362 6.90433 21.6833 6.90433C21.7068 6.90433 22.0478 6.95136 22.4593 7.02191ZM7.99633 8.30359C7.93754 8.73866 7.90226 8.60931 7.94929 8.15073C7.97281 7.92732 7.99633 7.80973 8.00809 7.88028C8.01985 7.95084 8.01985 8.13897 7.99633 8.30359ZM6.7852 7.98611H7.20851V8.16249C7.20851 8.25656 7.19675 8.43294 7.17323 8.53876C7.13796 8.73866 7.13796 8.73866 6.7852 8.79745C6.40893 8.868 6.23255 8.97383 6.23255 9.15021C6.23255 9.22076 6.35013 9.96154 6.47948 10.8082L6.73817 12.3485L6.62058 13.4303C6.55003 14.03 6.49124 14.5239 6.47948 14.5239C6.45596 14.5474 5.43297 13.6184 5.40945 13.5479C5.38593 13.4891 5.65638 8.00963 5.69166 7.92732C5.69166 7.91556 5.84452 7.92732 6.03265 7.93908C6.20903 7.96259 6.55003 7.98611 6.7852 7.98611ZM15.416 8.5858C15.4277 8.65635 15.4512 8.79745 15.4512 8.87976C15.4512 9.09141 15.4395 9.09141 14.5811 8.95031C14.2401 8.89152 13.9461 8.84448 13.9226 8.84448C13.8991 8.84448 13.8756 8.80921 13.8756 8.77393C13.8756 8.7269 14.0637 8.66811 14.5106 8.59756C15.3689 8.44469 15.3807 8.44469 15.416 8.5858ZM8.5725 9.27955C8.5725 9.30307 8.7136 10.7023 8.86646 12.3838C9.08987 14.6885 9.16042 15.5351 9.13691 15.8643L9.10163 16.2759L8.67832 16.0525C7.93754 15.6644 8.05512 16.0172 7.52599 12.619C7.2673 10.9728 7.04389 9.59703 7.04389 9.56175C7.03213 9.50296 7.19675 9.45593 7.73764 9.36186C8.59601 9.22076 8.5725 9.22076 8.5725 9.27955ZM11.7708 9.71462C11.8414 9.73813 11.7943 10.2085 11.3828 13.3245C11.1241 15.2882 10.9007 16.8991 10.8889 16.9226C10.8654 16.9461 9.99528 16.6992 9.88945 16.6286C9.83066 16.5934 9.86594 15.9584 10.0423 13.2775C10.1599 11.4666 10.2775 9.89099 10.2892 9.79692L10.3128 9.60879L11.0065 9.64406C11.371 9.65582 11.7238 9.6911 11.7708 9.71462ZM14.7457 9.71462C15.122 9.77341 15.4277 9.8322 15.4395 9.84396C15.4748 9.87924 13.8756 16.852 13.8286 16.8756C13.7933 16.8991 13.6051 16.9461 13.417 16.9814C13.2171 17.0167 12.9937 17.0519 12.9114 17.0637C12.7821 17.0872 12.7585 17.0755 12.7585 16.9696C12.7585 16.8991 13.0172 15.2294 13.3229 13.2657C13.6404 11.302 13.8874 9.66758 13.8874 9.64406C13.8756 9.58527 14.0049 9.59703 14.7457 9.71462ZM15.9921 14.077C16.0862 15.053 16.1568 15.8761 16.1332 15.8878C16.0862 15.9584 15.1926 16.417 15.1573 16.3817C15.1455 16.3582 15.0867 16.123 15.0397 15.8526L14.9574 15.3587L15.2984 13.8536C15.4748 13.0188 15.6511 12.2897 15.6864 12.2074C15.7452 12.0781 15.7452 12.0781 15.7805 12.1839C15.804 12.2427 15.8981 13.1011 15.9921 14.077ZM5.50352 14.6532C6.94982 15.9702 8.50195 16.9226 9.97176 17.4165C11.5474 17.9456 13.0055 17.9456 14.6164 17.4165C16.0156 16.9461 17.7794 15.8408 19.1552 14.5591L19.5785 14.1593L20.9307 14.4533C21.8361 14.6414 22.2829 14.759 22.2829 14.8061C22.2829 14.8413 22.1066 15.5586 21.8949 16.4052L21.5186 17.9338L18.6378 19.827C17.0504 20.8617 15.7334 21.7201 15.6982 21.7436C15.6629 21.7554 15.6159 21.6966 15.5923 21.6143C15.5218 21.332 15.2866 20.8852 15.0279 20.5677C14.3459 19.7211 13.3112 19.2155 12.2647 19.2155C10.8772 19.2155 9.5367 20.1209 9.01932 21.4144C8.94877 21.5907 8.87822 21.7436 8.87822 21.7554C8.86646 21.7671 3.16357 18.0985 3.09302 18.0279C3.02247 17.9573 2.2464 14.8061 2.28168 14.759C2.3052 14.7473 2.57564 14.6767 2.89312 14.6179C3.2106 14.5474 3.76326 14.4298 4.13953 14.3475C4.5158 14.2652 4.8568 14.1946 4.90383 14.1829C4.92735 14.1711 5.20956 14.3828 5.50352 14.6532ZM20.1899 23.2604L19.1317 27.5053L12.2764 27.4935L5.40945 27.4818L4.36294 23.3075C3.78677 21.0146 3.32819 19.1214 3.32819 19.0979C3.32819 19.0862 4.55108 19.8505 6.03265 20.8029L8.73712 22.5432V22.7783C8.73712 22.9077 8.77239 23.2017 8.81943 23.4251C9.08987 24.7773 10.1717 25.8708 11.5356 26.1766C12.0648 26.2941 12.8408 26.2589 13.3465 26.0943C14.6987 25.6474 15.6629 24.4245 15.7805 23.0135L15.8158 22.5549L18.532 20.7794C20.0253 19.8034 21.2482 19.0039 21.2482 19.0156C21.2364 19.0039 20.7661 20.9205 20.1899 23.2604ZM13.1466 20.0856C13.9579 20.3561 14.6164 21.0146 14.9221 21.8377C15.0985 22.308 15.0985 23.1076 14.9221 23.6132C14.5811 24.6009 13.8168 25.2594 12.7703 25.4828C11.3945 25.765 9.98352 24.8831 9.57197 23.4956C9.44263 23.0841 9.45439 22.3433 9.59549 21.9082C10.0541 20.4266 11.665 19.5918 13.1466 20.0856Z" fill="black" stroke="black" stroke-width="0.219048"/>
</svg>
