<svg width="18" height="25" viewBox="0 0 18 25" fill="none" xmlns="http://www.w3.org/2000/svg">
<path d="M13.8588 0.733941L12.0589 0.681004L10.0579 3.05256H7.9087C7.47462 1.30565 5.88653 0.00341797 4.01258 0.00341797C1.79984 0.00341797 0 1.80326 0 4.016C0 5.77349 1.14343 7.27688 2.72093 7.81683C2.48801 8.36737 1.75749 10.1672 1.70455 11.4377C1.64103 12.8881 1.81043 13.7457 2.29744 14.508C2.55154 14.8997 3.15501 15.3762 3.79025 15.8738C4.25609 16.2337 4.8278 16.6784 4.96544 16.9007C5.07131 17.0595 5.1666 17.1866 5.25129 17.2925C5.4948 17.5995 5.69596 17.8536 5.88653 18.7853C6.1618 20.0875 6.00299 21.1886 5.70655 21.5697C5.30423 22.0885 4.20315 23.179 2.95385 23.5707L2.87974 23.5919L2.81622 23.6342C2.50919 23.8672 2.36096 24.1213 2.38214 24.3965C2.39273 24.6612 2.56212 24.8518 2.72093 24.9365L2.82681 25H10.8943L10.9473 24.9894C11.0108 24.9788 11.3072 24.8835 11.466 24.6083C11.5613 24.4495 11.5825 24.2483 11.519 24.0577L11.5084 24.0048L11.4872 23.9624C11.339 23.6978 11.0108 23.5284 10.5026 23.2743C9.81441 22.9249 8.88273 22.4485 8.18397 21.6121C7.77107 20.1616 7.87694 19.6217 7.98281 19.1029C7.9934 19.0499 8.00399 18.997 8.01458 18.9335L8.02516 18.8805C8.14162 18.2877 8.27926 17.536 9.12624 16.9113C9.58149 16.5725 11.8789 14.7833 12.2601 12.867C12.5565 11.3742 12.0695 10.1672 12.006 10.0084C11.5719 8.82263 11.0002 6.95926 11.0743 6.49342C11.1802 5.77349 11.5401 4.683 11.8366 4.17481C12.0801 3.7619 11.9954 3.48663 11.8895 3.32783C11.8578 3.27489 11.8154 3.24313 11.7731 3.20078L12.6518 2.14205L13.0859 2.15264L16.3574 6.62047L17.5325 5.7629L13.8588 0.733941ZM9.3274 3.9313L6.4159 7.39334L7.44286 8.2615H3.48322C3.54674 8.10269 3.58909 8.00741 3.58909 8.00741C3.72672 8.01799 3.86436 8.02858 4.01258 8.02858C6.22532 8.02858 8.02516 6.22874 8.02516 4.016C8.02516 3.98424 8.02516 3.95248 8.02516 3.9313H9.3274ZM10.0791 3.9313H10.4285L7.44286 7.49922L7.22053 7.31923L10.0791 3.9313ZM3.79025 3.6031H4.29844L4.51018 3.82543V4.19598L4.18198 4.52419H3.89612L3.58909 4.17481V3.80425L3.79025 3.6031ZM4.44666 5.03238L5.92888 6.49342C5.50539 6.82163 4.9972 7.04396 4.44666 7.11807V5.03238ZM6.53236 5.86877L5.09248 4.45008H7.11466C7.04055 4.97944 6.83939 5.45587 6.53236 5.86877ZM4.44666 3.05256V0.903337C5.03955 0.988036 5.5795 1.24213 6.02417 1.6021L4.44666 3.05256ZM3.5785 2.9361L2.12804 1.50681C2.54095 1.18919 3.03855 0.977448 3.5785 0.903337V2.9361ZM3.5785 7.11807C2.9962 7.03338 2.46684 6.80046 2.03276 6.44049L3.5785 5.02179V7.11807ZM7.11466 3.57133H5.15601L6.60647 2.24792C6.87115 2.63965 7.05113 3.09491 7.11466 3.57133ZM1.51398 2.12088L2.98562 3.58192H0.910507C0.984618 3.03138 1.19636 2.53378 1.51398 2.12088ZM0.899919 4.45008H2.9115L1.42928 5.80525C1.1646 5.40293 0.97403 4.94768 0.899919 4.45008ZM11.4237 12.7082C11.1802 13.9469 9.76148 15.3762 8.62864 16.2231C7.50639 17.0595 7.30523 18.1077 7.18877 18.7323L7.17818 18.7853C7.16759 18.8382 7.15701 18.8911 7.14642 18.9441C7.01937 19.5475 6.88174 20.2357 7.38993 21.9614L7.4111 22.0461L7.46404 22.1097C8.27926 23.126 9.38034 23.6872 10.1109 24.0577C10.1532 24.0789 10.1956 24.1001 10.2485 24.1318H3.9173C5.06072 23.5813 6.00299 22.639 6.4159 22.1097C6.92409 21.4533 7.06172 20.0451 6.76528 18.6159C6.52177 17.483 6.2465 17.1336 5.96064 16.7631C5.87594 16.6572 5.80183 16.5619 5.71713 16.4349C5.4948 16.0855 4.95485 15.6726 4.34079 15.1962C3.84318 14.8044 3.21854 14.3174 3.03855 14.0527C2.72093 13.5551 2.51977 12.9305 2.5833 11.4906C2.61506 10.7919 2.89033 9.87077 3.14442 9.15083H10.799C11.0108 9.80724 11.2013 10.326 11.2013 10.3472L11.2119 10.379C11.2225 10.3684 11.6778 11.4059 11.4237 12.7082ZM10.5449 8.2615H7.56991L10.7779 4.4289C10.5343 5.04297 10.3226 5.79466 10.2273 6.37696C10.1956 6.5993 10.1956 7.03338 10.5449 8.2615ZM13.4141 1.59151L12.4083 1.55975L11.159 3.05256H10.8096L12.3236 1.2633L13.5729 1.30565L16.7491 5.64644L16.5162 5.81584L13.4141 1.59151Z" fill="black"/>
</svg>
