<svg width="19" height="29" viewBox="0 0 19 29" fill="none" xmlns="http://www.w3.org/2000/svg">
<path d="M0.0582719 0.732364C0.00955559 0.988125 -0.0148023 1.20735 0.00955587 1.23171C0.033914 1.25606 1.43451 1.5849 3.1274 1.95027C4.80811 2.31564 6.20871 2.64448 6.24524 2.65666C6.2696 2.66884 6.45229 2.97331 6.63497 3.32651L6.97599 3.95982L6.54972 4.25212C5.98948 4.61749 5.1613 5.43349 4.77157 6.0059C4.15044 6.8828 3.71199 7.96674 3.56585 8.90452C3.45623 9.65963 3.45623 9.64745 3.31009 9.64745C3.07868 9.64745 2.59152 9.92757 2.36012 10.1711C1.92167 10.6583 1.82424 11.2307 2.10436 11.7788C2.38448 12.339 2.84728 12.6191 3.56585 12.6679L4.04083 12.7044L4.06519 12.8871C4.10173 13.1063 5.46578 28.6833 5.46578 28.866V29H10.3009H15.136L15.1725 28.6833C15.1969 28.391 16.5731 12.8018 16.5731 12.7166C16.5731 12.6922 16.7314 12.68 16.9141 12.68C17.109 12.68 17.4013 12.6435 17.584 12.5826C18.2416 12.3877 18.8019 11.5839 18.6923 10.9506C18.5948 10.3782 17.9859 9.74488 17.4378 9.67181L17.1821 9.63527L17.109 9.13593C16.8898 7.54047 16.2077 6.22513 15.0142 5.04376C13.1508 3.2169 10.6419 2.5714 8.32786 3.35087C8.08428 3.42394 7.86506 3.48484 7.8407 3.46048C7.81634 3.4483 7.59712 3.07075 7.35354 2.62012C7.09778 2.13296 6.86638 1.77976 6.7933 1.75541C6.72023 1.73105 0.277496 0.281738 0.192242 0.281738C0.180063 0.281738 0.119167 0.488783 0.0582719 0.732364ZM11.7624 4.21558C12.7489 4.48352 13.577 4.93414 14.32 5.65271C15.343 6.62704 16.0129 7.95456 16.1347 9.24554L16.1712 9.65963H10.3009H4.44274L4.47928 9.31861C4.6376 7.96673 5.2222 6.73665 6.14781 5.81104C7.0247 4.93415 7.95031 4.4348 9.22912 4.14251C9.81371 4.00854 11.1534 4.05725 11.7624 4.21558ZM17.3526 10.6827C17.7058 10.6827 17.8641 11.2673 17.5718 11.5474L17.4256 11.6935H10.3252C3.62674 11.6935 3.21265 11.6935 3.07868 11.5839C2.88382 11.4256 2.84728 11.048 3.01779 10.841C3.09086 10.7557 3.20047 10.6705 3.28573 10.6583C3.37098 10.6583 15.6718 10.6583 17.3526 10.6827ZM15.5744 12.8384C15.5744 12.9114 15.4892 13.9467 15.3795 15.1402L15.1847 17.3081H10.3374H5.47796L5.4536 17.1132C5.44142 17.0158 5.35617 16.1267 5.27092 15.1646C5.18566 14.2024 5.10041 13.2525 5.08823 13.0576L5.05169 12.7166H10.3131H15.5744V12.8384ZM15.0751 18.3555C15.0873 18.392 14.9167 20.5599 14.6853 23.1662C14.4539 25.7725 14.2713 27.9282 14.2713 27.9526C14.2713 27.977 12.6636 28.0013 10.3496 27.9891L6.41575 27.977L6.02602 23.4707C5.8068 20.9862 5.61193 18.8183 5.59975 18.6478C5.57539 18.3677 5.57539 18.3311 5.69718 18.319C5.77026 18.3068 7.91378 18.2946 10.447 18.2946C13.8084 18.2824 15.0507 18.2946 15.0751 18.3555Z" fill="black"/>
</svg>
