<svg width="21" height="25" viewBox="0 0 21 25" fill="none" xmlns="http://www.w3.org/2000/svg">
<path d="M11.3013 16.7004C11.3013 17.5217 10.6359 18.1871 9.81462 18.1871C8.9933 18.1871 8.32793 17.5217 8.32793 16.7004C8.32793 15.8791 8.9933 15.2137 9.81462 15.2137C10.6359 15.2137 11.3013 15.8791 11.3013 16.7004ZM9.8562 19.9441C9.32599 19.9441 8.89973 20.3703 8.89973 20.9005C8.89973 21.4307 9.32599 21.857 9.8562 21.857C10.3864 21.857 10.8127 21.4307 10.8127 20.9005C10.8127 20.3703 10.3968 19.9441 9.8562 19.9441ZM15.5534 14.8186C15.5534 14.6003 15.3767 14.4132 15.148 14.4132C14.9193 14.4132 14.7425 14.5899 14.7425 14.8186C14.7425 15.0474 14.9193 15.2241 15.148 15.2241C15.3663 15.2137 15.5534 15.037 15.5534 14.8186ZM20.6685 0.929023L15.647 2.60285L15.3663 4.08953C17.3312 4.4846 18.7971 5.18116 18.7971 6.23119V6.24159C18.8491 6.33516 18.8699 6.42872 18.8491 6.54309L16.1148 22.6575C16.1148 22.6887 16.1356 22.7095 16.1356 22.7407C16.1356 24.1546 13.0271 24.5289 11.1869 24.5289C9.34678 24.5289 6.23825 24.1546 6.23825 22.7407C6.23825 22.7303 6.23825 22.7199 6.23825 22.7095L4.21095 9.91152C4.14857 9.91152 4.08619 9.93231 4.01342 9.93231H3.95104C1.747 9.90113 -0.030785 8.07136 0.000404199 5.86732C0.0315934 3.69447 1.83017 1.91668 4.00302 1.91668C5.13623 1.93748 6.13429 2.36373 6.88283 3.13306C7.14274 3.39297 7.34027 3.69447 7.50661 4.01676C8.61903 3.82962 9.877 3.73605 11.1765 3.72566C12.2682 3.72566 13.3806 3.79843 14.4098 3.94398L14.7529 2.1558C14.7841 1.98946 14.9089 1.84391 15.0752 1.79193L20.367 0.0245355C20.6269 -0.0586358 20.8868 0.0765175 20.9804 0.326031C21.0531 0.575545 20.918 0.845852 20.6685 0.929023ZM7.88089 4.92125C7.96406 5.26433 8.02643 5.6178 8.02643 5.98168C8.01604 6.52229 7.90168 7.05251 7.69375 7.52035C8.75418 7.69709 9.93937 7.79065 11.1973 7.79065C12.1226 7.79065 12.9647 7.73867 13.7237 7.6555L14.2435 4.87966C13.3702 4.7549 12.3617 4.68213 11.1869 4.68213C11.1869 4.68213 11.1869 4.68213 11.1765 4.68213C10.0121 4.68213 8.88934 4.7653 7.88089 4.92125ZM4.01342 8.96545C4.19016 8.96545 4.3565 8.94466 4.53324 8.91347H4.54364C5.12583 8.8095 5.64566 8.5392 6.06151 8.15453C4.79315 7.80105 3.57677 7.20846 3.57677 6.24159C3.57677 5.97128 3.79509 5.76335 4.055 5.76335C4.32531 5.76335 4.53324 5.98168 4.53324 6.24159C4.53324 6.43912 5.08425 6.93815 6.6853 7.32282C6.90362 6.91736 7.03878 6.45991 7.04917 5.97128C7.04917 5.56582 6.98679 5.18116 6.84124 4.81728C6.82045 4.78609 6.79966 4.74451 6.78926 4.71332C6.64371 4.38063 6.44618 4.06874 6.18627 3.80883C5.62486 3.22663 4.85553 2.89394 4.04461 2.88355C2.3396 2.88355 0.977667 4.22469 0.956874 5.87772C0.946478 7.56193 2.28761 8.94466 3.97183 8.96545L4.02382 9.44368L4.01342 8.96545ZM5.15702 9.74518L5.34416 10.9408C6.90362 10.161 10.3656 10.1091 11.2181 10.1091C11.5612 10.1091 12.3305 10.1195 13.2246 10.1818L13.5157 8.65356C12.7568 8.72633 11.9563 8.76792 11.1869 8.76792C9.72105 8.76792 8.33833 8.64316 7.13234 8.40404C6.63332 9.02783 5.94715 9.50606 5.15702 9.74518ZM17.6847 7.63471C16.905 8.05056 15.7822 8.35206 14.5138 8.5288L14.1811 10.265C15.2727 10.3794 16.3955 10.5873 17.1129 10.9512L17.6847 7.63471ZM13.7653 12.5106C15.4287 12.3547 16.4683 12.0636 16.8218 11.8453C16.4891 11.6373 15.5326 11.367 14.0148 11.2111L13.7653 12.5106ZM13.0479 11.1279C12.4969 11.0967 11.8939 11.0655 11.2285 11.0655C8.04723 11.0655 6.14468 11.5334 5.63526 11.8453C6.14468 12.1571 8.04723 12.625 11.2285 12.625C11.7899 12.625 12.289 12.6042 12.7776 12.5834L13.0479 11.1279ZM15.148 22.7511C15.148 22.7199 15.1376 22.6783 15.148 22.6471L16.801 12.9057C15.9381 13.2384 14.7009 13.4151 13.5885 13.5087L13.1831 15.6088C13.2766 15.5672 13.3702 15.5464 13.4742 15.5464C13.8692 15.5464 14.1915 15.8687 14.1915 16.2637C14.1915 16.6588 13.8692 16.9811 13.4742 16.9811C13.2766 16.9811 13.0895 16.8979 12.9647 16.7628L12.5697 18.842C12.6113 18.842 12.6424 18.8212 12.6736 18.8212C13.1207 18.8212 13.4742 19.1747 13.4742 19.6218C13.4742 20.0688 13.1207 20.4223 12.6736 20.4223C12.5281 20.4223 12.4033 20.3703 12.289 20.3079L11.9459 22.1169C11.9043 22.3456 11.6964 22.512 11.4676 22.512C11.4365 22.512 11.4053 22.512 11.3741 22.5016C11.1142 22.4496 10.9374 22.2001 10.9894 21.9402L12.5801 13.5607C11.9771 13.5919 11.478 13.5919 11.2181 13.5919C10.4176 13.5919 7.31948 13.5399 5.65605 12.8953L7.20512 22.6367C7.20512 22.6679 7.20512 22.7095 7.20512 22.7407C7.32988 23.011 8.80617 23.562 11.1869 23.562C13.4846 23.5724 14.94 23.0526 15.148 22.7511ZM15.1896 5.03561L14.7113 7.52035C16.697 7.17727 17.8303 6.60546 17.8303 6.24159C17.8303 5.9089 16.9154 5.37869 15.1896 5.03561Z" fill="black"/>
</svg>
